<svg width="418" height="77" viewBox="0 0 418 77" fill="none" xmlns="http://www.w3.org/2000/svg">
<path d="M41.1344 45.9109C41.1344 49.2385 40.5976 52.0932 39.5388 54.4134C38.4661 56.7192 37.0157 58.642 35.2167 60.1381C33.3608 61.6645 31.1558 62.8098 28.6609 63.5274C23.9472 64.9013 18.4212 65.2673 13.1276 63.4814C10.7345 62.6725 8.55909 61.6037 6.68795 60.2911C4.86114 59.0237 3.38161 57.5889 2.27891 56.0011C1.32139 54.6581 0.872406 53.3298 0.872406 51.9711C0.872406 50.765 1.2349 49.8188 2.03247 48.979C2.83004 48.1397 3.72932 47.7581 4.87504 47.7581C5.65827 47.7581 6.29633 47.9867 6.92048 48.4905C8.00796 49.3911 9.15412 50.3834 10.3429 51.4669C11.7063 52.7191 13.2728 53.8644 14.9553 54.8867C16.9277 56.0624 19.2626 56.6727 21.9027 56.6727C23.8021 56.6727 25.485 56.2763 26.8772 55.4974C28.1824 54.7646 29.2851 53.8644 30.1261 52.826C30.9528 51.7881 31.5618 50.6889 31.9534 49.5289C32.345 48.384 32.5336 47.3613 32.5336 46.4298C32.5336 43.682 31.4023 41.3154 29.2412 39.6211C27.5735 38.2929 25.6589 37.2554 23.4978 36.4921L16.5222 34.2476C14.5928 33.6065 12.7217 32.8276 10.967 31.9123C9.34232 31.0721 7.89191 30.0346 6.67404 28.8593C5.5131 27.7293 4.59948 26.4314 3.90361 24.9206C3.25078 23.5006 2.91697 21.8211 2.91697 19.9287C2.91697 17.074 3.39595 14.6004 4.35304 12.5858C5.31012 10.5404 6.5719 8.90657 8.1966 7.59394C9.86432 6.25089 11.8367 5.24295 14.0413 4.60185C16.3618 3.93033 18.8419 3.59435 21.4093 3.59435C24.0924 3.59435 26.5725 3.91468 28.777 4.55665C30.9676 5.19731 32.8527 6.03661 34.3904 7.05933C35.8256 8.0212 36.9427 9.08999 37.6968 10.2348C38.3496 11.2271 38.6686 12.1581 38.6686 13.0896C38.6686 14.5404 38.4078 15.5779 37.9723 15.9595C36.711 17.0431 35.2749 16.967 33.9697 16.4024C33.3747 16.1577 32.9109 15.8678 32.5914 15.5166C32.0838 14.9981 31.4748 14.4022 30.7494 13.7768C29.981 13.1048 29.1108 12.4485 28.1681 11.853C27.1819 11.2428 26.1231 10.7082 25.006 10.2961C23.7738 9.83845 22.4829 9.60852 21.1629 9.60852C18.7259 9.60852 16.5361 10.433 14.6363 12.0821C12.5908 13.8372 11.5181 16.1882 11.5181 18.8904C11.5181 19.7757 11.6481 20.6615 11.8945 21.5008C12.1992 22.5235 12.7508 23.455 13.5192 24.2491C14.1573 24.9206 14.9697 25.5469 16.0141 26.1572C16.9999 26.7213 18.1899 27.2412 19.669 27.6988L27.0076 30.0498C29.0817 30.6905 31.0541 31.5002 32.867 32.446C34.5647 33.3475 36.0438 34.431 37.276 35.7132C38.4509 36.935 39.4084 38.3846 40.1047 40.0493C40.7858 41.6666 41.1344 43.6359 41.1344 45.9109Z" fill="#909295"/>
<path d="M54.4165 7.52483C54.4165 8.67056 54.0392 9.57026 53.2417 10.3674C52.4436 11.165 51.5439 11.5422 50.3982 11.5422C49.2529 11.5422 48.3971 11.1798 47.6134 10.3965C46.8302 9.59896 46.4677 8.6849 46.4677 7.52483C46.4677 6.37911 46.8302 5.49461 47.5995 4.72616C48.368 3.95684 49.2529 3.59435 50.3982 3.59435C51.5591 3.59435 52.4723 3.97118 53.2708 4.74007C54.0392 5.50852 54.4165 6.39389 54.4165 7.52483Z" fill="#909295"/>
<path d="M54.419 21.3454V60.9728C54.419 61.9733 54.0856 62.7274 53.3749 63.4529C52.65 64.1778 51.8806 64.4973 50.8944 64.4973C50.4163 64.4973 49.9808 64.4104 49.5749 64.2361C49.1393 64.0474 48.7769 63.801 48.4583 63.4967C48.1536 63.192 47.9215 62.8148 47.7328 62.3797C47.5446 61.9303 47.4573 61.4804 47.4573 60.9728V21.3454C47.4573 20.3587 47.7763 19.6046 48.4583 18.9083C49.1541 18.2264 49.9087 17.9078 50.8944 17.9078C51.3877 17.9078 51.8519 17.9951 52.3014 18.1833C52.7369 18.3715 53.0998 18.6041 53.4184 18.9083C53.7227 19.2278 53.9691 19.5903 54.1577 20.0254C54.332 20.4313 54.419 20.8668 54.419 21.3454Z" fill="#909295"/>
<path d="M94.7194 50.7614C94.7194 53.1254 94.2909 55.1722 93.4503 56.8386C92.577 58.552 91.4353 59.9324 89.9431 61.059C88.4041 62.2334 86.5794 63.1379 84.5327 63.7403C82.406 64.3758 80.0893 64.6926 77.6457 64.6926C75.9645 64.6926 74.0282 64.3914 71.9176 63.8203C69.7756 63.2331 67.761 62.3925 65.9038 61.3285C64.1274 60.3127 62.6197 59.1074 61.4613 57.7748C60.5407 56.7273 60.1122 55.6642 60.1122 54.4585C60.1122 53.4267 60.2712 52.0784 60.9849 51.396C61.207 51.1735 61.9051 50.5071 63.7941 50.5071C64.4604 50.5071 65.1267 50.7297 65.793 51.1891C66.8722 51.9197 67.9353 52.7286 68.9511 53.617C70.1412 54.6328 71.3786 55.6007 72.6473 56.4731C75.7259 58.6154 79.629 58.7589 83.0883 57.2193C85.3576 56.1879 86.675 54.2047 86.675 51.7446C86.675 49.4761 85.5002 47.5398 83.3583 46.2707C81.9783 45.4614 80.2797 44.7477 78.3129 44.1287C76.5508 43.5893 74.631 43.0021 72.5369 42.3993C70.7757 41.8907 69.1254 41.161 67.6494 40.2091C66.2689 39.3363 65.1423 38.2254 64.2065 36.8454C63.4129 35.6393 63.0008 33.9415 63.0008 31.7679C63.0008 29.9267 63.2703 28.2138 63.8097 26.706C64.3017 25.2939 65.0632 24.1038 66.1416 23.0567C67.2208 21.9932 68.6173 21.1526 70.2837 20.518C72.0292 19.8834 74.1707 19.55 76.6626 19.55C79.0427 19.55 81.232 19.7882 83.1835 20.232C85.0721 20.6766 86.6902 21.2634 87.9759 21.9932C89.1342 22.6278 90.0066 23.3584 90.5938 24.1833C91.0858 24.8497 91.3079 25.516 91.3079 26.2775C91.3079 27.0711 91.0384 27.6901 90.4512 28.2929C89.8801 28.8801 89.2768 29.1335 88.4514 29.1335C87.4839 29.1335 86.675 29.007 86.1195 28.7532C85.2463 28.3564 84.4375 27.9278 83.7077 27.484C82.8189 26.9438 81.9618 26.4518 81.1211 25.9762C79.8359 25.2617 78.3446 24.9131 76.6626 24.9131C75.2817 24.9131 74.0125 25.3417 73.0124 26.1349C71.8067 27.1029 71.1404 28.5307 71.1404 30.1493C71.1404 32.6563 72.3144 34.7352 74.4567 35.9887C75.8528 36.8137 77.5666 37.5274 79.5499 38.0985C81.2954 38.6222 83.1992 39.1621 85.2463 39.7332C86.9919 40.2252 88.6266 40.9389 90.1018 41.8438C91.4505 42.6844 92.5453 43.7793 93.4659 45.2232C94.3065 46.5249 94.7194 48.3969 94.7194 50.7614Z" fill="#909295"/>
<path d="M124.035 14.6046C125.285 14.6046 126.463 14.8459 127.571 15.3286C128.678 15.8114 129.629 16.4644 130.424 17.2879C131.219 18.1114 131.858 19.0768 132.341 20.1842C132.824 21.2916 133.065 22.47 133.065 23.7193C133.065 24.9687 132.824 26.1329 132.341 27.2119C131.858 28.2909 131.219 29.2422 130.424 30.0656C129.629 30.8891 128.678 31.5422 127.571 32.0249C126.463 32.5076 125.285 32.749 124.035 32.749H115.858V14.6046H124.035ZM100.95 57.197C100.95 59.2983 101.674 61.0729 103.123 62.5211C104.571 63.9692 106.317 64.6933 108.361 64.6933C110.463 64.6933 112.237 63.9692 113.685 62.5211C115.134 61.0729 115.858 59.2983 115.858 57.197V46.5489H125.143C128.266 46.5489 131.219 45.9526 134.002 44.76C136.785 43.5674 139.213 41.9347 141.285 39.8619C143.358 37.7891 144.991 35.3755 146.183 32.6212C147.376 29.8669 147.972 26.8996 147.972 23.7193C147.972 20.5391 147.376 17.5577 146.183 14.7749C144.991 11.9922 143.358 9.56445 141.285 7.49162C139.213 5.41879 136.785 3.78609 134.002 2.5935C131.219 1.4009 128.266 0.804596 125.143 0.804596H108.361C106.317 0.804596 104.571 1.52867 103.123 2.97681C101.674 4.42495 100.95 6.17124 100.95 8.21568V57.197ZM153.595 8.21568V57.197C153.595 59.2983 154.319 61.0729 155.767 62.5211C157.215 63.9692 158.961 64.6933 161.006 64.6933C163.107 64.6933 164.882 63.9692 166.33 62.5211C167.778 61.0729 168.502 59.2983 168.502 57.197V8.21568C168.502 6.17124 167.778 4.42495 166.33 2.97681C164.882 1.52867 163.107 0.804596 161.006 0.804596C158.961 0.804596 157.215 1.52867 155.767 2.97681C154.319 4.42495 153.595 6.17124 153.595 8.21568ZM235.031 6.42681C234.577 4.77991 233.739 3.43115 232.518 2.38053C231.297 1.32991 229.75 0.804596 227.876 0.804596C226.399 0.804596 225.008 1.25893 223.702 2.16757C222.396 3.0762 221.459 4.26879 220.891 5.74533L210.839 33.3452L200.787 5.74533C200.219 4.26879 199.282 3.0762 197.976 2.16757C196.67 1.25893 195.278 0.804596 193.802 0.804596C191.928 0.804596 190.38 1.32991 189.159 2.38053C187.938 3.43115 187.101 4.77991 186.646 6.42681L174.38 55.4933C174.209 56.118 174.124 56.7143 174.124 57.2822C174.124 58.3044 174.323 59.2556 174.72 60.1359C175.118 61.0162 175.643 61.797 176.296 62.4785C176.949 63.16 177.73 63.6995 178.639 64.097C179.548 64.4945 180.513 64.6933 181.535 64.6933C183.182 64.6933 184.687 64.168 186.05 63.1174C187.413 62.0668 188.322 60.718 188.776 59.0711L195.165 33.7712L204.62 59.8378C205.131 61.3143 205.912 62.4927 206.963 63.3729C208.014 64.2532 209.306 64.6933 210.839 64.6933C212.372 64.6933 213.664 64.2532 214.715 63.3729C215.765 62.4927 216.546 61.3143 217.057 59.8378L226.513 33.7712L232.817 59.0711C233.271 60.718 234.194 62.0668 235.585 63.1174C236.976 64.168 238.496 64.6933 240.142 64.6933C241.449 64.6933 242.556 64.4519 243.465 63.9692C244.373 63.4865 245.126 62.8618 245.722 62.0952C246.318 61.3285 246.758 60.5192 247.042 59.6674C247.326 58.8155 247.468 57.9921 247.468 57.197C247.468 56.9131 247.468 56.6291 247.468 56.3452C247.468 56.0612 247.412 55.7773 247.298 55.4933L235.031 6.42681Z" fill="#747477"/>
<path d="M283.14 28.3824C283.14 28.0075 283.078 27.6805 282.954 27.4013C282.831 27.1222 282.663 26.8789 282.452 26.6715C282.24 26.4641 281.991 26.2886 281.704 26.1451C281.417 26.0015 281.11 25.8819 280.783 25.7861L279.718 25.4631C279.534 25.4073 279.385 25.3474 279.269 25.2836C279.154 25.2198 279.064 25.156 279 25.0922C278.936 25.0284 278.892 24.9586 278.868 24.8828C278.845 24.8071 278.833 24.7293 278.833 24.6495C278.833 24.4023 278.932 24.1969 279.132 24.0334C279.331 23.8699 279.558 23.7881 279.814 23.7881C279.957 23.7881 280.097 23.812 280.232 23.8599C280.368 23.9077 280.496 23.9676 280.615 24.0394C280.735 24.1111 280.843 24.1869 280.938 24.2667C281.034 24.3464 281.114 24.4182 281.178 24.482C281.265 24.5698 281.379 24.6416 281.519 24.6974C281.658 24.7532 281.804 24.7811 281.955 24.7811C282.163 24.7811 282.352 24.7113 282.524 24.5718C282.695 24.4322 282.781 24.1909 282.781 23.8479C282.781 23.6326 282.709 23.4212 282.565 23.2138C282.422 23.0064 282.22 22.821 281.961 22.6575C281.702 22.494 281.393 22.3624 281.034 22.2627C280.675 22.163 280.28 22.1131 279.85 22.1131C279.435 22.1131 279.04 22.165 278.665 22.2686C278.29 22.3723 277.959 22.5338 277.672 22.7532C277.385 22.9725 277.158 23.2517 276.99 23.5907C276.823 23.9297 276.739 24.3305 276.739 24.7931C276.739 25.1201 276.801 25.4113 276.924 25.6665C277.048 25.9217 277.213 26.1451 277.421 26.3365C277.628 26.5279 277.869 26.6914 278.145 26.827C278.42 26.9626 278.709 27.0783 279.012 27.174L280.029 27.4851C280.292 27.5728 280.527 27.6944 280.735 27.85C280.942 28.0055 281.046 28.2069 281.046 28.4542C281.046 28.5339 281.026 28.6296 280.986 28.7413C280.946 28.853 280.882 28.9607 280.795 29.0644C280.707 29.168 280.591 29.2578 280.448 29.3335C280.304 29.4093 280.129 29.4472 279.921 29.4472C279.61 29.4472 279.343 29.3834 279.12 29.2558C278.896 29.1282 278.695 28.9866 278.515 28.831C278.336 28.6755 278.165 28.5339 278.001 28.4063C277.838 28.2787 277.652 28.2149 277.445 28.2149C277.166 28.2149 276.928 28.3126 276.733 28.508C276.537 28.7034 276.44 28.9407 276.44 29.2199C276.44 29.4991 276.535 29.7683 276.727 30.0275C276.918 30.2867 277.168 30.518 277.475 30.7214C277.782 30.9248 278.129 31.0883 278.515 31.2119C278.902 31.3356 279.291 31.3974 279.682 31.3974C280.153 31.3974 280.597 31.3396 281.016 31.2239C281.435 31.1082 281.802 30.9268 282.117 30.6795C282.432 30.4323 282.681 30.1192 282.865 29.7403C283.048 29.3615 283.14 28.9088 283.14 28.3824ZM283.499 23.1899C283.499 23.4691 283.594 23.7063 283.786 23.9018C283.977 24.0972 284.212 24.1949 284.492 24.1949C284.771 24.1949 285.008 24.0972 285.204 23.9018C285.399 23.7063 285.497 23.4691 285.497 23.1899C285.497 22.9107 285.399 22.6754 285.204 22.484C285.008 22.2926 284.771 22.1969 284.492 22.1969C284.212 22.1969 283.977 22.2926 283.786 22.484C283.594 22.6754 283.499 22.9107 283.499 23.1899ZM285.425 25.4631C285.425 25.3355 285.401 25.2158 285.353 25.1042C285.305 24.9925 285.239 24.8948 285.156 24.8111C285.072 24.7273 284.972 24.6615 284.857 24.6136C284.741 24.5658 284.619 24.5419 284.492 24.5419C284.236 24.5419 284.019 24.6316 283.84 24.8111C283.66 24.9905 283.57 25.2079 283.57 25.4631V30.3086C283.57 30.4363 283.594 30.5579 283.642 30.6735C283.69 30.7892 283.756 30.8889 283.84 30.9727C283.923 31.0564 284.021 31.1222 284.133 31.1701C284.244 31.2179 284.364 31.2418 284.492 31.2418C284.747 31.2418 284.966 31.1501 285.15 30.9667C285.333 30.7832 285.425 30.5639 285.425 30.3086V25.4631ZM291.287 29.0404C291.287 28.6416 291.21 28.3206 291.054 28.0773C290.899 27.834 290.705 27.6406 290.474 27.497C290.242 27.3535 289.991 27.2438 289.72 27.168C289.449 27.0922 289.198 27.0205 288.966 26.9527C288.735 26.8849 288.542 26.8051 288.386 26.7134C288.23 26.6216 288.153 26.4841 288.153 26.3006C288.153 26.2129 288.183 26.1451 288.242 26.0972C288.302 26.0494 288.376 26.0254 288.464 26.0254C288.615 26.0254 288.745 26.0553 288.853 26.1152C288.96 26.175 289.07 26.2388 289.182 26.3066C289.293 26.3744 289.415 26.4382 289.547 26.498C289.678 26.5578 289.84 26.5877 290.031 26.5877C290.254 26.5877 290.444 26.508 290.599 26.3485C290.755 26.1889 290.833 26.0015 290.833 25.7861C290.833 25.5947 290.775 25.4192 290.659 25.2597C290.544 25.1002 290.382 24.9626 290.175 24.8469C289.967 24.7313 289.718 24.6396 289.427 24.5718C289.136 24.504 288.815 24.4701 288.464 24.4701C288.081 24.4701 287.75 24.5219 287.471 24.6256C287.192 24.7293 286.958 24.8729 286.771 25.0563C286.583 25.2398 286.446 25.4551 286.358 25.7024C286.27 25.9497 286.226 26.2208 286.226 26.516C286.226 26.8908 286.304 27.1939 286.46 27.4252C286.615 27.6566 286.809 27.846 287.04 27.9935C287.271 28.1411 287.525 28.2548 287.8 28.3345C288.075 28.4143 288.328 28.4901 288.56 28.5619C288.791 28.6336 288.984 28.7154 289.14 28.8071C289.295 28.8988 289.373 29.0205 289.373 29.172C289.373 29.3316 289.297 29.4452 289.146 29.513C288.994 29.5808 288.839 29.6147 288.679 29.6147C288.496 29.6147 288.326 29.5609 288.171 29.4532C288.015 29.3455 287.864 29.2279 287.716 29.1002C287.568 28.9726 287.415 28.855 287.255 28.7473C287.096 28.6396 286.928 28.5858 286.753 28.5858C286.474 28.5858 286.252 28.6635 286.089 28.8191C285.925 28.9746 285.844 29.2119 285.844 29.531C285.844 29.7942 285.937 30.0335 286.125 30.2488C286.312 30.4642 286.546 30.6516 286.825 30.8111C287.104 30.9707 287.403 31.0943 287.722 31.182C288.041 31.2698 288.332 31.3136 288.595 31.3136C288.962 31.3136 289.307 31.2658 289.63 31.1701C289.953 31.0743 290.238 30.9328 290.486 30.7453C290.733 30.5579 290.928 30.3226 291.072 30.0394C291.216 29.7563 291.287 29.4233 291.287 29.0404ZM293.321 31.2418C293.577 31.2418 293.794 31.1501 293.973 30.9667C294.153 30.7832 294.243 30.5639 294.243 30.3086V26.181H294.685C294.909 26.181 295.1 26.1012 295.26 25.9417C295.419 25.7822 295.499 25.5907 295.499 25.3674C295.499 25.1361 295.419 24.9407 295.26 24.7811C295.1 24.6216 294.909 24.5419 294.685 24.5419H294.243V23.489C294.243 23.2338 294.153 23.0164 293.973 22.8369C293.794 22.6575 293.577 22.5677 293.321 22.5677C293.194 22.5677 293.072 22.5917 292.956 22.6395C292.841 22.6874 292.741 22.7532 292.657 22.8369C292.574 22.9207 292.508 23.0184 292.46 23.1301C292.412 23.2417 292.388 23.3614 292.388 23.489V24.5419H292.173C291.941 24.5419 291.746 24.6216 291.586 24.7811C291.427 24.9407 291.347 25.1361 291.347 25.3674C291.347 25.5907 291.427 25.7822 291.586 25.9417C291.746 26.1012 291.941 26.181 292.173 26.181H292.388V30.3086C292.388 30.5639 292.48 30.7832 292.663 30.9667C292.847 31.1501 293.066 31.2418 293.321 31.2418ZM298.035 28.9806L301.158 27.6765C301.341 27.6047 301.475 27.495 301.559 27.3475C301.642 27.1999 301.684 27.0264 301.684 26.827C301.684 26.4681 301.603 26.1451 301.439 25.8579C301.276 25.5708 301.06 25.3235 300.793 25.1161C300.526 24.9088 300.219 24.7492 299.872 24.6376C299.525 24.5259 299.172 24.4701 298.813 24.4701C298.342 24.4701 297.9 24.5538 297.485 24.7213C297.07 24.8888 296.707 25.1241 296.396 25.4272C296.085 25.7303 295.84 26.0912 295.66 26.51C295.481 26.9287 295.391 27.3894 295.391 27.8919C295.391 28.3944 295.481 28.855 295.66 29.2737C295.84 29.6925 296.085 30.0534 296.396 30.3565C296.707 30.6596 297.07 30.8949 297.485 31.0624C297.9 31.2299 298.342 31.3136 298.813 31.3136C299.291 31.3136 299.73 31.2319 300.129 31.0684C300.528 30.9049 300.855 30.7035 301.11 30.4642C301.293 30.2807 301.385 30.0733 301.385 29.842C301.385 29.7144 301.359 29.5928 301.307 29.4771C301.256 29.3615 301.186 29.2598 301.098 29.172C301.01 29.0843 300.909 29.0125 300.793 28.9567C300.677 28.9008 300.56 28.8729 300.44 28.8729C300.281 28.8729 300.155 28.9068 300.063 28.9746C299.971 29.0424 299.876 29.1162 299.776 29.196C299.676 29.2757 299.555 29.3495 299.411 29.4173C299.268 29.4851 299.068 29.519 298.813 29.519C298.725 29.519 298.625 29.507 298.514 29.4831C298.402 29.4592 298.298 29.4293 298.203 29.3934C298.107 29.3575 298.027 29.3176 297.963 29.2737C297.9 29.2299 297.868 29.184 297.868 29.1361C297.868 29.0803 297.924 29.0285 298.035 28.9806ZM297.293 27.4851C297.293 27.3654 297.331 27.2338 297.407 27.0902C297.483 26.9467 297.589 26.8151 297.724 26.6954C297.86 26.5758 298.019 26.4741 298.203 26.3903C298.386 26.3066 298.59 26.2647 298.813 26.2647C299.044 26.2647 299.244 26.3006 299.411 26.3724C299.579 26.4442 299.662 26.5239 299.662 26.6117C299.662 26.6755 299.607 26.7313 299.495 26.7792L297.557 27.5927C297.509 27.6087 297.469 27.6167 297.437 27.6167C297.397 27.6167 297.363 27.6067 297.335 27.5868C297.307 27.5668 297.293 27.5329 297.293 27.4851ZM306.709 25.1879C306.478 24.9805 306.207 24.8091 305.896 24.6735C305.585 24.5379 305.23 24.4701 304.831 24.4701C304.448 24.4701 304.087 24.5438 303.748 24.6914C303.409 24.839 303.114 25.0384 302.863 25.2896C302.612 25.5409 302.412 25.836 302.265 26.175C302.117 26.514 302.043 26.8749 302.043 27.2577V30.3086C302.043 30.5639 302.133 30.7832 302.312 30.9667C302.492 31.1501 302.709 31.2418 302.964 31.2418C303.22 31.2418 303.439 31.1501 303.623 30.9667C303.806 30.7832 303.898 30.5639 303.898 30.3086V27.2577C303.898 27.0025 303.989 26.7832 304.173 26.5997C304.356 26.4163 304.576 26.3245 304.831 26.3245C305.094 26.3245 305.317 26.4163 305.501 26.5997C305.684 26.7832 305.776 27.0025 305.776 27.2577V30.3086C305.776 30.5639 305.868 30.7832 306.051 30.9667C306.235 31.1501 306.454 31.2418 306.709 31.2418C306.837 31.2418 306.957 31.2179 307.068 31.1701C307.18 31.1222 307.278 31.0564 307.361 30.9727C307.445 30.8889 307.511 30.7892 307.559 30.6735C307.607 30.5579 307.631 30.4363 307.631 30.3086V27.2577C307.631 27.0025 307.722 26.7832 307.906 26.5997C308.089 26.4163 308.313 26.3245 308.576 26.3245C308.831 26.3245 309.052 26.4163 309.24 26.5997C309.427 26.7832 309.521 27.0025 309.521 27.2577V30.3086C309.521 30.5639 309.611 30.7832 309.79 30.9667C309.97 31.1501 310.187 31.2418 310.442 31.2418C310.697 31.2418 310.917 31.1501 311.1 30.9667C311.284 30.7832 311.375 30.5639 311.375 30.3086V27.2577C311.375 26.8749 311.302 26.514 311.154 26.175C311.006 25.836 310.807 25.5409 310.556 25.2896C310.305 25.0384 310.007 24.839 309.664 24.6914C309.322 24.5438 308.959 24.4701 308.576 24.4701C308.185 24.4701 307.832 24.5379 307.517 24.6735C307.202 24.8091 306.933 24.9805 306.709 25.1879ZM315.132 26.3485C315.348 26.3485 315.547 26.3883 315.73 26.4681C315.914 26.5479 316.075 26.6575 316.215 26.7971C316.355 26.9367 316.464 27.1002 316.544 27.2877C316.624 27.4751 316.664 27.6765 316.664 27.8919C316.664 28.1072 316.624 28.3086 316.544 28.496C316.464 28.6835 316.355 28.847 316.215 28.9866C316.075 29.1262 315.914 29.2358 315.73 29.3156C315.547 29.3954 315.348 29.4352 315.132 29.4352C314.917 29.4352 314.715 29.3954 314.528 29.3156C314.341 29.2358 314.177 29.1262 314.037 28.9866C313.898 28.847 313.788 28.6835 313.708 28.496C313.629 28.3086 313.589 28.1072 313.589 27.8919C313.589 27.6765 313.629 27.4751 313.708 27.2877C313.788 27.1002 313.898 26.9367 314.037 26.7971C314.177 26.6575 314.341 26.5479 314.528 26.4681C314.715 26.3883 314.917 26.3485 315.132 26.3485ZM318.518 25.4631C318.518 25.2079 318.428 24.9905 318.249 24.8111C318.069 24.6316 317.852 24.5419 317.597 24.5419C317.381 24.5419 317.19 24.6136 317.023 24.7572C316.855 24.9008 316.751 25.0563 316.711 25.2238C316.688 25.2079 316.632 25.164 316.544 25.0922C316.456 25.0204 316.335 24.9427 316.179 24.8589C316.024 24.7752 315.834 24.7014 315.611 24.6376C315.387 24.5738 315.128 24.5419 314.833 24.5419C314.458 24.5419 314.085 24.6256 313.714 24.7931C313.344 24.9606 313.012 25.1919 312.721 25.487C312.43 25.7822 312.193 26.1351 312.009 26.5459C311.826 26.9566 311.734 27.4053 311.734 27.8919C311.734 28.3784 311.826 28.8251 312.009 29.2319C312.193 29.6386 312.43 29.9916 312.721 30.2907C313.012 30.5898 313.344 30.8231 313.714 30.9906C314.085 31.1581 314.458 31.2418 314.833 31.2418C315.128 31.2418 315.387 31.2099 315.611 31.1461C315.834 31.0823 316.024 31.0085 316.179 30.9248C316.335 30.841 316.456 30.7633 316.544 30.6915C316.632 30.6197 316.688 30.5758 316.711 30.5599C316.751 30.7274 316.855 30.8829 317.023 31.0265C317.19 31.1701 317.381 31.2418 317.597 31.2418C317.852 31.2418 318.069 31.1501 318.249 30.9667C318.428 30.7832 318.518 30.5639 318.518 30.3086V25.4631ZM326.486 30.5599C326.526 30.7274 326.63 30.8829 326.797 31.0265C326.965 31.1701 327.156 31.2418 327.372 31.2418C327.627 31.2418 327.844 31.1501 328.024 30.9667C328.203 30.7832 328.293 30.5639 328.293 30.3086V23.1899C328.293 22.9347 328.203 22.7173 328.024 22.5378C327.844 22.3584 327.627 22.2686 327.372 22.2686C327.244 22.2686 327.122 22.2926 327.007 22.3404C326.891 22.3883 326.791 22.4541 326.708 22.5378C326.624 22.6216 326.558 22.7193 326.51 22.831C326.462 22.9426 326.438 23.0623 326.438 23.1899V24.9008C326.438 25.0683 326.414 25.152 326.367 25.152C326.327 25.152 326.267 25.1201 326.187 25.0563C326.107 24.9925 325.998 24.9227 325.858 24.8469C325.719 24.7712 325.547 24.7014 325.344 24.6376C325.14 24.5738 324.895 24.5419 324.608 24.5419C324.233 24.5419 323.86 24.6256 323.489 24.7931C323.118 24.9606 322.787 25.1919 322.496 25.487C322.205 25.7822 321.968 26.1351 321.784 26.5459C321.601 26.9566 321.509 27.4053 321.509 27.8919C321.509 28.3784 321.601 28.8251 321.784 29.2319C321.968 29.6386 322.205 29.9916 322.496 30.2907C322.787 30.5898 323.118 30.8231 323.489 30.9906C323.86 31.1581 324.233 31.2418 324.608 31.2418C324.903 31.2418 325.162 31.2099 325.386 31.1461C325.609 31.0823 325.798 31.0085 325.954 30.9248C326.109 30.841 326.231 30.7633 326.319 30.6915C326.406 30.6197 326.462 30.5758 326.486 30.5599ZM324.907 26.3485C325.122 26.3485 325.322 26.3883 325.505 26.4681C325.689 26.5479 325.85 26.6575 325.99 26.7971C326.129 26.9367 326.239 27.1002 326.319 27.2877C326.399 27.4751 326.438 27.6765 326.438 27.8919C326.438 28.1072 326.399 28.3086 326.319 28.496C326.239 28.6835 326.129 28.847 325.99 28.9866C325.85 29.1262 325.689 29.2358 325.505 29.3156C325.322 29.3954 325.122 29.4352 324.907 29.4352C324.692 29.4352 324.49 29.3954 324.303 29.3156C324.115 29.2358 323.952 29.1262 323.812 28.9866C323.673 28.847 323.563 28.6835 323.483 28.496C323.403 28.3086 323.364 28.1072 323.364 27.8919C323.364 27.6765 323.403 27.4751 323.483 27.2877C323.563 27.1002 323.673 26.9367 323.812 26.7971C323.952 26.6575 324.115 26.5479 324.303 26.4681C324.49 26.3883 324.692 26.3485 324.907 26.3485ZM331.368 28.9806L334.49 27.6765C334.674 27.6047 334.807 27.495 334.891 27.3475C334.975 27.1999 335.017 27.0264 335.017 26.827C335.017 26.4681 334.935 26.1451 334.772 25.8579C334.608 25.5708 334.393 25.3235 334.125 25.1161C333.858 24.9088 333.551 24.7492 333.204 24.6376C332.857 24.5259 332.504 24.4701 332.145 24.4701C331.675 24.4701 331.232 24.5538 330.817 24.7213C330.403 24.8888 330.04 25.1241 329.729 25.4272C329.418 25.7303 329.172 26.0912 328.993 26.51C328.813 26.9287 328.724 27.3894 328.724 27.8919C328.724 28.3944 328.813 28.855 328.993 29.2737C329.172 29.6925 329.418 30.0534 329.729 30.3565C330.04 30.6596 330.403 30.8949 330.817 31.0624C331.232 31.2299 331.675 31.3136 332.145 31.3136C332.624 31.3136 333.063 31.2319 333.461 31.0684C333.86 30.9049 334.187 30.7035 334.443 30.4642C334.626 30.2807 334.718 30.0733 334.718 29.842C334.718 29.7144 334.692 29.5928 334.64 29.4771C334.588 29.3615 334.518 29.2598 334.431 29.172C334.343 29.0843 334.241 29.0125 334.125 28.9567C334.01 28.9008 333.892 28.8729 333.773 28.8729C333.613 28.8729 333.487 28.9068 333.396 28.9746C333.304 29.0424 333.208 29.1162 333.108 29.196C333.009 29.2757 332.887 29.3495 332.744 29.4173C332.6 29.4851 332.401 29.519 332.145 29.519C332.058 29.519 331.958 29.507 331.846 29.4831C331.735 29.4592 331.631 29.4293 331.535 29.3934C331.439 29.3575 331.36 29.3176 331.296 29.2737C331.232 29.2299 331.2 29.184 331.2 29.1361C331.2 29.0803 331.256 29.0285 331.368 28.9806ZM330.626 27.4851C330.626 27.3654 330.664 27.2338 330.74 27.0902C330.815 26.9467 330.921 26.8151 331.057 26.6954C331.192 26.5758 331.352 26.4741 331.535 26.3903C331.719 26.3066 331.922 26.2647 332.145 26.2647C332.377 26.2647 332.576 26.3006 332.744 26.3724C332.911 26.4442 332.995 26.5239 332.995 26.6117C332.995 26.6755 332.939 26.7313 332.827 26.7792L330.889 27.5927C330.841 27.6087 330.801 27.6167 330.769 27.6167C330.73 27.6167 330.696 27.6067 330.668 27.5868C330.64 27.5668 330.626 27.5329 330.626 27.4851ZM338.092 23.3095V30.189C338.092 30.4841 338.193 30.7334 338.397 30.9368C338.6 31.1402 338.845 31.2418 339.133 31.2418C339.428 31.2418 339.677 31.1402 339.88 30.9368C340.084 30.7334 340.185 30.4841 340.185 30.189V23.3095C340.185 23.0224 340.084 22.7771 339.88 22.5737C339.677 22.3703 339.428 22.2686 339.133 22.2686C338.845 22.2686 338.6 22.3703 338.397 22.5737C338.193 22.7771 338.092 23.0224 338.092 23.3095ZM343.727 24.4701C343.328 24.4701 342.953 24.5458 342.602 24.6974C342.251 24.8489 341.946 25.0543 341.687 25.3136C341.428 25.5728 341.222 25.8779 341.071 26.2288C340.919 26.5798 340.843 26.9547 340.843 27.3535V30.3086C340.843 30.5639 340.933 30.7832 341.113 30.9667C341.292 31.1501 341.509 31.2418 341.765 31.2418C342.02 31.2418 342.239 31.1501 342.423 30.9667C342.606 30.7832 342.698 30.5639 342.698 30.3086V27.2577C342.698 26.9866 342.8 26.7632 343.003 26.5877C343.206 26.4123 343.448 26.3245 343.727 26.3245C343.998 26.3245 344.237 26.4123 344.445 26.5877C344.652 26.7632 344.756 26.9866 344.756 27.2577V30.3086C344.756 30.5639 344.847 30.7832 345.031 30.9667C345.214 31.1501 345.434 31.2418 345.689 31.2418C345.817 31.2418 345.936 31.2179 346.048 31.1701C346.16 31.1222 346.257 31.0564 346.341 30.9727C346.425 30.8889 346.491 30.7892 346.538 30.6735C346.586 30.5579 346.61 30.4363 346.61 30.3086V27.3535C346.61 26.9547 346.534 26.5798 346.383 26.2288C346.231 25.8779 346.026 25.5728 345.767 25.3136C345.507 25.0543 345.202 24.8489 344.851 24.6974C344.5 24.5458 344.126 24.4701 343.727 24.4701ZM349.661 26.3365H350.211C350.443 26.3365 350.638 26.2567 350.798 26.0972C350.957 25.9377 351.037 25.7423 351.037 25.511C351.037 25.2797 350.957 25.0842 350.798 24.9247C350.638 24.7652 350.443 24.6854 350.211 24.6854H349.661V24.3863C349.661 24.2746 349.675 24.1809 349.703 24.1052C349.731 24.0294 349.797 23.9915 349.9 23.9915C349.98 23.9915 350.058 24.0074 350.134 24.0394C350.209 24.0713 350.283 24.1052 350.355 24.1411C350.427 24.1769 350.493 24.2088 350.552 24.2368C350.612 24.2647 350.674 24.2786 350.738 24.2786C350.921 24.2786 351.081 24.1949 351.216 24.0274C351.352 23.8599 351.42 23.6724 351.42 23.4651C351.42 23.2577 351.368 23.0762 351.264 22.9207C351.161 22.7652 351.027 22.6336 350.863 22.5259C350.7 22.4182 350.519 22.3364 350.319 22.2806C350.12 22.2248 349.92 22.1969 349.721 22.1969C349.394 22.1969 349.111 22.2527 348.871 22.3644C348.632 22.476 348.433 22.6296 348.273 22.825C348.114 23.0204 347.996 23.2517 347.92 23.5189C347.844 23.7861 347.807 24.0752 347.807 24.3863V24.6854H347.795C347.563 24.6854 347.368 24.7652 347.208 24.9247C347.049 25.0842 346.969 25.2797 346.969 25.511C346.969 25.7423 347.049 25.9377 347.208 26.0972C347.368 26.2567 347.563 26.3365 347.795 26.3365H347.807V30.3206C347.807 30.5758 347.896 30.7932 348.076 30.9727C348.255 31.1521 348.473 31.2418 348.728 31.2418C348.855 31.2418 348.977 31.2179 349.093 31.1701C349.208 31.1222 349.308 31.0564 349.392 30.9727C349.476 30.8889 349.541 30.7912 349.589 30.6795C349.637 30.5679 349.661 30.4482 349.661 30.3206V26.3365ZM354.83 31.3136C355.3 31.3136 355.743 31.2299 356.158 31.0624C356.572 30.8949 356.935 30.6596 357.246 30.3565C357.557 30.0534 357.803 29.6925 357.982 29.2737C358.162 28.855 358.251 28.3944 358.251 27.8919C358.251 27.3894 358.162 26.9287 357.982 26.51C357.803 26.0912 357.557 25.7303 357.246 25.4272C356.935 25.1241 356.572 24.8888 356.158 24.7213C355.743 24.5538 355.3 24.4701 354.83 24.4701C354.359 24.4701 353.916 24.5538 353.502 24.7213C353.087 24.8888 352.724 25.1241 352.413 25.4272C352.102 25.7303 351.857 26.0912 351.677 26.51C351.498 26.9287 351.408 27.3894 351.408 27.8919C351.408 28.3944 351.498 28.855 351.677 29.2737C351.857 29.6925 352.102 30.0534 352.413 30.3565C352.724 30.6596 353.087 30.8949 353.502 31.0624C353.916 31.2299 354.359 31.3136 354.83 31.3136ZM353.202 27.8919C353.202 27.6685 353.244 27.4572 353.328 27.2577C353.412 27.0583 353.528 26.8849 353.675 26.7373C353.823 26.5897 353.996 26.4741 354.196 26.3903C354.395 26.3066 354.606 26.2647 354.83 26.2647C355.053 26.2647 355.264 26.3066 355.464 26.3903C355.663 26.4741 355.837 26.5897 355.984 26.7373C356.132 26.8849 356.247 27.0583 356.331 27.2577C356.415 27.4572 356.457 27.6685 356.457 27.8919C356.457 28.1152 356.415 28.3266 356.331 28.526C356.247 28.7254 356.132 28.8988 355.984 29.0464C355.837 29.194 355.663 29.3096 355.464 29.3934C355.264 29.4771 355.053 29.519 354.83 29.519C354.606 29.519 354.395 29.4771 354.196 29.3934C353.996 29.3096 353.823 29.194 353.675 29.0464C353.528 28.8988 353.412 28.7254 353.328 28.526C353.244 28.3266 353.202 28.1152 353.202 27.8919ZM360.465 26.9945C360.465 26.8669 360.483 26.7652 360.519 26.6894C360.555 26.6137 360.596 26.5578 360.644 26.5219C360.692 26.486 360.744 26.4621 360.8 26.4502C360.856 26.4382 360.904 26.4322 360.943 26.4322C361.031 26.4322 361.109 26.4502 361.177 26.486C361.244 26.5219 361.314 26.5638 361.386 26.6117C361.458 26.6595 361.54 26.7014 361.631 26.7373C361.723 26.7732 361.837 26.7911 361.972 26.7911C362.1 26.7911 362.228 26.7632 362.355 26.7074C362.483 26.6516 362.596 26.5738 362.696 26.4741C362.796 26.3744 362.878 26.2527 362.941 26.1092C363.005 25.9656 363.037 25.8061 363.037 25.6306C363.037 25.4551 363.001 25.2976 362.929 25.158C362.858 25.0184 362.762 24.9048 362.642 24.817C362.523 24.7293 362.387 24.6615 362.236 24.6136C362.084 24.5658 361.932 24.5419 361.781 24.5419C361.621 24.5419 361.472 24.5638 361.332 24.6077C361.193 24.6515 361.063 24.7034 360.943 24.7632C360.824 24.823 360.716 24.8828 360.62 24.9427C360.525 25.0025 360.449 25.0523 360.393 25.0922C360.329 24.9486 360.22 24.821 360.064 24.7094C359.908 24.5977 359.731 24.5419 359.532 24.5419C359.276 24.5419 359.059 24.6316 358.88 24.8111C358.7 24.9905 358.61 25.2079 358.61 25.4631V30.3086C358.61 30.5639 358.7 30.7832 358.88 30.9667C359.059 31.1501 359.276 31.2418 359.532 31.2418C359.787 31.2418 360.006 31.1501 360.19 30.9667C360.373 30.7832 360.465 30.5639 360.465 30.3086V26.9945ZM367.966 25.1879C367.735 24.9805 367.464 24.8091 367.153 24.6735C366.842 24.5379 366.487 24.4701 366.088 24.4701C365.705 24.4701 365.344 24.5438 365.005 24.6914C364.666 24.839 364.371 25.0384 364.12 25.2896C363.869 25.5409 363.669 25.836 363.522 26.175C363.374 26.514 363.3 26.8749 363.3 27.2577V30.3086C363.3 30.5639 363.39 30.7832 363.57 30.9667C363.749 31.1501 363.966 31.2418 364.222 31.2418C364.477 31.2418 364.696 31.1501 364.88 30.9667C365.063 30.7832 365.155 30.5639 365.155 30.3086V27.2577C365.155 27.0025 365.247 26.7832 365.43 26.5997C365.613 26.4163 365.833 26.3245 366.088 26.3245C366.351 26.3245 366.575 26.4163 366.758 26.5997C366.941 26.7832 367.033 27.0025 367.033 27.2577V30.3086C367.033 30.5639 367.125 30.7832 367.308 30.9667C367.492 31.1501 367.711 31.2418 367.966 31.2418C368.094 31.2418 368.214 31.2179 368.325 31.1701C368.437 31.1222 368.535 31.0564 368.618 30.9727C368.702 30.8889 368.768 30.7892 368.816 30.6735C368.864 30.5579 368.888 30.4363 368.888 30.3086V27.2577C368.888 27.0025 368.979 26.7832 369.163 26.5997C369.346 26.4163 369.57 26.3245 369.833 26.3245C370.088 26.3245 370.309 26.4163 370.497 26.5997C370.684 26.7832 370.778 27.0025 370.778 27.2577V30.3086C370.778 30.5639 370.868 30.7832 371.047 30.9667C371.227 31.1501 371.444 31.2418 371.699 31.2418C371.955 31.2418 372.174 31.1501 372.357 30.9667C372.541 30.7832 372.632 30.5639 372.632 30.3086V27.2577C372.632 26.8749 372.559 26.514 372.411 26.175C372.264 25.836 372.064 25.5409 371.813 25.2896C371.562 25.0384 371.265 24.839 370.922 24.6914C370.579 24.5438 370.216 24.4701 369.833 24.4701C369.442 24.4701 369.089 24.5379 368.774 24.6735C368.459 24.8091 368.19 24.9805 367.966 25.1879ZM376.389 26.3485C376.605 26.3485 376.804 26.3883 376.987 26.4681C377.171 26.5479 377.332 26.6575 377.472 26.7971C377.612 26.9367 377.721 27.1002 377.801 27.2877C377.881 27.4751 377.921 27.6765 377.921 27.8919C377.921 28.1072 377.881 28.3086 377.801 28.496C377.721 28.6835 377.612 28.847 377.472 28.9866C377.332 29.1262 377.171 29.2358 376.987 29.3156C376.804 29.3954 376.605 29.4352 376.389 29.4352C376.174 29.4352 375.972 29.3954 375.785 29.3156C375.598 29.2358 375.434 29.1262 375.295 28.9866C375.155 28.847 375.045 28.6835 374.966 28.496C374.886 28.3086 374.846 28.1072 374.846 27.8919C374.846 27.6765 374.886 27.4751 374.966 27.2877C375.045 27.1002 375.155 26.9367 375.295 26.7971C375.434 26.6575 375.598 26.5479 375.785 26.4681C375.972 26.3883 376.174 26.3485 376.389 26.3485ZM379.775 25.4631C379.775 25.2079 379.685 24.9905 379.506 24.8111C379.326 24.6316 379.109 24.5419 378.854 24.5419C378.639 24.5419 378.447 24.6136 378.28 24.7572C378.112 24.9008 378.008 25.0563 377.969 25.2238C377.945 25.2079 377.889 25.164 377.801 25.0922C377.713 25.0204 377.592 24.9427 377.436 24.8589C377.281 24.7752 377.091 24.7014 376.868 24.6376C376.644 24.5738 376.385 24.5419 376.09 24.5419C375.715 24.5419 375.342 24.6256 374.971 24.7931C374.601 24.9606 374.27 25.1919 373.978 25.487C373.687 25.7822 373.45 26.1351 373.267 26.5459C373.083 26.9566 372.991 27.4053 372.991 27.8919C372.991 28.3784 373.083 28.8251 373.267 29.2319C373.45 29.6386 373.687 29.9916 373.978 30.2907C374.27 30.5898 374.601 30.8231 374.971 30.9906C375.342 31.1581 375.715 31.2418 376.09 31.2418C376.385 31.2418 376.644 31.2099 376.868 31.1461C377.091 31.0823 377.281 31.0085 377.436 30.9248C377.592 30.841 377.713 30.7633 377.801 30.6915C377.889 30.6197 377.945 30.5758 377.969 30.5599C378.008 30.7274 378.112 30.8829 378.28 31.0265C378.447 31.1701 378.639 31.2418 378.854 31.2418C379.109 31.2418 379.326 31.1501 379.506 30.9667C379.685 30.7832 379.775 30.5639 379.775 30.3086V25.4631ZM384.01 31.2897C384.314 31.2498 384.633 31.1601 384.968 31.0205C385.303 30.8809 385.598 30.6955 385.853 30.4642C385.997 30.3286 386.1 30.195 386.164 30.0634C386.228 29.9318 386.26 29.8021 386.26 29.6745C386.26 29.4352 386.166 29.2319 385.979 29.0644C385.791 28.8969 385.574 28.8131 385.327 28.8131C385.151 28.8131 385.006 28.849 384.89 28.9208C384.774 28.9926 384.661 29.0743 384.549 29.166C384.437 29.2578 384.306 29.3395 384.154 29.4113C384.003 29.4831 383.803 29.519 383.556 29.519C383.333 29.519 383.121 29.4771 382.922 29.3934C382.722 29.3096 382.549 29.194 382.401 29.0464C382.254 28.8988 382.138 28.7254 382.054 28.526C381.971 28.3266 381.929 28.1152 381.929 27.8919C381.929 27.6685 381.971 27.4572 382.054 27.2577C382.138 27.0583 382.254 26.8849 382.401 26.7373C382.549 26.5897 382.722 26.4741 382.922 26.3903C383.121 26.3066 383.333 26.2647 383.556 26.2647C383.795 26.2647 383.991 26.3006 384.142 26.3724C384.294 26.4442 384.431 26.5239 384.555 26.6117C384.679 26.6994 384.798 26.7792 384.914 26.851C385.029 26.9227 385.167 26.9586 385.327 26.9586C385.574 26.9586 385.791 26.8769 385.979 26.7134C386.166 26.5499 386.26 26.3485 386.26 26.1092C386.26 25.9816 386.228 25.8519 386.164 25.7203C386.1 25.5887 385.997 25.4551 385.853 25.3195C385.598 25.0882 385.275 24.8888 384.884 24.7213C384.493 24.5538 384.05 24.4701 383.556 24.4701C383.085 24.4701 382.643 24.5538 382.228 24.7213C381.813 24.8888 381.45 25.1241 381.139 25.4272C380.828 25.7303 380.583 26.0912 380.403 26.51C380.224 26.9287 380.134 27.3894 380.134 27.8919C380.134 28.3944 380.22 28.845 380.391 29.2438C380.563 29.6426 380.788 29.9856 381.067 30.2727C381.346 30.5599 381.664 30.7892 382.018 30.9607C382.373 31.1322 382.738 31.2418 383.113 31.2897V31.7563C383.113 31.8839 383.069 31.9916 382.982 32.0793C382.894 32.1671 382.786 32.211 382.659 32.211H381.989C381.861 32.211 381.753 32.2548 381.665 32.3426C381.578 32.4303 381.534 32.538 381.534 32.6656C381.534 32.7932 381.578 32.8989 381.665 32.9827C381.753 33.0664 381.861 33.1083 381.989 33.1083H382.659C382.842 33.1083 383.015 33.0724 383.179 33.0006C383.342 32.9288 383.486 32.8311 383.61 32.7075C383.733 32.5838 383.831 32.4403 383.903 32.2768C383.975 32.1132 384.01 31.9398 384.01 31.7563V31.2897ZM389.789 26.3485C390.005 26.3485 390.204 26.3883 390.387 26.4681C390.571 26.5479 390.732 26.6575 390.872 26.7971C391.012 26.9367 391.121 27.1002 391.201 27.2877C391.281 27.4751 391.321 27.6765 391.321 27.8919C391.321 28.1072 391.281 28.3086 391.201 28.496C391.121 28.6835 391.012 28.847 390.872 28.9866C390.732 29.1262 390.571 29.2358 390.387 29.3156C390.204 29.3954 390.005 29.4352 389.789 29.4352C389.574 29.4352 389.372 29.3954 389.185 29.3156C388.998 29.2358 388.834 29.1262 388.695 28.9866C388.555 28.847 388.445 28.6835 388.365 28.496C388.286 28.3086 388.246 28.1072 388.246 27.8919C388.246 27.6765 388.286 27.4751 388.365 27.2877C388.445 27.1002 388.555 26.9367 388.695 26.7971C388.834 26.6575 388.998 26.5479 389.185 26.4681C389.372 26.3883 389.574 26.3485 389.789 26.3485ZM393.175 25.4631C393.175 25.2079 393.085 24.9905 392.906 24.8111C392.726 24.6316 392.509 24.5419 392.254 24.5419C392.039 24.5419 391.847 24.6136 391.68 24.7572C391.512 24.9008 391.408 25.0563 391.369 25.2238C391.345 25.2079 391.289 25.164 391.201 25.0922C391.113 25.0204 390.992 24.9427 390.836 24.8589C390.681 24.7752 390.491 24.7014 390.268 24.6376C390.044 24.5738 389.785 24.5419 389.49 24.5419C389.115 24.5419 388.742 24.6256 388.371 24.7931C388.001 24.9606 387.67 25.1919 387.378 25.487C387.087 25.7822 386.85 26.1351 386.667 26.5459C386.483 26.9566 386.391 27.4053 386.391 27.8919C386.391 28.3784 386.483 28.8251 386.667 29.2319C386.85 29.6386 387.087 29.9916 387.378 30.2907C387.67 30.5898 388.001 30.8231 388.371 30.9906C388.742 31.1581 389.115 31.2418 389.49 31.2418C389.785 31.2418 390.044 31.2099 390.268 31.1461C390.491 31.0823 390.681 31.0085 390.836 30.9248C390.992 30.841 391.113 30.7633 391.201 30.6915C391.289 30.6197 391.345 30.5758 391.369 30.5599C391.408 30.7274 391.512 30.8829 391.68 31.0265C391.847 31.1701 392.039 31.2418 392.254 31.2418C392.509 31.2418 392.726 31.1501 392.906 30.9667C393.085 30.7832 393.175 30.5639 393.175 30.3086V25.4631ZM389.047 22.5079C389.167 22.5079 389.271 22.5518 389.359 22.6395C389.446 22.7273 389.49 22.835 389.49 22.9626C389.49 23.2896 389.592 23.5428 389.795 23.7223C389.999 23.9018 390.24 23.9915 390.519 23.9915C390.663 23.9915 390.798 23.9636 390.926 23.9077C391.053 23.8519 391.165 23.7781 391.261 23.6864C391.357 23.5947 391.43 23.487 391.482 23.3634C391.534 23.2397 391.56 23.1061 391.56 22.9626C391.56 22.8748 391.532 22.803 391.476 22.7472C391.42 22.6914 391.349 22.6635 391.261 22.6635C391.181 22.6635 391.113 22.6914 391.057 22.7472C391.002 22.803 390.974 22.8748 390.974 22.9626C390.974 23.0822 390.93 23.1859 390.842 23.2736C390.754 23.3614 390.647 23.4052 390.519 23.4052C390.399 23.4052 390.296 23.3614 390.208 23.2736C390.12 23.1859 390.076 23.0822 390.076 22.9626C390.076 22.6276 389.975 22.3703 389.771 22.1909C389.568 22.0114 389.327 21.9217 389.047 21.9217C388.76 21.9217 388.517 22.0214 388.318 22.2208C388.118 22.4202 388.019 22.6675 388.019 22.9626C388.019 23.0423 388.044 23.1101 388.096 23.166C388.148 23.2218 388.218 23.2497 388.306 23.2497C388.393 23.2497 388.465 23.2218 388.521 23.166C388.577 23.1101 388.605 23.0423 388.605 22.9626C388.605 22.835 388.649 22.7273 388.736 22.6395C388.824 22.5518 388.928 22.5079 389.047 22.5079ZM396.956 31.3136C397.426 31.3136 397.869 31.2299 398.284 31.0624C398.699 30.8949 399.062 30.6596 399.373 30.3565C399.684 30.0534 399.929 29.6925 400.108 29.2737C400.288 28.855 400.378 28.3944 400.378 27.8919C400.378 27.3894 400.288 26.9287 400.108 26.51C399.929 26.0912 399.684 25.7303 399.373 25.4272C399.062 25.1241 398.699 24.8888 398.284 24.7213C397.869 24.5538 397.426 24.4701 396.956 24.4701C396.485 24.4701 396.043 24.5538 395.628 24.7213C395.213 24.8888 394.85 25.1241 394.539 25.4272C394.228 25.7303 393.983 26.0912 393.803 26.51C393.624 26.9287 393.534 27.3894 393.534 27.8919C393.534 28.3944 393.624 28.855 393.803 29.2737C393.983 29.6925 394.228 30.0534 394.539 30.3565C394.85 30.6596 395.213 30.8949 395.628 31.0624C396.043 31.2299 396.485 31.3136 396.956 31.3136ZM395.329 27.8919C395.329 27.6685 395.371 27.4572 395.454 27.2577C395.538 27.0583 395.654 26.8849 395.801 26.7373C395.949 26.5897 396.122 26.4741 396.322 26.3903C396.521 26.3066 396.732 26.2647 396.956 26.2647C397.179 26.2647 397.391 26.3066 397.59 26.3903C397.789 26.4741 397.963 26.5897 398.11 26.7373C398.258 26.8849 398.374 27.0583 398.457 27.2577C398.541 27.4572 398.583 27.6685 398.583 27.8919C398.583 28.1152 398.541 28.3266 398.457 28.526C398.374 28.7254 398.258 28.8988 398.11 29.0464C397.963 29.194 397.789 29.3096 397.59 29.3934C397.391 29.4771 397.179 29.519 396.956 29.519C396.732 29.519 396.521 29.4771 396.322 29.3934C396.122 29.3096 395.949 29.194 395.801 29.0464C395.654 28.8988 395.538 28.7254 395.454 28.526C395.371 28.3266 395.329 28.1152 395.329 27.8919ZM408.107 30.5599C408.146 30.7274 408.25 30.8829 408.418 31.0265C408.585 31.1701 408.777 31.2418 408.992 31.2418C409.247 31.2418 409.464 31.1501 409.644 30.9667C409.823 30.7832 409.913 30.5639 409.913 30.3086V23.1899C409.913 22.9347 409.823 22.7173 409.644 22.5378C409.464 22.3584 409.247 22.2686 408.992 22.2686C408.864 22.2686 408.743 22.2926 408.627 22.3404C408.511 22.3883 408.412 22.4541 408.328 22.5378C408.244 22.6216 408.178 22.7193 408.13 22.831C408.083 22.9426 408.059 23.0623 408.059 23.1899V24.9008C408.059 25.0683 408.035 25.152 407.987 25.152C407.947 25.152 407.887 25.1201 407.807 25.0563C407.728 24.9925 407.618 24.9227 407.478 24.8469C407.339 24.7712 407.167 24.7014 406.964 24.6376C406.761 24.5738 406.515 24.5419 406.228 24.5419C405.853 24.5419 405.48 24.6256 405.109 24.7931C404.739 24.9606 404.408 25.1919 404.116 25.487C403.825 25.7822 403.588 26.1351 403.405 26.5459C403.221 26.9566 403.129 27.4053 403.129 27.8919C403.129 28.3784 403.221 28.8251 403.405 29.2319C403.588 29.6386 403.825 29.9916 404.116 30.2907C404.408 30.5898 404.739 30.8231 405.109 30.9906C405.48 31.1581 405.853 31.2418 406.228 31.2418C406.523 31.2418 406.783 31.2099 407.006 31.1461C407.229 31.0823 407.419 31.0085 407.574 30.9248C407.73 30.841 407.851 30.7633 407.939 30.6915C408.027 30.6197 408.083 30.5758 408.107 30.5599ZM406.527 26.3485C406.743 26.3485 406.942 26.3883 407.125 26.4681C407.309 26.5479 407.47 26.6575 407.61 26.7971C407.75 26.9367 407.859 27.1002 407.939 27.2877C408.019 27.4751 408.059 27.6765 408.059 27.8919C408.059 28.1072 408.019 28.3086 407.939 28.496C407.859 28.6835 407.75 28.847 407.61 28.9866C407.47 29.1262 407.309 29.2358 407.125 29.3156C406.942 29.3954 406.743 29.4352 406.527 29.4352C406.312 29.4352 406.111 29.3954 405.923 29.3156C405.736 29.2358 405.572 29.1262 405.433 28.9866C405.293 28.847 405.183 28.6835 405.104 28.496C405.024 28.3086 404.984 28.1072 404.984 27.8919C404.984 27.6765 405.024 27.4751 405.104 27.2877C405.183 27.1002 405.293 26.9367 405.433 26.7971C405.572 26.6575 405.736 26.5479 405.923 26.4681C406.111 26.3883 406.312 26.3485 406.527 26.3485ZM413.742 26.3485C413.957 26.3485 414.156 26.3883 414.34 26.4681C414.523 26.5479 414.685 26.6575 414.825 26.7971C414.964 26.9367 415.074 27.1002 415.153 27.2877C415.233 27.4751 415.273 27.6765 415.273 27.8919C415.273 28.1072 415.233 28.3086 415.153 28.496C415.074 28.6835 414.964 28.847 414.825 28.9866C414.685 29.1262 414.523 29.2358 414.34 29.3156C414.156 29.3954 413.957 29.4352 413.742 29.4352C413.526 29.4352 413.325 29.3954 413.138 29.3156C412.95 29.2358 412.787 29.1262 412.647 28.9866C412.507 28.847 412.398 28.6835 412.318 28.496C412.238 28.3086 412.198 28.1072 412.198 27.8919C412.198 27.6765 412.238 27.4751 412.318 27.2877C412.398 27.1002 412.507 26.9367 412.647 26.7971C412.787 26.6575 412.95 26.5479 413.138 26.4681C413.325 26.3883 413.526 26.3485 413.742 26.3485ZM417.128 25.4631C417.128 25.2079 417.038 24.9905 416.858 24.8111C416.679 24.6316 416.462 24.5419 416.206 24.5419C415.991 24.5419 415.8 24.6136 415.632 24.7572C415.465 24.9008 415.361 25.0563 415.321 25.2238C415.297 25.2079 415.241 25.164 415.153 25.0922C415.066 25.0204 414.944 24.9427 414.789 24.8589C414.633 24.7752 414.444 24.7014 414.22 24.6376C413.997 24.5738 413.738 24.5419 413.443 24.5419C413.068 24.5419 412.695 24.6256 412.324 24.7931C411.953 24.9606 411.622 25.1919 411.331 25.487C411.04 25.7822 410.802 26.1351 410.619 26.5459C410.436 26.9566 410.344 27.4053 410.344 27.8919C410.344 28.3784 410.436 28.8251 410.619 29.2319C410.802 29.6386 411.04 29.9916 411.331 30.2907C411.622 30.5898 411.953 30.8231 412.324 30.9906C412.695 31.1581 413.068 31.2418 413.443 31.2418C413.738 31.2418 413.997 31.2099 414.22 31.1461C414.444 31.0823 414.633 31.0085 414.789 30.9248C414.944 30.841 415.066 30.7633 415.153 30.6915C415.241 30.6197 415.297 30.5758 415.321 30.5599C415.361 30.7274 415.465 30.8829 415.632 31.0265C415.8 31.1701 415.991 31.2418 416.206 31.2418C416.462 31.2418 416.679 31.1501 416.858 30.9667C417.038 30.7832 417.128 30.5639 417.128 30.3086V25.4631Z" fill="#909295"/>
<path d="M279.884 39.5954C280.06 39.5954 280.225 39.6293 280.381 39.6971C280.536 39.7649 280.67 39.8566 280.781 39.9723C280.893 40.0879 280.983 40.2235 281.051 40.3791C281.118 40.5346 281.152 40.7001 281.152 40.8756C281.152 41.0511 281.118 41.2146 281.051 41.3661C280.983 41.5177 280.893 41.6513 280.781 41.7669C280.67 41.8826 280.536 41.9743 280.381 42.0421C280.225 42.1099 280.06 42.1438 279.884 42.1438H278.736V39.5954H279.884ZM276.642 45.5776C276.642 45.8727 276.744 46.1219 276.947 46.3253C277.15 46.5287 277.396 46.6304 277.683 46.6304C277.978 46.6304 278.227 46.5287 278.43 46.3253C278.634 46.1219 278.736 45.8727 278.736 45.5776V44.082H280.04C280.478 44.082 280.893 43.9983 281.284 43.8308C281.675 43.6633 282.016 43.434 282.307 43.1428C282.598 42.8517 282.827 42.5127 282.995 42.1259C283.162 41.739 283.246 41.3223 283.246 40.8756C283.246 40.4289 283.162 40.0102 282.995 39.6193C282.827 39.2285 282.598 38.8875 282.307 38.5964C282.016 38.3053 281.675 38.076 281.284 37.9085C280.893 37.741 280.478 37.6572 280.04 37.6572H277.683C277.396 37.6572 277.15 37.7589 276.947 37.9623C276.744 38.1657 276.642 38.411 276.642 38.6981V45.5776ZM285.459 42.3831C285.459 42.2555 285.477 42.1538 285.513 42.078C285.549 42.0022 285.591 41.9464 285.639 41.9105C285.687 41.8746 285.739 41.8507 285.794 41.8387C285.85 41.8268 285.898 41.8208 285.938 41.8208C286.026 41.8208 286.104 41.8387 286.171 41.8746C286.239 41.9105 286.309 41.9524 286.381 42.0002C286.453 42.0481 286.534 42.09 286.626 42.1259C286.718 42.1618 286.831 42.1797 286.967 42.1797C287.095 42.1797 287.222 42.1518 287.35 42.0959C287.477 42.0401 287.591 41.9624 287.691 41.8626C287.791 41.7629 287.872 41.6413 287.936 41.4977C288 41.3542 288.032 41.1946 288.032 41.0192C288.032 40.8437 287.996 40.6862 287.924 40.5466C287.852 40.407 287.757 40.2933 287.637 40.2056C287.517 40.1179 287.382 40.0501 287.23 40.0022C287.079 39.9543 286.927 39.9304 286.776 39.9304C286.616 39.9304 286.466 39.9524 286.327 39.9962C286.187 40.0401 286.058 40.0919 285.938 40.1518C285.818 40.2116 285.711 40.2714 285.615 40.3312C285.519 40.391 285.444 40.4409 285.388 40.4808C285.324 40.3372 285.214 40.2096 285.059 40.0979C284.903 39.9863 284.726 39.9304 284.526 39.9304C284.271 39.9304 284.054 40.0201 283.874 40.1996C283.695 40.3791 283.605 40.5964 283.605 40.8517V45.6972C283.605 45.9524 283.695 46.1718 283.874 46.3552C284.054 46.5387 284.271 46.6304 284.526 46.6304C284.782 46.6304 285.001 46.5387 285.184 46.3552C285.368 46.1718 285.459 45.9524 285.459 45.6972V42.3831ZM288.223 38.5785C288.223 38.8576 288.319 39.0949 288.51 39.2903C288.702 39.4857 288.937 39.5835 289.216 39.5835C289.495 39.5835 289.733 39.4857 289.928 39.2903C290.124 39.0949 290.221 38.8576 290.221 38.5785C290.221 38.2993 290.124 38.064 289.928 37.8726C289.733 37.6811 289.495 37.5854 289.216 37.5854C288.937 37.5854 288.702 37.6811 288.51 37.8726C288.319 38.064 288.223 38.2993 288.223 38.5785ZM290.149 40.8517C290.149 40.724 290.126 40.6044 290.078 40.4927C290.03 40.3811 289.964 40.2834 289.88 40.1996C289.797 40.1159 289.697 40.0501 289.581 40.0022C289.466 39.9543 289.344 39.9304 289.216 39.9304C288.961 39.9304 288.744 40.0201 288.564 40.1996C288.385 40.3791 288.295 40.5964 288.295 40.8517V45.6972C288.295 45.8248 288.319 45.9465 288.367 46.0621C288.415 46.1778 288.48 46.2775 288.564 46.3612C288.648 46.445 288.746 46.5108 288.857 46.5586C288.969 46.6065 289.089 46.6304 289.216 46.6304C289.472 46.6304 289.691 46.5387 289.874 46.3552C290.058 46.1718 290.149 45.9524 290.149 45.6972V40.8517ZM295.402 40.5765C295.17 40.3691 294.899 40.1976 294.588 40.062C294.277 39.9264 293.922 39.8586 293.523 39.8586C293.141 39.8586 292.78 39.9324 292.441 40.08C292.102 40.2275 291.807 40.4269 291.555 40.6782C291.304 40.9294 291.105 41.2246 290.957 41.5635C290.81 41.9025 290.736 42.2635 290.736 42.6463V45.6972C290.736 45.9524 290.825 46.1718 291.005 46.3552C291.184 46.5387 291.402 46.6304 291.657 46.6304C291.912 46.6304 292.132 46.5387 292.315 46.3552C292.498 46.1718 292.59 45.9524 292.59 45.6972V42.6463C292.59 42.3911 292.682 42.1717 292.865 41.9883C293.049 41.8048 293.268 41.7131 293.523 41.7131C293.787 41.7131 294.01 41.8048 294.193 41.9883C294.377 42.1717 294.469 42.3911 294.469 42.6463V45.6972C294.469 45.9524 294.56 46.1718 294.744 46.3552C294.927 46.5387 295.147 46.6304 295.402 46.6304C295.529 46.6304 295.649 46.6065 295.761 46.5586C295.872 46.5108 295.97 46.445 296.054 46.3612C296.138 46.2775 296.203 46.1778 296.251 46.0621C296.299 45.9465 296.323 45.8248 296.323 45.6972V42.6463C296.323 42.3911 296.415 42.1717 296.598 41.9883C296.782 41.8048 297.005 41.7131 297.268 41.7131C297.523 41.7131 297.745 41.8048 297.932 41.9883C298.12 42.1717 298.213 42.3911 298.213 42.6463V45.6972C298.213 45.9524 298.303 46.1718 298.483 46.3552C298.662 46.5387 298.879 46.6304 299.135 46.6304C299.39 46.6304 299.609 46.5387 299.793 46.3552C299.976 46.1718 300.068 45.9524 300.068 45.6972V42.6463C300.068 42.2635 299.994 41.9025 299.847 41.5635C299.699 41.2246 299.5 40.9294 299.248 40.6782C298.997 40.4269 298.7 40.2275 298.357 40.08C298.014 39.9324 297.651 39.8586 297.268 39.8586C296.877 39.8586 296.524 39.9264 296.209 40.062C295.894 40.1976 295.625 40.3691 295.402 40.5765ZM303.071 44.3692L306.194 43.0651C306.377 42.9933 306.511 42.8836 306.594 42.736C306.678 42.5885 306.72 42.415 306.72 42.2156C306.72 41.8567 306.638 41.5336 306.475 41.2465C306.311 40.9593 306.096 40.7121 305.829 40.5047C305.561 40.2973 305.254 40.1378 304.907 40.0261C304.56 39.9145 304.208 39.8586 303.849 39.8586C303.378 39.8586 302.935 39.9424 302.521 40.1099C302.106 40.2774 301.743 40.5127 301.432 40.8158C301.121 41.1189 300.875 41.4798 300.696 41.8985C300.517 42.3173 300.427 42.7779 300.427 43.2804C300.427 43.7829 300.517 44.2435 300.696 44.6623C300.875 45.081 301.121 45.442 301.432 45.7451C301.743 46.0481 302.106 46.2834 302.521 46.4509C302.935 46.6184 303.378 46.7022 303.849 46.7022C304.327 46.7022 304.766 46.6204 305.165 46.4569C305.563 46.2934 305.89 46.092 306.146 45.8527C306.329 45.6693 306.421 45.4619 306.421 45.2306C306.421 45.103 306.395 44.9813 306.343 44.8657C306.291 44.75 306.221 44.6483 306.134 44.5606C306.046 44.4729 305.944 44.4011 305.829 44.3452C305.713 44.2894 305.595 44.2615 305.476 44.2615C305.316 44.2615 305.191 44.2954 305.099 44.3632C305.007 44.431 304.911 44.5048 304.812 44.5845C304.712 44.6643 304.59 44.7381 304.447 44.8059C304.303 44.8737 304.104 44.9076 303.849 44.9076C303.761 44.9076 303.661 44.8956 303.549 44.8717C303.438 44.8477 303.334 44.8178 303.238 44.7819C303.143 44.746 303.063 44.7062 302.999 44.6623C302.935 44.6184 302.903 44.5726 302.903 44.5247C302.903 44.4689 302.959 44.417 303.071 44.3692ZM302.329 42.8736C302.329 42.754 302.367 42.6224 302.443 42.4788C302.519 42.3352 302.624 42.2036 302.76 42.084C302.895 41.9643 303.055 41.8626 303.238 41.7789C303.422 41.6951 303.625 41.6533 303.849 41.6533C304.08 41.6533 304.279 41.6892 304.447 41.7609C304.614 41.8327 304.698 41.9125 304.698 42.0002C304.698 42.064 304.642 42.1199 304.531 42.1677L302.592 42.9813C302.544 42.9973 302.505 43.0052 302.473 43.0052C302.433 43.0052 302.399 42.9953 302.371 42.9753C302.343 42.9554 302.329 42.9215 302.329 42.8736ZM306.995 38.5785C306.995 38.8576 307.091 39.0949 307.282 39.2903C307.474 39.4857 307.709 39.5835 307.988 39.5835C308.267 39.5835 308.505 39.4857 308.7 39.2903C308.896 39.0949 308.993 38.8576 308.993 38.5785C308.993 38.2993 308.896 38.064 308.7 37.8726C308.505 37.6811 308.267 37.5854 307.988 37.5854C307.709 37.5854 307.474 37.6811 307.282 37.8726C307.091 38.064 306.995 38.2993 306.995 38.5785ZM308.921 40.8517C308.921 40.724 308.898 40.6044 308.85 40.4927C308.802 40.3811 308.736 40.2834 308.652 40.1996C308.568 40.1159 308.469 40.0501 308.353 40.0022C308.237 39.9543 308.116 39.9304 307.988 39.9304C307.733 39.9304 307.516 40.0201 307.336 40.1996C307.157 40.3791 307.067 40.5964 307.067 40.8517V45.6972C307.067 45.8248 307.091 45.9465 307.139 46.0621C307.187 46.1778 307.252 46.2775 307.336 46.3612C307.42 46.445 307.518 46.5108 307.629 46.5586C307.741 46.6065 307.861 46.6304 307.988 46.6304C308.243 46.6304 308.463 46.5387 308.646 46.3552C308.83 46.1718 308.921 45.9524 308.921 45.6972V40.8517ZM311.362 42.3831C311.362 42.2555 311.38 42.1538 311.416 42.078C311.452 42.0022 311.494 41.9464 311.542 41.9105C311.589 41.8746 311.641 41.8507 311.697 41.8387C311.753 41.8268 311.801 41.8208 311.841 41.8208C311.928 41.8208 312.006 41.8387 312.074 41.8746C312.142 41.9105 312.212 41.9524 312.283 42.0002C312.355 42.0481 312.437 42.09 312.529 42.1259C312.62 42.1618 312.734 42.1797 312.87 42.1797C312.997 42.1797 313.125 42.1518 313.253 42.0959C313.38 42.0401 313.494 41.9624 313.593 41.8626C313.693 41.7629 313.775 41.6413 313.839 41.4977C313.903 41.3542 313.934 41.1946 313.934 41.0192C313.934 40.8437 313.899 40.6862 313.827 40.5466C313.755 40.407 313.659 40.2933 313.54 40.2056C313.42 40.1179 313.284 40.0501 313.133 40.0022C312.981 39.9543 312.83 39.9304 312.678 39.9304C312.519 39.9304 312.369 39.9524 312.23 39.9962C312.09 40.0401 311.96 40.0919 311.841 40.1518C311.721 40.2116 311.613 40.2714 311.518 40.3312C311.422 40.391 311.346 40.4409 311.29 40.4808C311.227 40.3372 311.117 40.2096 310.961 40.0979C310.806 39.9863 310.628 39.9304 310.429 39.9304C310.174 39.9304 309.956 40.0201 309.777 40.1996C309.597 40.3791 309.508 40.5964 309.508 40.8517V45.6972C309.508 45.9524 309.597 46.1718 309.777 46.3552C309.956 46.5387 310.174 46.6304 310.429 46.6304C310.684 46.6304 310.904 46.5387 311.087 46.3552C311.27 46.1718 311.362 45.9524 311.362 45.6972V42.3831ZM317.069 41.737C317.284 41.737 317.484 41.7769 317.667 41.8567C317.851 41.9364 318.012 42.0461 318.152 42.1857C318.291 42.3253 318.401 42.4888 318.481 42.6762C318.561 42.8637 318.601 43.0651 318.601 43.2804C318.601 43.4958 318.561 43.6972 318.481 43.8846C318.401 44.072 318.291 44.2356 318.152 44.3751C318.012 44.5147 317.851 44.6244 317.667 44.7042C317.484 44.7839 317.284 44.8238 317.069 44.8238C316.854 44.8238 316.652 44.7839 316.465 44.7042C316.277 44.6244 316.114 44.5147 315.974 44.3751C315.835 44.2356 315.725 44.072 315.645 43.8846C315.566 43.6972 315.526 43.4958 315.526 43.2804C315.526 43.0651 315.566 42.8637 315.645 42.6762C315.725 42.4888 315.835 42.3253 315.974 42.1857C316.114 42.0461 316.277 41.9364 316.465 41.8567C316.652 41.7769 316.854 41.737 317.069 41.737ZM320.455 40.8517C320.455 40.5964 320.365 40.3791 320.186 40.1996C320.006 40.0201 319.789 39.9304 319.534 39.9304C319.318 39.9304 319.127 40.0022 318.959 40.1458C318.792 40.2893 318.688 40.4449 318.648 40.6124C318.624 40.5964 318.569 40.5526 318.481 40.4808C318.393 40.409 318.272 40.3312 318.116 40.2475C317.96 40.1637 317.771 40.0899 317.548 40.0261C317.324 39.9623 317.065 39.9304 316.77 39.9304C316.395 39.9304 316.022 40.0142 315.651 40.1817C315.28 40.3492 314.949 40.5805 314.658 40.8756C314.367 41.1707 314.13 41.5237 313.946 41.9344C313.763 42.3452 313.671 42.7939 313.671 43.2804C313.671 43.767 313.763 44.2136 313.946 44.6204C314.13 45.0272 314.367 45.3801 314.658 45.6793C314.949 45.9784 315.28 46.2117 315.651 46.3792C316.022 46.5467 316.395 46.6304 316.77 46.6304C317.065 46.6304 317.324 46.5985 317.548 46.5347C317.771 46.4709 317.96 46.3971 318.116 46.3134C318.272 46.2296 318.393 46.1518 318.481 46.0801C318.569 46.0083 318.624 45.9644 318.648 45.9484C318.688 46.1159 318.792 46.2715 318.959 46.4151C319.127 46.5586 319.318 46.6304 319.534 46.6304C319.789 46.6304 320.006 46.5387 320.186 46.3552C320.365 46.1718 320.455 45.9524 320.455 45.6972V40.8517ZM323.757 38.6981V45.5776C323.757 45.8727 323.859 46.1219 324.062 46.3253C324.266 46.5287 324.511 46.6304 324.798 46.6304C325.093 46.6304 325.342 46.5287 325.546 46.3253C325.749 46.1219 325.851 45.8727 325.851 45.5776V38.6981C325.851 38.411 325.749 38.1657 325.546 37.9623C325.342 37.7589 325.093 37.6572 324.798 37.6572C324.511 37.6572 324.266 37.7589 324.062 37.9623C323.859 38.1657 323.757 38.411 323.757 38.6981ZM329.392 39.8586C328.994 39.8586 328.619 39.9344 328.268 40.086C327.917 40.2375 327.612 40.4429 327.352 40.7021C327.093 40.9613 326.888 41.2664 326.736 41.6174C326.585 41.9683 326.509 42.3432 326.509 42.742V45.6972C326.509 45.9524 326.599 46.1718 326.778 46.3552C326.958 46.5387 327.175 46.6304 327.43 46.6304C327.685 46.6304 327.905 46.5387 328.088 46.3552C328.272 46.1718 328.363 45.9524 328.363 45.6972V42.6463C328.363 42.3751 328.465 42.1518 328.668 41.9763C328.872 41.8008 329.113 41.7131 329.392 41.7131C329.664 41.7131 329.903 41.8008 330.11 41.9763C330.318 42.1518 330.421 42.3751 330.421 42.6463V45.6972C330.421 45.9524 330.513 46.1718 330.696 46.3552C330.88 46.5387 331.099 46.6304 331.354 46.6304C331.482 46.6304 331.602 46.6065 331.713 46.5586C331.825 46.5108 331.923 46.445 332.007 46.3612C332.09 46.2775 332.156 46.1778 332.204 46.0621C332.252 45.9465 332.276 45.8248 332.276 45.6972V42.742C332.276 42.3432 332.2 41.9683 332.048 41.6174C331.897 41.2664 331.691 40.9613 331.432 40.7021C331.173 40.4429 330.868 40.2375 330.517 40.086C330.166 39.9344 329.791 39.8586 329.392 39.8586ZM335.327 41.7251H335.877C336.108 41.7251 336.304 41.6453 336.463 41.4858C336.623 41.3263 336.702 41.1308 336.702 40.8995C336.702 40.6682 336.623 40.4728 336.463 40.3133C336.304 40.1538 336.108 40.074 335.877 40.074H335.327V39.7749C335.327 39.6632 335.341 39.5695 335.368 39.4937C335.396 39.4179 335.462 39.3801 335.566 39.3801C335.646 39.3801 335.723 39.396 335.799 39.4279C335.875 39.4598 335.949 39.4937 336.021 39.5296C336.092 39.5655 336.158 39.5974 336.218 39.6253C336.278 39.6532 336.34 39.6672 336.403 39.6672C336.587 39.6672 336.746 39.5835 336.882 39.416C337.018 39.2485 337.085 39.061 337.085 38.8536C337.085 38.6463 337.034 38.4648 336.93 38.3093C336.826 38.1537 336.693 38.0221 336.529 37.9144C336.366 37.8068 336.184 37.725 335.985 37.6692C335.785 37.6133 335.586 37.5854 335.386 37.5854C335.059 37.5854 334.776 37.6413 334.537 37.7529C334.298 37.8646 334.098 38.0181 333.939 38.2135C333.779 38.409 333.662 38.6403 333.586 38.9075C333.51 39.1747 333.472 39.4638 333.472 39.7749V40.074H333.46C333.229 40.074 333.033 40.1538 332.874 40.3133C332.714 40.4728 332.635 40.6682 332.635 40.8995C332.635 41.1308 332.714 41.3263 332.874 41.4858C333.033 41.6453 333.229 41.7251 333.46 41.7251H333.472V45.7092C333.472 45.9644 333.562 46.1818 333.741 46.3612C333.921 46.5407 334.138 46.6304 334.393 46.6304C334.521 46.6304 334.643 46.6065 334.758 46.5586C334.874 46.5108 334.974 46.445 335.057 46.3612C335.141 46.2775 335.207 46.1798 335.255 46.0681C335.303 45.9564 335.327 45.8368 335.327 45.7092V41.7251ZM340.316 41.737C340.531 41.737 340.73 41.7769 340.914 41.8567C341.097 41.9364 341.259 42.0461 341.398 42.1857C341.538 42.3253 341.648 42.4888 341.727 42.6762C341.807 42.8637 341.847 43.0651 341.847 43.2804C341.847 43.4958 341.807 43.6972 341.727 43.8846C341.648 44.072 341.538 44.2356 341.398 44.3751C341.259 44.5147 341.097 44.6244 340.914 44.7042C340.73 44.7839 340.531 44.8238 340.316 44.8238C340.1 44.8238 339.899 44.7839 339.712 44.7042C339.524 44.6244 339.361 44.5147 339.221 44.3751C339.081 44.2356 338.972 44.072 338.892 43.8846C338.812 43.6972 338.772 43.4958 338.772 43.2804C338.772 43.0651 338.812 42.8637 338.892 42.6762C338.972 42.4888 339.081 42.3253 339.221 42.1857C339.361 42.0461 339.524 41.9364 339.712 41.8567C339.899 41.7769 340.1 41.737 340.316 41.737ZM343.702 40.8517C343.702 40.5964 343.612 40.3791 343.432 40.1996C343.253 40.0201 343.036 39.9304 342.78 39.9304C342.565 39.9304 342.374 40.0022 342.206 40.1458C342.039 40.2893 341.935 40.4449 341.895 40.6124C341.871 40.5964 341.815 40.5526 341.727 40.4808C341.64 40.409 341.518 40.3312 341.363 40.2475C341.207 40.1637 341.018 40.0899 340.794 40.0261C340.571 39.9623 340.312 39.9304 340.017 39.9304C339.642 39.9304 339.269 40.0142 338.898 40.1817C338.527 40.3492 338.196 40.5805 337.905 40.8756C337.614 41.1707 337.376 41.5237 337.193 41.9344C337.01 42.3452 336.918 42.7939 336.918 43.2804C336.918 43.767 337.01 44.2136 337.193 44.6204C337.376 45.0272 337.614 45.3801 337.905 45.6793C338.196 45.9784 338.527 46.2117 338.898 46.3792C339.269 46.5467 339.642 46.6304 340.017 46.6304C340.312 46.6304 340.571 46.5985 340.794 46.5347C341.018 46.4709 341.207 46.3971 341.363 46.3134C341.518 46.2296 341.64 46.1518 341.727 46.0801C341.815 46.0083 341.871 45.9644 341.895 45.9484C341.935 46.1159 342.039 46.2715 342.206 46.4151C342.374 46.5586 342.565 46.6304 342.78 46.6304C343.036 46.6304 343.253 46.5387 343.432 46.3552C343.612 46.1718 343.702 45.9524 343.702 45.6972V40.8517ZM340.471 37.4777C340.368 37.374 340.256 37.3222 340.136 37.3222C340.017 37.3222 339.905 37.374 339.801 37.4777L338.82 38.4588C338.74 38.5386 338.701 38.6463 338.701 38.7818C338.701 38.9015 338.744 39.0052 338.832 39.0929C338.92 39.1807 339.024 39.2245 339.143 39.2245C339.247 39.2245 339.351 39.1807 339.454 39.0929L340.136 38.4229L340.806 39.0929C340.894 39.1807 340.998 39.2245 341.117 39.2245C341.237 39.2245 341.343 39.1807 341.434 39.0929C341.526 39.0052 341.572 38.9015 341.572 38.7818C341.572 38.6542 341.528 38.5465 341.44 38.4588L340.471 37.4777ZM347.171 39.8586C346.772 39.8586 346.398 39.9344 346.047 40.086C345.696 40.2375 345.391 40.4429 345.131 40.7021C344.872 40.9613 344.667 41.2664 344.515 41.6174C344.364 41.9683 344.288 42.3432 344.288 42.742V45.6972C344.288 45.9524 344.378 46.1718 344.557 46.3552C344.737 46.5387 344.954 46.6304 345.209 46.6304C345.464 46.6304 345.684 46.5387 345.867 46.3552C346.051 46.1718 346.142 45.9524 346.142 45.6972V42.6463C346.142 42.3751 346.244 42.1518 346.447 41.9763C346.651 41.8008 346.892 41.7131 347.171 41.7131C347.442 41.7131 347.682 41.8008 347.889 41.9763C348.096 42.1518 348.2 42.3751 348.2 42.6463V45.6972C348.2 45.9524 348.292 46.1718 348.475 46.3552C348.659 46.5387 348.878 46.6304 349.133 46.6304C349.261 46.6304 349.381 46.6065 349.492 46.5586C349.604 46.5108 349.702 46.445 349.785 46.3612C349.869 46.2775 349.935 46.1778 349.983 46.0621C350.031 45.9465 350.055 45.8248 350.055 45.6972V42.742C350.055 42.3432 349.979 41.9683 349.827 41.6174C349.676 41.2664 349.47 40.9613 349.211 40.7021C348.952 40.4429 348.647 40.2375 348.296 40.086C347.945 39.9344 347.57 39.8586 347.171 39.8586ZM356.121 45.8527C356.264 45.7171 356.368 45.5835 356.432 45.4519C356.495 45.3203 356.527 45.1907 356.527 45.0631C356.527 44.8238 356.434 44.6204 356.246 44.4529C356.059 44.2854 355.841 44.2017 355.594 44.2017C355.411 44.2017 355.263 44.2376 355.151 44.3093C355.04 44.3811 354.928 44.4629 354.816 44.5546C354.705 44.6463 354.575 44.7281 354.428 44.7999C354.28 44.8717 354.079 44.9076 353.823 44.9076C353.6 44.9076 353.389 44.8657 353.189 44.7819C352.99 44.6982 352.816 44.5825 352.669 44.435C352.521 44.2874 352.406 44.1139 352.322 43.9145C352.238 43.7151 352.196 43.5037 352.196 43.2804C352.196 43.0571 352.238 42.8457 352.322 42.6463C352.406 42.4469 352.521 42.2734 352.669 42.1259C352.816 41.9783 352.99 41.8626 353.189 41.7789C353.389 41.6951 353.6 41.6533 353.823 41.6533C354.063 41.6533 354.258 41.6892 354.41 41.7609C354.561 41.8327 354.697 41.9125 354.816 42.0002C354.936 42.088 355.054 42.1677 355.169 42.2395C355.285 42.3113 355.427 42.3472 355.594 42.3472C355.841 42.3472 356.059 42.2654 356.246 42.1019C356.434 41.9384 356.527 41.737 356.527 41.4977C356.527 41.3701 356.495 41.2405 356.432 41.1089C356.368 40.9773 356.264 40.8437 356.121 40.7081C355.865 40.4768 355.542 40.2774 355.151 40.1099C354.761 39.9424 354.318 39.8586 353.823 39.8586C353.353 39.8586 352.91 39.9424 352.495 40.1099C352.081 40.2774 351.718 40.5127 351.407 40.8158C351.096 41.1189 350.85 41.4798 350.671 41.8985C350.491 42.3173 350.402 42.7779 350.402 43.2804C350.402 43.7829 350.491 44.2435 350.671 44.6623C350.85 45.081 351.096 45.442 351.407 45.7451C351.718 46.0481 352.081 46.2834 352.495 46.4509C352.91 46.6184 353.353 46.7022 353.823 46.7022C354.318 46.7022 354.761 46.6184 355.151 46.4509C355.542 46.2834 355.865 46.084 356.121 45.8527ZM356.814 38.5785C356.814 38.8576 356.91 39.0949 357.102 39.2903C357.293 39.4857 357.528 39.5835 357.807 39.5835C358.087 39.5835 358.324 39.4857 358.519 39.2903C358.715 39.0949 358.812 38.8576 358.812 38.5785C358.812 38.2993 358.715 38.064 358.519 37.8726C358.324 37.6811 358.087 37.5854 357.807 37.5854C357.528 37.5854 357.293 37.6811 357.102 37.8726C356.91 38.064 356.814 38.2993 356.814 38.5785ZM358.741 40.8517C358.741 40.724 358.717 40.6044 358.669 40.4927C358.621 40.3811 358.555 40.2834 358.472 40.1996C358.388 40.1159 358.288 40.0501 358.172 40.0022C358.057 39.9543 357.935 39.9304 357.807 39.9304C357.552 39.9304 357.335 40.0201 357.155 40.1996C356.976 40.3791 356.886 40.5964 356.886 40.8517V45.6972C356.886 45.8248 356.91 45.9465 356.958 46.0621C357.006 46.1778 357.072 46.2775 357.155 46.3612C357.239 46.445 357.337 46.5108 357.449 46.5586C357.56 46.6065 357.68 46.6304 357.807 46.6304C358.063 46.6304 358.282 46.5387 358.466 46.3552C358.649 46.1718 358.741 45.9524 358.741 45.6972V40.8517ZM362.497 41.737C362.713 41.737 362.912 41.7769 363.096 41.8567C363.279 41.9364 363.441 42.0461 363.58 42.1857C363.72 42.3253 363.83 42.4888 363.909 42.6762C363.989 42.8637 364.029 43.0651 364.029 43.2804C364.029 43.4958 363.989 43.6972 363.909 43.8846C363.83 44.072 363.72 44.2356 363.58 44.3751C363.441 44.5147 363.279 44.6244 363.096 44.7042C362.912 44.7839 362.713 44.8238 362.497 44.8238C362.282 44.8238 362.081 44.7839 361.893 44.7042C361.706 44.6244 361.542 44.5147 361.403 44.3751C361.263 44.2356 361.154 44.072 361.074 43.8846C360.994 43.6972 360.954 43.4958 360.954 43.2804C360.954 43.0651 360.994 42.8637 361.074 42.6762C361.154 42.4888 361.263 42.3253 361.403 42.1857C361.542 42.0461 361.706 41.9364 361.893 41.8567C362.081 41.7769 362.282 41.737 362.497 41.737ZM365.883 40.8517C365.883 40.5964 365.794 40.3791 365.614 40.1996C365.435 40.0201 365.217 39.9304 364.962 39.9304C364.747 39.9304 364.555 40.0022 364.388 40.1458C364.22 40.2893 364.117 40.4449 364.077 40.6124C364.053 40.5964 363.997 40.5526 363.909 40.4808C363.822 40.409 363.7 40.3312 363.544 40.2475C363.389 40.1637 363.199 40.0899 362.976 40.0261C362.753 39.9623 362.493 39.9304 362.198 39.9304C361.823 39.9304 361.451 40.0142 361.08 40.1817C360.709 40.3492 360.378 40.5805 360.087 40.8756C359.796 41.1707 359.558 41.5237 359.375 41.9344C359.191 42.3452 359.1 42.7939 359.1 43.2804C359.1 43.767 359.191 44.2136 359.375 44.6204C359.558 45.0272 359.796 45.3801 360.087 45.6793C360.378 45.9784 360.709 46.2117 361.08 46.3792C361.451 46.5467 361.823 46.6304 362.198 46.6304C362.493 46.6304 362.753 46.5985 362.976 46.5347C363.199 46.4709 363.389 46.3971 363.544 46.3134C363.7 46.2296 363.822 46.1518 363.909 46.0801C363.997 46.0083 364.053 45.9644 364.077 45.9484C364.117 46.1159 364.22 46.2715 364.388 46.4151C364.555 46.5586 364.747 46.6304 364.962 46.6304C365.217 46.6304 365.435 46.5387 365.614 46.3552C365.794 46.1718 365.883 45.9524 365.883 45.6972V40.8517ZM377.441 38.4468C377.377 38.2155 377.259 38.0261 377.088 37.8785C376.916 37.731 376.699 37.6572 376.436 37.6572C376.228 37.6572 376.033 37.721 375.85 37.8486C375.666 37.9762 375.535 38.1438 375.455 38.3511L374.043 42.2276L372.631 38.3511C372.551 38.1438 372.42 37.9762 372.236 37.8486C372.053 37.721 371.858 37.6572 371.65 37.6572C371.387 37.6572 371.17 37.731 370.998 37.8785C370.827 38.0261 370.709 38.2155 370.645 38.4468L368.922 45.3383C368.898 45.426 368.886 45.5098 368.886 45.5895C368.886 45.7331 368.914 45.8667 368.97 45.9903C369.026 46.114 369.1 46.2236 369.191 46.3193C369.283 46.4151 369.393 46.4908 369.521 46.5467C369.648 46.6025 369.784 46.6304 369.927 46.6304C370.159 46.6304 370.37 46.5566 370.561 46.4091C370.753 46.2615 370.88 46.0721 370.944 45.8408L371.842 42.2874L373.17 45.9484C373.241 46.1558 373.351 46.3213 373.499 46.445C373.646 46.5686 373.828 46.6304 374.043 46.6304C374.258 46.6304 374.44 46.5686 374.587 46.445C374.735 46.3213 374.845 46.1558 374.916 45.9484L376.244 42.2874L377.13 45.8408C377.194 46.0721 377.323 46.2615 377.519 46.4091C377.714 46.5566 377.927 46.6304 378.159 46.6304C378.342 46.6304 378.498 46.5965 378.625 46.5287C378.753 46.4609 378.859 46.3732 378.942 46.2655C379.026 46.1578 379.088 46.0442 379.128 45.9245C379.168 45.8049 379.188 45.6892 379.188 45.5776C379.188 45.5377 379.188 45.4978 379.188 45.4579C379.188 45.418 379.18 45.3781 379.164 45.3383L377.441 38.4468ZM381.724 44.3692L384.847 43.0651C385.03 42.9933 385.164 42.8836 385.248 42.736C385.331 42.5885 385.373 42.415 385.373 42.2156C385.373 41.8567 385.291 41.5336 385.128 41.2465C384.964 40.9593 384.749 40.7121 384.482 40.5047C384.215 40.2973 383.908 40.1378 383.561 40.0261C383.214 39.9145 382.861 39.8586 382.502 39.8586C382.031 39.8586 381.588 39.9424 381.174 40.1099C380.759 40.2774 380.396 40.5127 380.085 40.8158C379.774 41.1189 379.529 41.4798 379.349 41.8985C379.17 42.3173 379.08 42.7779 379.08 43.2804C379.08 43.7829 379.17 44.2435 379.349 44.6623C379.529 45.081 379.774 45.442 380.085 45.7451C380.396 46.0481 380.759 46.2834 381.174 46.4509C381.588 46.6184 382.031 46.7022 382.502 46.7022C382.98 46.7022 383.419 46.6204 383.818 46.4569C384.217 46.2934 384.544 46.092 384.799 45.8527C384.982 45.6693 385.074 45.4619 385.074 45.2306C385.074 45.103 385.048 44.9813 384.996 44.8657C384.944 44.75 384.875 44.6483 384.787 44.5606C384.699 44.4729 384.598 44.4011 384.482 44.3452C384.366 44.2894 384.249 44.2615 384.129 44.2615C383.969 44.2615 383.844 44.2954 383.752 44.3632C383.66 44.431 383.565 44.5048 383.465 44.5845C383.365 44.6643 383.244 44.7381 383.1 44.8059C382.956 44.8737 382.757 44.9076 382.502 44.9076C382.414 44.9076 382.314 44.8956 382.203 44.8717C382.091 44.8477 381.987 44.8178 381.892 44.7819C381.796 44.746 381.716 44.7062 381.652 44.6623C381.588 44.6184 381.557 44.5726 381.557 44.5247C381.557 44.4689 381.612 44.417 381.724 44.3692ZM380.982 42.8736C380.982 42.754 381.02 42.6224 381.096 42.4788C381.172 42.3352 381.277 42.2036 381.413 42.084C381.549 41.9643 381.708 41.8626 381.892 41.7789C382.075 41.6951 382.278 41.6533 382.502 41.6533C382.733 41.6533 382.932 41.6892 383.1 41.7609C383.267 41.8327 383.351 41.9125 383.351 42.0002C383.351 42.064 383.295 42.1199 383.184 42.1677L381.246 42.9813C381.198 42.9973 381.158 43.0052 381.126 43.0052C381.086 43.0052 381.052 42.9953 381.024 42.9753C380.996 42.9554 380.982 42.9215 380.982 42.8736ZM387.658 38.5785C387.658 38.4508 387.634 38.3312 387.587 38.2195C387.539 38.1079 387.473 38.0102 387.389 37.9264C387.305 37.8427 387.206 37.7768 387.09 37.729C386.974 37.6811 386.853 37.6572 386.725 37.6572C386.47 37.6572 386.253 37.7469 386.073 37.9264C385.894 38.1059 385.804 38.3232 385.804 38.5785V45.6972C385.804 45.8248 385.828 45.9465 385.876 46.0621C385.924 46.1778 385.989 46.2775 386.073 46.3612C386.157 46.445 386.255 46.5108 386.366 46.5586C386.478 46.6065 386.598 46.6304 386.725 46.6304C386.98 46.6304 387.2 46.5387 387.383 46.3552C387.567 46.1718 387.658 45.9524 387.658 45.6972V38.5785ZM390.267 40.2295V38.5785C390.267 38.4508 390.243 38.3312 390.195 38.2195C390.147 38.1079 390.081 38.0102 389.997 37.9264C389.914 37.8427 389.814 37.7768 389.698 37.729C389.583 37.6811 389.461 37.6572 389.333 37.6572C389.078 37.6572 388.861 37.7469 388.681 37.9264C388.502 38.1059 388.412 38.3232 388.412 38.5785V45.6972C388.412 45.8248 388.436 45.9465 388.484 46.0621C388.532 46.1778 388.598 46.2775 388.681 46.3612C388.765 46.445 388.863 46.5108 388.974 46.5586C389.086 46.6065 389.206 46.6304 389.333 46.6304C389.589 46.6304 389.808 46.5387 389.991 46.3552C390.175 46.1718 390.267 45.9524 390.267 45.6972V42.8258C390.267 42.5386 390.368 42.2934 390.572 42.09C390.775 41.8866 391.02 41.7849 391.307 41.7849C391.603 41.7849 391.852 41.8866 392.055 42.09C392.259 42.2934 392.36 42.5386 392.36 42.8258V45.6972C392.36 45.8248 392.384 45.9465 392.432 46.0621C392.48 46.1778 392.546 46.2775 392.63 46.3612C392.713 46.445 392.811 46.5108 392.923 46.5586C393.034 46.6065 393.154 46.6304 393.282 46.6304C393.537 46.6304 393.756 46.5387 393.94 46.3552C394.123 46.1718 394.215 45.9524 394.215 45.6972V42.8258C394.215 42.427 394.137 42.0521 393.981 41.7011C393.826 41.3502 393.617 41.0431 393.353 40.7799C393.09 40.5167 392.783 40.3093 392.432 40.1577C392.081 40.0062 391.706 39.9304 391.307 39.9304C391.1 39.9304 390.923 39.9524 390.775 39.9962C390.627 40.0401 390.458 40.1179 390.267 40.2295ZM397.995 46.7022C398.466 46.7022 398.909 46.6184 399.324 46.4509C399.738 46.2834 400.101 46.0481 400.412 45.7451C400.723 45.442 400.969 45.081 401.148 44.6623C401.328 44.2435 401.417 43.7829 401.417 43.2804C401.417 42.7779 401.328 42.3173 401.148 41.8985C400.969 41.4798 400.723 41.1189 400.412 40.8158C400.101 40.5127 399.738 40.2774 399.324 40.1099C398.909 39.9424 398.466 39.8586 397.995 39.8586C397.525 39.8586 397.082 39.9424 396.667 40.1099C396.253 40.2774 395.89 40.5127 395.579 40.8158C395.268 41.1189 395.022 41.4798 394.843 41.8985C394.663 42.3173 394.574 42.7779 394.574 43.2804C394.574 43.7829 394.663 44.2435 394.843 44.6623C395.022 45.081 395.268 45.442 395.579 45.7451C395.89 46.0481 396.253 46.2834 396.667 46.4509C397.082 46.6184 397.525 46.7022 397.995 46.7022ZM396.368 43.2804C396.368 43.0571 396.41 42.8457 396.494 42.6463C396.578 42.4469 396.693 42.2734 396.841 42.1259C396.989 41.9783 397.162 41.8626 397.361 41.7789C397.561 41.6951 397.772 41.6533 397.995 41.6533C398.219 41.6533 398.43 41.6951 398.63 41.7789C398.829 41.8626 399.002 41.9783 399.15 42.1259C399.298 42.2734 399.413 42.4469 399.497 42.6463C399.581 42.8457 399.623 43.0571 399.623 43.2804C399.623 43.5037 399.581 43.7151 399.497 43.9145C399.413 44.1139 399.298 44.2874 399.15 44.435C399.002 44.5825 398.829 44.6982 398.63 44.7819C398.43 44.8657 398.219 44.9076 397.995 44.9076C397.772 44.9076 397.561 44.8657 397.361 44.7819C397.162 44.6982 396.989 44.5825 396.841 44.435C396.693 44.2874 396.578 44.1139 396.494 43.9145C396.41 43.7151 396.368 43.5037 396.368 43.2804ZM403.619 42.3831C403.619 42.2555 403.637 42.1538 403.673 42.078C403.708 42.0022 403.75 41.9464 403.798 41.9105C403.846 41.8746 403.898 41.8507 403.954 41.8387C404.01 41.8268 404.057 41.8208 404.097 41.8208C404.185 41.8208 404.263 41.8387 404.331 41.8746C404.398 41.9105 404.468 41.9524 404.54 42.0002C404.612 42.0481 404.693 42.09 404.785 42.1259C404.877 42.1618 404.991 42.1797 405.126 42.1797C405.254 42.1797 405.381 42.1518 405.509 42.0959C405.637 42.0401 405.75 41.9624 405.85 41.8626C405.95 41.7629 406.032 41.6413 406.095 41.4977C406.159 41.3542 406.191 41.1946 406.191 41.0192C406.191 40.8437 406.155 40.6862 406.083 40.5466C406.012 40.407 405.916 40.2933 405.796 40.2056C405.677 40.1179 405.541 40.0501 405.389 40.0022C405.238 39.9543 405.086 39.9304 404.935 39.9304C404.775 39.9304 404.626 39.9524 404.486 39.9962C404.347 40.0401 404.217 40.0919 404.097 40.1518C403.978 40.2116 403.87 40.2714 403.774 40.3312C403.679 40.391 403.603 40.4409 403.547 40.4808C403.483 40.3372 403.373 40.2096 403.218 40.0979C403.062 39.9863 402.885 39.9304 402.686 39.9304C402.43 39.9304 402.213 40.0201 402.033 40.1996C401.854 40.3791 401.764 40.5964 401.764 40.8517V45.6972C401.764 45.9524 401.854 46.1718 402.033 46.3552C402.213 46.5387 402.43 46.6304 402.686 46.6304C402.941 46.6304 403.16 46.5387 403.344 46.3552C403.527 46.1718 403.619 45.9524 403.619 45.6972V42.3831Z" fill="#909295"/>
<path d="M149.7 70.4206V76.1931H102.476C100.895 76.1931 99.5891 74.8879 99.5891 73.3071C99.5891 72.509 99.9086 71.7988 100.445 71.276C100.967 70.74 101.678 70.4206 102.476 70.4206H149.7Z" fill="#00AFF0"/>
<path d="M249.935 73.3094C249.935 74.1069 249.616 74.818 249.08 75.3396C248.557 75.8764 247.847 76.1954 247.049 76.1954H199.825V70.4229H247.049C248.63 70.4229 249.935 71.7281 249.935 73.3094Z" fill="#C8C82D"/>
<rect x="149.7" y="70.4206" width="50.1249" height="5.77251" fill="#EB008C"/>
</svg>
