<svg width="135" height="64" viewBox="0 0 135 64" fill="none" xmlns="http://www.w3.org/2000/svg">
<g id="Grupo 1174">
<g id="Grupo 1173">
<path id="Caminho 9839" d="M133.209 0.846313H106.08H99.9962H58.7683C58.1642 0.846313 57.675 1.34082 57.675 1.95059C57.675 2.55998 58.1642 3.0541 58.7683 3.0541H99.9962H106.08H133.209C133.815 3.0541 134.307 2.55998 134.307 1.95059C134.307 1.34082 133.815 0.846313 133.209 0.846313Z" fill="#C8C82D"/>
<path id="Caminho 9840" d="M133.1 63.1536H58.6508C58.0482 63.1536 57.5598 62.6591 57.5598 62.0494C57.5598 61.4407 58.0482 60.9462 58.6508 60.9462H133.1C133.703 60.9462 134.191 61.4407 134.191 62.0494C134.191 62.6591 133.703 63.1536 133.1 63.1536Z" fill="#C8C82D"/>
<path id="Caminho 9841" d="M58.1438 8.58043C58.1438 8.11026 58.3119 7.70933 58.6417 7.37573C58.9753 7.04402 59.377 6.87894 59.8449 6.87894H63.696C64.4122 6.87894 65.0909 7.01512 65.728 7.28862C66.3667 7.56212 66.9236 7.93909 67.4006 8.41495C67.8746 8.89044 68.2489 9.44658 68.5239 10.0845C68.7966 10.7258 68.9344 11.4083 68.9344 12.1378C68.9344 12.8682 68.7966 13.5491 68.5239 14.1828C68.2489 14.8139 67.8746 15.3685 67.4006 15.844C66.9236 16.3195 66.3667 16.6946 65.728 16.9696C65.0909 17.2423 64.4122 17.38 63.696 17.38H61.5669V19.8233C61.5669 20.3064 61.3988 20.7126 61.0656 21.0458C60.735 21.3795 60.3284 21.5445 59.8449 21.5445C59.377 21.5445 58.9753 21.3795 58.6417 21.0458C58.3119 20.7126 58.1438 20.3064 58.1438 19.8233V8.58043ZM61.5669 10.0472V14.2102H63.4423C63.7291 14.2102 63.9988 14.1554 64.2533 14.0451C64.5073 13.9344 64.7242 13.7853 64.9079 13.5955C65.0909 13.4053 65.2384 13.1873 65.3488 12.9397C65.4579 12.6928 65.5139 12.4258 65.5139 12.1378C65.5139 11.8526 65.4579 11.5806 65.3488 11.3276C65.2384 11.0735 65.0909 10.8525 64.9079 10.6623C64.7242 10.474 64.5073 10.3226 64.2533 10.2127C63.9988 10.1016 63.7291 10.0472 63.4423 10.0472H61.5669Z" fill="#00AFF0"/>
<path id="Caminho 9842" d="M73.1175 20.0199C73.1175 20.4365 72.9684 20.7944 72.6682 21.0923C72.367 21.3935 72.0102 21.5445 71.5936 21.5445C71.1752 21.5445 70.8211 21.3935 70.5274 21.0923C70.2364 20.7944 70.0869 20.4365 70.0869 20.0199V12.1006C70.0869 11.6821 70.2364 11.3276 70.5274 11.0332C70.8211 10.7414 71.1752 10.5946 71.5936 10.5946C71.9185 10.5946 72.2087 10.6855 72.4632 10.8681C72.7173 11.0499 72.895 11.2584 73 11.4927C73.0924 11.4288 73.2168 11.3474 73.3724 11.2485C73.5279 11.1523 73.7025 11.0534 73.9007 10.9556C74.0943 10.8578 74.3073 10.7726 74.5352 10.7007C74.7627 10.6285 75.0069 10.5946 75.2679 10.5946C75.5147 10.5946 75.7631 10.6323 76.01 10.7102C76.2576 10.7897 76.4809 10.8989 76.6745 11.0431C76.8712 11.1884 77.0287 11.3721 77.1439 11.6019C77.2619 11.829 77.3208 12.0873 77.3208 12.3737C77.3208 12.6601 77.2683 12.9211 77.1645 13.1539C77.0591 13.3897 76.926 13.589 76.7635 13.75C76.6 13.915 76.4147 14.0417 76.2078 14.1341C75.9967 14.2243 75.7882 14.2707 75.5798 14.2707C75.3584 14.2707 75.1735 14.2395 75.024 14.1825C74.8753 14.1239 74.7395 14.0543 74.6219 13.9774C74.504 13.8968 74.3911 13.8295 74.2807 13.7716C74.1708 13.7134 74.0437 13.6826 73.9007 13.6826C73.833 13.6826 73.7558 13.6933 73.6649 13.7134C73.5732 13.7313 73.4903 13.7716 73.4111 13.8295C73.332 13.8884 73.2643 13.9801 73.2046 14.1041C73.1468 14.2273 73.1175 14.3943 73.1175 14.6024V20.0199Z" fill="#00AFF0"/>
<path id="Caminho 9843" d="M78.6883 7.22889C79.0006 6.91735 79.3855 6.75873 79.8405 6.75873C80.2989 6.75873 80.6842 6.91735 81.0056 7.22889C81.3229 7.54386 81.4845 7.92881 81.4845 8.38452C81.4845 8.84175 81.3229 9.22975 81.0056 9.54661C80.6842 9.86767 80.2989 10.0274 79.8405 10.0274C79.3855 10.0274 79.0006 9.86767 78.6883 9.54661C78.3779 9.22975 78.2185 8.84175 78.2185 8.38452C78.2185 7.92881 78.3779 7.54386 78.6883 7.22889ZM81.3678 20.0199C81.3678 20.4365 81.216 20.7944 80.917 21.0923C80.6165 21.3935 80.2589 21.5445 79.8405 21.5445C79.6336 21.5445 79.4369 21.5046 79.2547 21.427C79.0725 21.3479 78.9131 21.241 78.7765 21.1052C78.6385 20.9682 78.5338 20.8035 78.4532 20.6152C78.3779 20.4269 78.3357 20.2276 78.3357 20.0199V12.1006C78.3357 11.6821 78.4832 11.3276 78.7765 11.0332C79.0706 10.7414 79.424 10.5946 79.8405 10.5946C80.0509 10.5946 80.2494 10.6323 80.4381 10.7102C80.6268 10.7897 80.7892 10.8966 80.9265 11.0332C81.0638 11.1709 81.17 11.3303 81.2498 11.5113C81.3278 11.6954 81.3678 11.891 81.3678 12.1006V20.0199Z" fill="#00AFF0"/>
<path id="Caminho 9844" d="M91.8341 10.8088C92.3484 10.5885 92.9259 10.4759 93.5641 10.4759C94.1888 10.4759 94.7818 10.5976 95.3421 10.8388C95.9036 11.08 96.3859 11.4056 96.7971 11.816C97.2083 12.2272 97.5358 12.7077 97.7758 13.263C98.0159 13.8161 98.1368 14.4065 98.1368 15.0319V20.0199C98.1368 20.4365 97.9862 20.7944 97.6876 21.0923C97.3875 21.3935 97.0299 21.5442 96.6118 21.5442C96.1968 21.5442 95.8404 21.3935 95.5471 21.0923C95.2546 20.7944 95.1078 20.4365 95.1078 20.0199V15.0319C95.1078 14.6153 94.9556 14.2555 94.6479 13.9573C94.3413 13.6579 93.9803 13.5073 93.5641 13.5073C93.1328 13.5073 92.7676 13.6579 92.4694 13.9573C92.167 14.2555 92.0194 14.6153 92.0194 15.0319V20.0199C92.0194 20.2276 91.981 20.427 91.9015 20.6149C91.8242 20.8035 91.7166 20.9683 91.5797 21.1052C91.4431 21.241 91.2841 21.3479 91.1 21.427C90.9178 21.5046 90.7222 21.5442 90.5142 21.5442C90.0973 21.5442 89.7386 21.3935 89.44 21.0923C89.1398 20.7944 88.9896 20.4365 88.9896 20.0199V15.0319C88.9896 14.6153 88.8401 14.2555 88.5399 13.9573C88.2383 13.6579 87.875 13.5073 87.446 13.5073C87.0275 13.5073 86.6711 13.6579 86.3698 13.9573C86.0693 14.2555 85.9198 14.6153 85.9198 15.0319V20.0199C85.9198 20.4365 85.7711 20.7944 85.4717 21.0923C85.1701 21.3935 84.8129 21.5442 84.3963 21.5442C83.9794 21.5442 83.6234 21.3935 83.3301 21.0923C83.0364 20.7944 82.8904 20.4365 82.8904 20.0199V15.0319C82.8904 14.4065 83.0125 13.8161 83.2521 13.263C83.4925 12.7077 83.8201 12.2272 84.2305 11.816C84.6417 11.4056 85.1214 11.08 85.6771 10.8388C86.2302 10.5976 86.8214 10.4759 87.446 10.4759C88.096 10.4759 88.6761 10.5885 89.184 10.8088C89.6922 11.0317 90.1357 11.3097 90.5142 11.6498C90.8805 11.3097 91.3183 11.0317 91.8341 10.8088Z" fill="#00AFF0"/>
<path id="Caminho 9845" d="M103.336 18.1016C103.336 18.1811 103.389 18.2568 103.493 18.3287C103.597 18.3991 103.726 18.4649 103.883 18.5242C104.038 18.5817 104.209 18.6304 104.391 18.6707C104.574 18.7095 104.738 18.7293 104.882 18.7293C105.299 18.7293 105.623 18.6733 105.859 18.5615C106.095 18.4527 106.291 18.3321 106.455 18.1994C106.617 18.0712 106.774 17.9495 106.925 17.8372C107.074 17.7281 107.28 17.6722 107.539 17.6722C107.736 17.6722 107.927 17.7174 108.117 17.8083C108.306 17.8992 108.469 18.0168 108.613 18.161C108.757 18.3028 108.871 18.4706 108.958 18.6608C109.04 18.8487 109.084 19.0469 109.084 19.2553C109.084 19.6354 108.934 19.9731 108.634 20.2714C108.216 20.6639 107.682 20.9926 107.033 21.2615C106.38 21.5274 105.662 21.6613 104.882 21.6613C104.112 21.6613 103.389 21.5244 102.711 21.2501C102.035 20.9781 101.442 20.592 100.933 20.0975C100.425 19.6 100.024 19.0108 99.7311 18.3287C99.4378 17.6432 99.291 16.8889 99.291 16.0684C99.291 15.2479 99.4378 14.4944 99.7311 13.8104C100.024 13.1269 100.425 12.535 100.933 12.0405C101.442 11.5452 102.035 11.161 102.711 10.8875C103.389 10.6132 104.112 10.4763 104.882 10.4763C105.467 10.4763 106.044 10.5676 106.61 10.7498C107.178 10.9339 107.678 11.1941 108.117 11.5334C108.552 11.8723 108.905 12.274 109.172 12.7449C109.437 13.2143 109.571 13.7416 109.571 14.3281C109.571 14.6545 109.503 14.9387 109.368 15.1791C109.23 15.4206 109.011 15.5994 108.712 15.7162L103.61 17.849C103.428 17.9282 103.336 18.0115 103.336 18.1016ZM102.466 15.5697C102.511 15.6036 102.568 15.6184 102.633 15.6184C102.685 15.6184 102.75 15.6074 102.829 15.5796L105.995 14.2505C106.176 14.1714 106.268 14.0813 106.268 13.9774C106.268 13.8336 106.132 13.7047 105.859 13.5864C105.584 13.4673 105.258 13.4095 104.882 13.4095C104.516 13.4095 104.186 13.4791 103.883 13.6141C103.584 13.7503 103.322 13.9185 103.104 14.114C102.88 14.3076 102.709 14.5252 102.586 14.7595C102.459 14.995 102.398 15.208 102.398 15.4046C102.398 15.4822 102.422 15.5382 102.466 15.5697Z" fill="#00AFF0"/>
<path id="Caminho 9846" d="M111.077 7.22889C111.39 6.91735 111.772 6.75873 112.232 6.75873C112.685 6.75873 113.074 6.91735 113.392 7.22889C113.712 7.54386 113.873 7.92881 113.873 8.38452C113.873 8.84175 113.712 9.22975 113.392 9.54661C113.074 9.86767 112.685 10.0274 112.232 10.0274C111.772 10.0274 111.39 9.86767 111.077 9.54661C110.764 9.22975 110.608 8.84175 110.608 8.38452C110.608 7.92881 110.764 7.54386 111.077 7.22889ZM113.754 20.0199C113.754 20.4365 113.604 20.7944 113.305 21.0923C113.005 21.3935 112.647 21.5445 112.232 21.5445C112.02 21.5445 111.826 21.5046 111.643 21.427C111.461 21.3479 111.301 21.241 111.166 21.1052C111.027 20.9682 110.921 20.8035 110.842 20.6152C110.764 20.4269 110.723 20.2276 110.723 20.0199V12.1006C110.723 11.6821 110.872 11.3276 111.166 11.0332C111.457 10.7414 111.812 10.5946 112.232 10.5946C112.437 10.5946 112.638 10.6323 112.826 10.7102C113.014 10.7897 113.178 10.8966 113.315 11.0332C113.452 11.1709 113.559 11.3303 113.638 11.5113C113.717 11.6954 113.754 11.891 113.754 12.1006V20.0199Z" fill="#00AFF0"/>
<path id="Caminho 9847" d="M118.308 20.0199C118.308 20.4365 118.159 20.7944 117.858 21.0923C117.56 21.3935 117.201 21.5445 116.784 21.5445C116.367 21.5445 116.012 21.3935 115.718 21.0923C115.425 20.7944 115.278 20.4365 115.278 20.0199V12.1006C115.278 11.6821 115.425 11.3276 115.718 11.0332C116.012 10.7414 116.367 10.5946 116.784 10.5946C117.11 10.5946 117.4 10.6855 117.654 10.8681C117.909 11.0499 118.089 11.2584 118.191 11.4927C118.282 11.4288 118.407 11.3474 118.563 11.2485C118.72 11.1523 118.895 11.0534 119.091 10.9556C119.287 10.8578 119.497 10.7726 119.727 10.7007C119.954 10.6285 120.197 10.5946 120.459 10.5946C120.706 10.5946 120.954 10.6323 121.202 10.7102C121.449 10.7897 121.67 10.8989 121.869 11.0431C122.061 11.1884 122.218 11.3721 122.336 11.6019C122.453 11.829 122.511 12.0873 122.511 12.3737C122.511 12.6601 122.459 12.9211 122.355 13.1539C122.252 13.3897 122.118 13.589 121.953 13.75C121.792 13.915 121.608 14.0417 121.397 14.1341C121.188 14.2243 120.98 14.2707 120.771 14.2707C120.55 14.2707 120.364 14.2395 120.215 14.1825C120.063 14.1239 119.932 14.0543 119.813 13.9774C119.697 13.8968 119.582 13.8295 119.472 13.7716C119.359 13.7134 119.232 13.6826 119.091 13.6826C119.026 13.6826 118.947 13.6933 118.857 13.7134C118.764 13.7313 118.679 13.7716 118.601 13.8295C118.523 13.8884 118.455 13.9801 118.397 14.1041C118.339 14.2273 118.308 14.3943 118.308 14.6024V20.0199Z" fill="#00AFF0"/>
<path id="Caminho 9848" d="M133.751 20.0203C133.751 20.4368 133.603 20.7944 133.311 21.0926C133.017 21.3939 132.661 21.5445 132.246 21.5445C131.894 21.5445 131.58 21.4274 131.307 21.1927C131.032 20.9568 130.863 20.7042 130.8 20.4311C130.759 20.4555 130.669 20.5258 130.526 20.6449C130.383 20.7605 130.183 20.888 129.929 21.0249C129.675 21.1611 129.366 21.2828 129 21.3882C128.635 21.4917 128.213 21.5445 127.731 21.5445C127.117 21.5445 126.509 21.4072 125.902 21.1337C125.295 20.861 124.756 20.4772 124.282 19.9899C123.804 19.5015 123.417 18.9233 123.118 18.2602C122.818 17.5945 122.669 16.8642 122.669 16.0684C122.669 15.2738 122.818 14.5408 123.118 13.8698C123.417 13.1976 123.804 12.6213 124.282 12.1378C124.756 11.6555 125.295 11.2793 125.902 11.0039C126.509 10.7311 127.117 10.595 127.731 10.595C128.213 10.595 128.635 10.6463 129 10.7498C129.366 10.8544 129.675 10.9738 129.929 11.1108C130.183 11.2489 130.383 11.3748 130.526 11.4931C130.669 11.611 130.759 11.6821 130.8 11.7084C130.863 11.4356 131.032 11.1796 131.307 10.9453C131.58 10.7102 131.894 10.595 132.246 10.595C132.661 10.595 133.017 10.7414 133.311 11.0336C133.603 11.3276 133.751 11.6821 133.751 12.1009V20.0203ZM127.232 13.7416C126.925 13.8724 126.658 14.052 126.428 14.281C126.204 14.5073 126.021 14.7751 125.892 15.0828C125.762 15.3875 125.698 15.7162 125.698 16.0684C125.698 16.4218 125.762 16.7508 125.892 17.0571C126.021 17.3617 126.204 17.6303 126.428 17.8585C126.658 18.0856 126.925 18.2656 127.232 18.396C127.537 18.5265 127.868 18.5931 128.219 18.5931C128.57 18.5931 128.896 18.5265 129.198 18.396C129.496 18.2656 129.761 18.0856 129.988 17.8585C130.215 17.6303 130.394 17.3617 130.526 17.0571C130.656 16.7508 130.722 16.4218 130.722 16.0684C130.722 15.7162 130.656 15.3875 130.526 15.0828C130.394 14.7751 130.215 14.5073 129.988 14.281C129.761 14.052 129.496 13.8724 129.198 13.7416C128.896 13.6115 128.57 13.5468 128.219 13.5468C127.868 13.5468 127.537 13.6115 127.232 13.7416Z" fill="#00AFF0"/>
<path id="Caminho 9849" d="M58.6623 23.6759C59.0054 23.3255 59.4246 23.157 59.9039 23.157C60.4071 23.157 60.8301 23.3255 61.1767 23.6759C61.5201 24.0239 61.6951 24.4382 61.6951 24.9251V36.6012C61.6951 37.1014 61.5201 37.5255 61.1767 37.8675C60.8301 38.2129 60.4071 38.3856 59.9039 38.3856C59.4246 38.3856 59.0054 38.2129 58.6623 37.8675C58.3165 37.5255 58.1404 37.1014 58.1404 36.6012V24.9251C58.1404 24.4382 58.3165 24.0239 58.6623 23.6759Z" fill="#00AFF0"/>
<path id="Caminho 9850" d="M70.2157 27.2804C70.8152 27.5384 71.3269 27.8849 71.7662 28.3269C72.209 28.7647 72.5567 29.2806 72.818 29.8778C73.0725 30.4738 73.203 31.1129 73.203 31.7835V36.8024C73.203 37.0166 73.1615 37.2254 73.0816 37.4217C72.996 37.6203 72.8842 37.7884 72.7419 37.9291C72.5989 38.0752 72.4338 38.1806 72.2478 38.2639C72.0557 38.3476 71.8552 38.3856 71.6399 38.3856C71.2048 38.3856 70.8324 38.2285 70.5197 37.923C70.2093 37.6088 70.0545 37.2387 70.0545 36.8024V31.6238C70.0545 31.1703 69.8806 30.7884 69.5284 30.4887C69.1731 30.1939 68.7699 30.0429 68.3092 30.0429C67.8383 30.0429 67.4279 30.1939 67.0802 30.4887C66.7367 30.7884 66.5686 31.1703 66.5686 31.6238V36.8024C66.5686 37.2387 66.4077 37.6088 66.0976 37.923C65.7846 38.2285 65.4118 38.3856 64.9827 38.3856C64.551 38.3856 64.1812 38.2285 63.8777 37.923C63.5726 37.6088 63.4163 37.2387 63.4163 36.8024V31.7835C63.4163 31.1129 63.5479 30.4738 63.8039 29.8778C64.0629 29.2806 64.4072 28.7647 64.8465 28.3269C65.2885 27.8849 65.8085 27.5384 66.4004 27.2804C66.9954 27.0256 67.6306 26.8932 68.3092 26.8932C68.9829 26.8932 69.6212 27.0256 70.2157 27.2804Z" fill="#00AFF0"/>
<path id="Caminho 9851" d="M78.9652 36.8256C78.9652 37.039 78.9253 37.2422 78.8435 37.4335C78.7629 37.6203 78.6487 37.7884 78.5095 37.9291C78.3631 38.0752 78.1969 38.1806 77.9998 38.2639C77.8005 38.3476 77.5996 38.3856 77.379 38.3856C76.9473 38.3856 76.5779 38.2316 76.2732 37.9291C75.9697 37.6248 75.8194 37.2543 75.8194 36.8256V30.0638H75.7989C75.4074 30.0638 75.0777 29.9276 74.8045 29.6564C74.5352 29.3825 74.3967 29.0558 74.3967 28.6636C74.3967 28.2691 74.5352 27.9332 74.8045 27.6635C75.0777 27.395 75.4074 27.2603 75.7989 27.2603H75.8194V26.7559C75.8194 26.2237 75.8848 25.7327 76.0084 25.2811C76.1385 24.8311 76.3398 24.437 76.6095 24.1023C76.8807 23.7729 77.2181 23.5112 77.6255 23.3233C78.0325 23.1338 78.5126 23.0395 79.0641 23.0395C79.4023 23.0395 79.7424 23.0851 80.0771 23.1768C80.4176 23.2761 80.7264 23.4161 81.0041 23.5956C81.2814 23.7786 81.5063 24.0026 81.6828 24.2666C81.8589 24.5295 81.9483 24.838 81.9483 25.1906C81.9483 25.544 81.8357 25.8567 81.6044 26.1458C81.3708 26.4284 81.1023 26.5691 80.7888 26.5691C80.6865 26.5691 80.577 26.5486 80.4742 26.5003C80.3754 26.4539 80.2616 26.3995 80.1414 26.3363C80.0178 26.2743 79.8938 26.2165 79.7652 26.1644C79.637 26.1092 79.5039 26.0819 79.3677 26.0819C79.1976 26.0819 79.082 26.1473 79.0352 26.2743C78.9881 26.4025 78.9652 26.5642 78.9652 26.7559V27.2603H79.8953C80.2898 27.2603 80.6241 27.395 80.8889 27.6635C81.1631 27.9332 81.2982 28.2691 81.2982 28.6636C81.2982 29.0558 81.1631 29.3825 80.8889 29.6564C80.6241 29.9276 80.2898 30.0638 79.8953 30.0638H78.9652V36.8256Z" fill="#00AFF0"/>
<path id="Caminho 9852" d="M93.7587 36.8024C93.7587 37.2387 93.6085 37.6089 93.3019 37.9231C92.9984 38.2285 92.6279 38.3856 92.1942 38.3856C91.8336 38.3856 91.5072 38.2639 91.2215 38.0201C90.9355 37.7755 90.7613 37.5111 90.6951 37.2281C90.6521 37.2543 90.5597 37.327 90.4124 37.4521C90.2572 37.572 90.0572 37.7066 89.792 37.8477C89.525 37.987 89.2089 38.1133 88.8281 38.2262C88.4489 38.3308 88.0061 38.3856 87.5089 38.3856C86.8706 38.3856 86.2403 38.2449 85.6127 37.9592C84.9812 37.6762 84.4232 37.2794 83.9268 36.7705C83.433 36.268 83.0275 35.6658 82.7206 34.9773C82.406 34.2873 82.2534 33.5273 82.2534 32.7018C82.2534 31.8745 82.406 31.1144 82.7206 30.4149C83.0275 29.7199 83.433 29.1216 83.9268 28.6187C84.4232 28.1181 84.9812 27.7236 85.6127 27.4433C86.2403 27.1603 86.8706 27.0165 87.5089 27.0165C88.0061 27.0165 88.4489 27.0716 88.8281 27.1819C89.2089 27.2896 89.525 27.4106 89.792 27.5551C90.0572 27.694 90.2572 27.8286 90.4124 27.9515C90.5597 28.0724 90.6521 28.1478 90.6951 28.171C90.7613 27.8864 90.9355 27.6243 91.2215 27.3839C91.5072 27.1397 91.8336 27.0165 92.1942 27.0165C92.6279 27.0165 92.9984 27.169 93.3019 27.4752C93.6085 27.7784 93.7587 28.1478 93.7587 28.581V36.8024ZM89.9221 24.5192C90.0693 24.6698 90.1485 24.8482 90.1485 25.0704C90.1485 25.2716 90.0663 25.447 89.9122 25.5942C89.7567 25.746 89.5771 25.8198 89.3755 25.8198C89.1769 25.8198 88.9947 25.746 88.8452 25.5942L87.7094 24.458L86.5503 25.5942C86.3799 25.746 86.2023 25.8198 86.025 25.8198C85.8211 25.8198 85.653 25.746 85.5024 25.5942C85.3487 25.447 85.2783 25.2716 85.2783 25.0704C85.2783 24.838 85.3456 24.6554 85.478 24.5192L87.1411 22.8535C87.318 22.68 87.5089 22.5902 87.7094 22.5902C87.9159 22.5902 88.1039 22.68 88.2788 22.8535L89.9221 24.5192ZM86.9939 30.2856C86.6728 30.4206 86.3936 30.6093 86.157 30.8451C85.9231 31.0825 85.7344 31.356 85.5982 31.6751C85.4666 31.9962 85.3981 32.3359 85.3981 32.7018C85.3981 33.0685 85.4666 33.4101 85.5982 33.7262C85.7344 34.0438 85.9231 34.3227 86.157 34.5615C86.3936 34.7978 86.6728 34.9834 86.9939 35.1169C87.3088 35.2531 87.6508 35.3235 88.0148 35.3235C88.3811 35.3235 88.7208 35.2531 89.0293 35.1169C89.3397 34.9834 89.6167 34.7978 89.8499 34.5615C90.0891 34.3227 90.2755 34.0438 90.4124 33.7262C90.5486 33.4101 90.6129 33.0685 90.6129 32.7018C90.6129 32.3359 90.5486 31.9962 90.4124 31.6751C90.2755 31.356 90.0891 31.0825 89.8499 30.8451C89.6167 30.6093 89.3397 30.4206 89.0293 30.2856C88.7208 30.1486 88.3811 30.0786 88.0148 30.0786C87.6508 30.0786 87.3088 30.1486 86.9939 30.2856Z" fill="#00AFF0"/>
<path id="Caminho 9853" d="M102.143 27.2804C102.737 27.5384 103.252 27.8849 103.694 28.3269C104.132 28.7647 104.481 29.2806 104.74 29.8778C104.996 30.4738 105.125 31.1129 105.125 31.7835V36.8024C105.125 37.0166 105.085 37.2254 105.003 37.4217C104.92 37.6203 104.809 37.7884 104.667 37.9291C104.529 38.0752 104.359 38.1806 104.172 38.2639C103.982 38.3476 103.777 38.3856 103.561 38.3856C103.131 38.3856 102.756 38.2285 102.446 37.923C102.133 37.6088 101.978 37.2387 101.978 36.8024V31.6238C101.978 31.1703 101.803 30.7884 101.451 30.4887C101.102 30.1939 100.693 30.0429 100.234 30.0429C99.7578 30.0429 99.3496 30.1939 99.0034 30.4887C98.6607 30.7884 98.4869 31.1703 98.4869 31.6238V36.8024C98.4869 37.2387 98.3298 37.6088 98.0197 37.923C97.709 38.2285 97.3347 38.3856 96.9033 38.3856C96.4731 38.3856 96.1033 38.2285 95.7986 37.923C95.4955 37.6088 95.3418 37.2387 95.3418 36.8024V31.7835C95.3418 31.1129 95.4666 30.4738 95.7283 29.8778C95.9858 29.2806 96.3308 28.7647 96.7744 28.3269C97.2122 27.8849 97.7303 27.5384 98.3252 27.2804C98.922 27.0256 99.5596 26.8932 100.234 26.8932C100.912 26.8932 101.543 27.0256 102.143 27.2804Z" fill="#00AFF0"/>
<path id="Caminho 9854" d="M114.378 38.0809C113.717 38.3632 112.963 38.5085 112.128 38.5085C111.326 38.5085 110.578 38.3632 109.874 38.0809C109.169 37.7979 108.552 37.3947 108.027 36.8865C107.501 36.3707 107.082 35.7571 106.779 35.0435C106.473 34.3386 106.321 33.5543 106.321 32.7018C106.321 31.8509 106.473 31.065 106.779 30.3533C107.082 29.6431 107.501 29.0303 108.027 28.5194C108.552 28.0051 109.169 27.6095 109.874 27.3196C110.578 27.037 111.326 26.8929 112.128 26.8929C112.963 26.8929 113.717 27.037 114.378 27.3196C115.038 27.6095 115.587 27.9473 116.017 28.3357C116.267 28.5643 116.44 28.7914 116.551 29.0181C116.658 29.2414 116.714 29.4601 116.714 29.675C116.714 30.0782 116.553 30.4244 116.236 30.7013C115.917 30.9794 115.551 31.1171 115.13 31.1171C114.847 31.1171 114.603 31.0532 114.409 30.9322C114.211 30.8113 114.012 30.6796 113.81 30.5305C113.609 30.3799 113.376 30.2479 113.118 30.1243C112.865 30.001 112.533 29.9421 112.128 29.9421C111.749 29.9421 111.387 30.0121 111.049 30.152C110.713 30.2954 110.418 30.4894 110.168 30.7462C109.917 30.9927 109.719 31.2868 109.578 31.6234C109.433 31.9642 109.368 32.3214 109.368 32.7018C109.368 33.0814 109.433 33.4367 109.578 33.7772C109.719 34.1161 109.917 34.4105 110.168 34.6612C110.418 34.9142 110.713 35.1047 111.049 35.2501C111.387 35.3919 111.749 35.4642 112.128 35.4642C112.557 35.4642 112.898 35.4014 113.154 35.2805C113.403 35.1588 113.616 35.0191 113.81 34.8628C113.998 34.7095 114.189 34.5669 114.378 34.4455C114.566 34.3223 114.819 34.2618 115.13 34.2618C115.551 34.2618 115.917 34.4105 116.236 34.6886C116.553 34.9769 116.714 35.3235 116.714 35.7255C116.714 35.9443 116.658 36.1622 116.551 36.3867C116.44 36.6077 116.267 36.8367 116.017 37.0645C115.587 37.4616 115.038 37.7979 114.378 38.0809Z" fill="#00AFF0"/>
<path id="Caminho 9855" d="M118.274 23.5233C118.598 23.2004 118.999 23.0395 119.469 23.0395C119.946 23.0395 120.349 23.2004 120.681 23.5233C121.013 23.8535 121.177 24.251 121.177 24.725C121.177 25.1974 121.013 25.5965 120.681 25.9278C120.349 26.2629 119.946 26.4284 119.469 26.4284C118.999 26.4284 118.598 26.2629 118.274 25.9278C117.95 25.5965 117.787 25.1974 117.787 24.725C117.787 24.251 117.95 23.8535 118.274 23.5233ZM121.056 36.8024C121.056 37.2387 120.901 37.6089 120.589 37.9231C120.277 38.2285 119.909 38.3856 119.469 38.3856C119.256 38.3856 119.055 38.3476 118.862 38.2639C118.674 38.1806 118.51 38.0752 118.365 37.9291C118.227 37.7884 118.112 37.6203 118.034 37.4217C117.95 37.2254 117.91 37.0166 117.91 36.8024V28.581C117.91 28.1478 118.061 27.7784 118.365 27.4752C118.672 27.169 119.041 27.0165 119.469 27.0165C119.691 27.0165 119.897 27.0591 120.09 27.1401C120.289 27.2215 120.458 27.333 120.6 27.4752C120.74 27.6152 120.85 27.7856 120.933 27.9701C121.02 28.1622 121.056 28.3596 121.056 28.581V36.8024Z" fill="#00AFF0"/>
<path id="Caminho 9856" d="M133.762 36.8024C133.762 37.2387 133.609 37.6089 133.302 37.9231C132.998 38.2285 132.626 38.3856 132.2 38.3856C131.831 38.3856 131.505 38.2639 131.222 38.0201C130.937 37.7755 130.765 37.5111 130.695 37.2281C130.654 37.2543 130.557 37.327 130.411 37.4521C130.26 37.572 130.053 37.7066 129.792 37.8477C129.529 37.987 129.207 38.1133 128.828 38.2262C128.45 38.3308 128.007 38.3856 127.508 38.3856C126.873 38.3856 126.243 38.2449 125.609 37.9592C124.981 37.6762 124.422 37.2794 123.925 36.7705C123.431 36.268 123.027 35.6658 122.718 34.9773C122.405 34.2873 122.253 33.5273 122.253 32.7018C122.253 31.8745 122.405 31.1144 122.718 30.4149C123.027 29.7199 123.431 29.1216 123.925 28.6187C124.422 28.1181 124.981 27.7236 125.609 27.4433C126.243 27.1603 126.873 27.0165 127.508 27.0165C128.007 27.0165 128.45 27.0716 128.828 27.1819C129.207 27.2896 129.529 27.4106 129.792 27.5551C130.053 27.694 130.26 27.8286 130.411 27.9515C130.557 28.0724 130.654 28.1478 130.695 28.171C130.765 27.8864 130.937 27.6243 131.222 27.3839C131.505 27.1397 131.831 27.0165 132.2 27.0165C132.626 27.0165 132.998 27.169 133.302 27.4752C133.609 27.7784 133.762 28.1478 133.762 28.581V36.8024ZM126.99 30.2856C126.675 30.4206 126.396 30.6093 126.157 30.8451C125.922 31.0825 125.737 31.356 125.604 31.6751C125.465 31.9962 125.395 32.3359 125.395 32.7018C125.395 33.0685 125.465 33.4101 125.604 33.7262C125.737 34.0438 125.922 34.3227 126.157 34.5615C126.396 34.7978 126.675 34.9834 126.99 35.1169C127.311 35.2531 127.652 35.3235 128.016 35.3235C128.382 35.3235 128.72 35.2531 129.029 35.1169C129.342 34.9834 129.617 34.7978 129.853 34.5615C130.092 34.3227 130.276 34.0438 130.411 33.7262C130.549 33.4101 130.615 33.0685 130.615 32.7018C130.615 32.3359 130.549 31.9962 130.411 31.6751C130.276 31.356 130.092 31.0825 129.853 30.8451C129.617 30.6093 129.342 30.4206 129.029 30.2856C128.72 30.1486 128.382 30.0786 128.016 30.0786C127.652 30.0786 127.311 30.1486 126.99 30.2856Z" fill="#00AFF0"/>
<path id="Caminho 9857" d="M77.9945 54.6469C78.0253 54.7249 78.0413 54.801 78.0413 54.8797V55.1118C78.0413 55.3279 78.0033 55.5504 77.9261 55.7817C77.8477 56.0126 77.7271 56.2336 77.5666 56.4409C77.4045 56.6501 77.2007 56.819 76.953 56.9525C76.7057 57.0807 76.4079 57.1473 76.0522 57.1473C75.6064 57.1473 75.1922 57.0046 74.8137 56.7193C74.4356 56.4302 74.1857 56.0673 74.0613 55.6196L72.3503 48.7463L69.7845 55.8277C69.6434 56.2294 69.4315 56.5493 69.147 56.7866C68.8621 57.0286 68.511 57.1473 68.0945 57.1473C67.6768 57.1473 67.3287 57.0286 67.0415 56.7866C66.7566 56.5493 66.5428 56.2294 66.4067 55.8277L63.8379 48.7463L62.1041 55.6196C61.982 56.0673 61.7343 56.4302 61.3638 56.7193C60.9967 57.0046 60.5844 57.1473 60.1378 57.1473C59.8628 57.1473 59.5996 57.0913 59.3515 56.9856C59.107 56.8783 58.8936 56.7307 58.7182 56.5466C58.5394 56.3595 58.3964 56.1487 58.2906 55.9102C58.1799 55.6698 58.1274 55.4104 58.1274 55.1335C58.1274 54.9794 58.1491 54.8189 58.194 54.6469L61.5285 41.3203C61.651 40.8745 61.8754 40.5089 62.2079 40.221C62.5407 39.9376 62.9615 39.7934 63.4708 39.7934C63.8683 39.7934 64.2483 39.9167 64.5998 40.1666C64.9585 40.4104 65.2107 40.7341 65.3644 41.1358L68.0945 48.6292L70.8242 41.1358C70.982 40.7341 71.2346 40.4104 71.5895 40.1666C71.9429 39.9167 72.3176 39.7934 72.7219 39.7934C73.2316 39.7934 73.6489 39.9376 73.9825 40.221C74.3127 40.5089 74.5413 40.8745 74.6634 41.3203L77.9945 54.6469Z" fill="#00AFF0"/>
<path id="Caminho 9858" d="M83.3173 53.0725C83.3173 53.1672 83.3763 53.2551 83.5003 53.3403C83.6243 53.4274 83.7757 53.502 83.9636 53.5716C84.1485 53.642 84.3466 53.6979 84.5616 53.7466C84.7799 53.7892 84.9739 53.8143 85.1417 53.8143C85.6339 53.8143 86.0208 53.7511 86.2969 53.6191C86.5769 53.4887 86.8135 53.3445 87.0052 53.1882C87.1977 53.0387 87.3829 52.8934 87.5579 52.7606C87.7367 52.6316 87.979 52.5651 88.2879 52.5651C88.5191 52.5651 88.7478 52.6225 88.9692 52.7286C89.1917 52.8329 89.3899 52.9744 89.5588 53.1448C89.7273 53.311 89.865 53.5096 89.9647 53.7359C90.067 53.9588 90.1153 54.192 90.1153 54.4389C90.1153 54.887 89.9369 55.2868 89.5824 55.6428C89.0905 56.1065 88.4598 56.4953 87.6865 56.811C86.9158 57.1275 86.0672 57.2865 85.1417 57.2865C84.231 57.2865 83.3763 57.1229 82.5752 56.8007C81.7706 56.4763 81.0738 56.0202 80.4716 55.4347C79.8691 54.8478 79.3932 54.1528 79.0463 53.3403C78.6993 52.5327 78.5286 51.6392 78.5286 50.6681C78.5286 49.6969 78.6993 48.806 79.0463 47.9958C79.3932 47.1871 79.8691 46.4868 80.4716 45.9014C81.0738 45.3167 81.7706 44.8606 82.5752 44.5369C83.3763 44.2147 84.231 44.0515 85.1417 44.0515C85.8366 44.0515 86.5202 44.1569 87.1897 44.3756C87.8588 44.5906 88.4518 44.9013 88.9692 45.3007C89.488 45.7024 89.9061 46.1795 90.221 46.7356C90.5364 47.2891 90.6927 47.9156 90.6927 48.6094C90.6927 48.997 90.6121 49.3291 90.4485 49.6155C90.2884 49.8993 90.0308 50.1123 89.6752 50.2515L83.6406 52.7743C83.4215 52.8644 83.3173 52.966 83.3173 53.0725ZM82.2845 50.0777C82.3393 50.1184 82.4044 50.137 82.4801 50.137C82.5428 50.137 82.6204 50.1218 82.7148 50.0895L86.4601 48.5177C86.6762 48.4226 86.7846 48.3146 86.7846 48.1944C86.7846 48.0236 86.6229 47.8672 86.2969 47.7307C85.9728 47.5918 85.5886 47.5219 85.1417 47.5219C84.7095 47.5219 84.3181 47.6017 83.9636 47.7638C83.6079 47.9243 83.2979 48.1248 83.0366 48.3564C82.773 48.5847 82.5702 48.8418 82.4245 49.1183C82.2758 49.3953 82.2062 49.6509 82.2062 49.8837C82.2062 49.9739 82.2301 50.0431 82.2845 50.0777Z" fill="#00AFF0"/>
<path id="Caminho 9859" d="M95.8041 55.3419C95.8041 55.8376 95.6272 56.2598 95.2708 56.614C94.9178 56.97 94.4933 57.1473 93.9984 57.1473C93.7557 57.1473 93.5206 57.0982 93.3064 57.0073C93.0896 56.9129 92.9021 56.7866 92.7393 56.6273C92.5772 56.4633 92.4517 56.2716 92.357 56.0472C92.2664 55.8262 92.2185 55.5899 92.2185 55.3419V41.5756C92.2185 41.0811 92.3923 40.6603 92.7393 40.313C93.0885 39.9669 93.5073 39.7934 93.9984 39.7934C94.246 39.7934 94.4811 39.8379 94.7066 39.933C94.9292 40.0243 95.1224 40.1495 95.2841 40.313C95.4465 40.4736 95.5743 40.6649 95.666 40.8833C95.7588 41.0959 95.8041 41.3279 95.8041 41.5756V55.3419Z" fill="#00AFF0"/>
<path id="Caminho 9860" d="M102.5 44.3178C102.785 44.2307 103.128 44.1908 103.529 44.1908C104.299 44.1908 105.027 44.3391 105.703 44.6297C106.379 44.9234 106.976 45.3228 107.483 45.8306C107.992 46.3426 108.399 46.9357 108.7 47.6112C109 48.2944 109.149 49.0168 109.149 49.7875V55.3419C109.149 55.838 108.972 56.2598 108.616 56.614C108.264 56.97 107.839 57.1473 107.343 57.1473C107.101 57.1473 106.868 57.0986 106.652 57.0077C106.436 56.9129 106.247 56.787 106.085 56.6273C105.924 56.4633 105.796 56.2716 105.703 56.0475C105.613 55.8265 105.565 55.5899 105.565 55.3419V49.7875C105.565 49.234 105.37 48.7608 104.974 48.3678C104.583 47.9745 104.101 47.7748 103.529 47.7748C102.973 47.7748 102.5 47.9745 102.108 48.3678C101.713 48.7608 101.516 49.234 101.516 49.7875V55.3419C101.516 55.838 101.34 56.2598 100.987 56.614C100.63 56.97 100.205 57.1473 99.7137 57.1473C99.4673 57.1473 99.236 57.0986 99.0207 57.0077C98.8023 56.9129 98.6144 56.787 98.4527 56.6273C98.2892 56.4633 98.164 56.2716 98.0712 56.0475C97.9784 55.8265 97.9324 55.5899 97.9324 55.3419V41.5756C97.9324 41.0814 98.1039 40.6607 98.4527 40.3134C98.7989 39.9669 99.2185 39.7934 99.7137 39.7934C99.9606 39.7934 100.195 39.8383 100.418 39.933C100.643 40.0247 100.837 40.1498 100.997 40.3134C101.16 40.4739 101.286 40.6649 101.378 40.8836C101.471 41.0959 101.516 41.3279 101.516 41.5756V44.7682C101.886 44.5502 102.213 44.4026 102.5 44.3178Z" fill="#00AFF0"/>
<path id="Caminho 9861" d="M114.561 56.8007C113.759 56.4763 113.061 56.0202 112.458 55.4347C111.854 54.8478 111.381 54.1528 111.034 53.3403C110.687 52.5327 110.515 51.6392 110.515 50.6681C110.515 49.6969 110.687 48.806 111.034 47.9958C111.381 47.1871 111.854 46.4868 112.458 45.9014C113.061 45.3167 113.759 44.8606 114.561 44.5369C115.362 44.2147 116.22 44.0515 117.129 44.0515C118.039 44.0515 118.894 44.2147 119.697 44.5369C120.5 44.8606 121.202 45.3167 121.8 45.9014C122.403 46.4868 122.879 47.1871 123.224 47.9958C123.571 48.806 123.742 49.6969 123.742 50.6681C123.742 51.6392 123.571 52.5327 123.224 53.3403C122.879 54.1528 122.403 54.8478 121.8 55.4347C121.202 56.0202 120.5 56.4763 119.697 56.8007C118.894 57.1229 118.039 57.2865 117.129 57.2865C116.22 57.2865 115.362 57.1229 114.561 56.8007ZM114.225 51.8963C114.389 52.2802 114.612 52.6157 114.9 52.901C115.184 53.1855 115.518 53.4099 115.903 53.5716C116.29 53.7359 116.695 53.8143 117.129 53.8143C117.562 53.8143 117.97 53.7359 118.354 53.5716C118.74 53.4099 119.077 53.1855 119.362 52.901C119.65 52.6157 119.87 52.2802 120.031 51.8963C120.193 51.5099 120.278 51.1025 120.278 50.6681C120.278 50.2367 120.193 49.8274 120.031 49.4413C119.87 49.0544 119.65 48.7208 119.362 48.4371C119.077 48.1495 118.74 47.9243 118.354 47.7638C117.97 47.6017 117.562 47.5219 117.129 47.5219C116.695 47.5219 116.29 47.6017 115.903 47.7638C115.518 47.9243 115.184 48.1495 114.9 48.4371C114.612 48.7208 114.389 49.0544 114.225 49.4413C114.067 49.8274 113.984 50.2367 113.984 50.6681C113.984 51.1025 114.067 51.5099 114.225 51.8963Z" fill="#00AFF0"/>
<path id="Caminho 9862" d="M128.693 55.3419C128.693 55.8376 128.516 56.2598 128.163 56.614C127.804 56.97 127.383 57.1473 126.892 57.1473C126.397 57.1473 125.978 56.97 125.63 56.614C125.283 56.2598 125.108 55.8376 125.108 55.3419V45.9725C125.108 45.478 125.283 45.0584 125.63 44.7085C125.978 44.3616 126.397 44.1908 126.892 44.1908C127.272 44.1908 127.617 44.2992 127.917 44.5122C128.219 44.729 128.432 44.9782 128.557 45.2532C128.666 45.176 128.811 45.082 128.996 44.9633C129.181 44.8507 129.388 44.734 129.619 44.6164C129.849 44.5038 130.101 44.4026 130.373 44.3178C130.64 44.2303 130.929 44.1908 131.237 44.1908C131.532 44.1908 131.824 44.2349 132.115 44.3269C132.411 44.4228 132.673 44.5502 132.904 44.7203C133.134 44.8941 133.32 45.1124 133.457 45.3799C133.596 45.6511 133.667 45.955 133.667 46.2947C133.667 46.6344 133.605 46.9429 133.482 47.2198C133.357 47.499 133.2 47.7345 133.008 47.9239C132.813 48.1187 132.595 48.2708 132.349 48.3766C132.101 48.4846 131.854 48.5383 131.607 48.5383C131.346 48.5383 131.126 48.5029 130.951 48.4367C130.771 48.3678 130.612 48.2849 130.476 48.194C130.335 48.1004 130.2 48.0175 130.069 47.9498C129.94 47.8806 129.79 47.8459 129.619 47.8459C129.538 47.8459 129.45 47.8574 129.342 47.8806C129.233 47.9022 129.135 47.9498 129.04 48.0175C128.949 48.0871 128.868 48.1974 128.797 48.3431C128.728 48.4911 128.693 48.6855 128.693 48.9327V55.3419Z" fill="#00AFF0"/>
<path id="Caminho 9863" d="M44.3473 22.5537C44.5767 22.7694 44.9594 22.3122 45.0811 22.2783C45.2663 22.2228 45.7935 22.1087 45.9324 21.9417C45.9906 21.8744 46.0309 21.7222 45.9324 21.6358C45.7597 21.4761 45.5094 21.4213 45.3287 21.3296C45.0811 21.2083 44.8159 20.9314 44.4409 20.8405C44.1586 20.7731 43.8589 20.7659 43.6044 20.2748C43.5458 20.7807 43.8448 21.1801 44.0453 21.5898C44.1038 21.7058 44.2412 22.0505 44.264 22.1787C44.2811 22.2696 44.2655 22.4777 44.3473 22.5537Z" fill="#EB008C"/>
<path id="Caminho 9864" d="M49.5873 13.9162C49.8597 14.0101 50.2697 14.1573 50.3298 13.9215C50.3671 13.7762 49.9042 13.893 49.6086 13.3924C49.9391 13.5997 50.3686 13.5997 50.4413 13.4224C50.4987 13.276 49.9916 13.387 49.6782 12.9184C50.0145 13.0622 50.4219 13.0101 50.4858 12.9389C50.6189 12.775 49.9993 12.8857 49.8676 12.5118C50.081 12.6232 50.4211 12.6365 50.5246 12.5118C50.652 12.3566 50.566 11.7993 50.0053 11.4775C49.62 11.2568 48.8402 11.1477 48.3244 11.4775C47.766 11.832 47.2764 13.1223 47.599 13.8739C47.8052 14.3521 48.0806 14.68 49.0285 14.7648C49.5493 14.8124 50.1495 14.6028 50.1461 14.327C50.1461 14.26 49.7425 14.276 49.5873 13.9162Z" fill="#EB008C"/>
<path id="Caminho 9865" d="M2.73748 28.9097C2.9524 28.724 3.28449 28.4441 3.11179 28.2767C3.00414 28.1725 2.8748 28.6286 2.30041 28.632C2.64124 28.4494 2.85616 28.0827 2.73862 27.934C2.64238 27.8119 2.48414 28.2999 1.92839 28.3364C2.21825 28.1207 2.37649 27.7426 2.34454 27.6536C2.27188 27.4566 2.05848 28.0443 1.67239 27.9712C1.87095 27.8446 2.05392 27.5589 1.99838 27.4098C1.93105 27.2211 1.40611 27.018 0.852263 27.3371C0.70277 27.4208 0.0891984 27.7514 0.107838 28.8032C0.119249 29.4582 0.746515 30.1981 1.19842 30.4286C1.86943 30.7671 2.64391 30.5819 3.18596 29.8123C3.48914 29.3867 3.60668 28.7704 3.36589 28.635C3.30997 28.6016 3.12358 28.9565 2.73748 28.9097Z" fill="#EB008C"/>
<path id="Caminho 9866" d="M46.9415 11.5977C47.4524 11.5977 47.6296 11.5479 47.7658 11.3725C47.8503 11.2645 47.5665 11.4341 47.4379 10.9754C47.592 11.1439 47.9214 11.2462 48.0363 11.0073C48.0861 10.9054 47.5604 10.994 47.4558 10.4097C47.6319 10.5159 48.236 10.9027 48.2889 10.5098C48.3159 10.3192 47.7069 10.5767 47.4672 9.81213C47.9366 10.1408 48.3524 10.1598 48.4193 9.94412C48.4912 9.70524 47.9526 9.84674 47.6255 9.18867C47.8263 9.38647 48.5951 9.57895 48.5563 9.30202C48.5296 9.09623 48.1192 9.30012 47.8651 8.79725C48.3307 8.98097 48.4482 8.8349 48.5274 8.75654C48.6034 8.68084 48.5186 8.32594 48.4912 8.25138C48.3136 7.72682 47.9575 7.44952 47.5547 7.3548C46.555 7.11629 45.7844 7.72834 45.453 8.54619C45.2206 9.11069 45.0377 10.3005 45.6181 10.9887C45.9723 11.4025 46.555 11.5836 46.9415 11.5977Z" fill="#EB008C"/>
<path id="Caminho 9867" d="M4.67544 26.6996C5.01969 26.487 5.27722 26.0328 5.24222 25.7338C5.227 25.6121 5.16196 25.9061 4.77548 25.7125C4.97937 25.7125 5.24945 25.5527 5.15967 25.3298C5.12316 25.2351 4.86145 25.6414 4.4065 25.3576C4.58528 25.3013 5.21217 25.1335 4.98089 24.8589C4.86868 24.7239 4.67201 25.2899 4.01165 24.9833C4.51948 24.8688 4.78727 24.6014 4.6819 24.4264C4.56665 24.2328 4.33118 24.6812 3.69213 24.4983C3.94699 24.4838 4.54344 24.0856 4.3327 23.9422C4.17979 23.8375 4.06719 24.2354 3.57458 24.1C3.98236 23.8992 3.95688 23.7291 3.95231 23.6283C3.94699 23.5309 3.65827 23.3742 3.59056 23.3442C3.06866 23.1041 2.42618 23.2666 2.10361 23.655C1.80919 24.011 1.66692 24.5188 1.70002 24.9392C1.743 25.4424 2.16714 26.2625 2.80049 26.695C3.41216 27.1112 4.35363 26.8947 4.67544 26.6996Z" fill="#EB008C"/>
<path id="Caminho 9868" d="M30.3774 8.86535C30.299 8.99468 30.4097 9.09967 30.544 9.09967C30.6441 9.09967 30.7707 8.93991 30.6771 8.83226C30.6102 8.75123 30.4622 8.71814 30.3774 8.86535Z" fill="#EB008C"/>
<path id="Caminho 9869" d="M41.4438 6.1676C41.4438 6.20032 41.2756 6.66325 41.2756 7.13874C41.2756 7.91588 41.71 8.54847 42.8531 8.72802C43.4507 8.82159 44.2998 8.77861 44.8099 7.90789C44.7737 7.84133 44.4717 7.88545 44.3903 7.45637C44.5474 7.60434 44.9852 7.72683 44.9738 7.45637C44.9643 7.28405 44.4823 7.43963 44.3153 6.98963C44.563 7.20797 45.1431 7.26389 45.0883 6.92382C45.0883 6.75683 44.6604 6.94626 44.407 6.50387C44.6136 6.63472 45.1088 6.70776 45.1347 6.44339C45.1534 6.23379 44.8346 6.4955 44.5786 6.06946C44.8433 6.2239 45.1534 6.1018 45.2005 5.90742C45.234 5.77238 45.3112 5.39351 44.9536 4.88302C44.5911 4.36265 43.8684 4.08382 43.1331 4.21924C42.6823 4.30216 42.235 4.5692 41.9109 5.16755C41.8945 5.19913 41.7386 5.47719 42.3065 5.68184C42.0832 5.79824 41.8538 5.71189 41.7298 5.65027C41.6735 5.62136 41.5936 5.78569 41.5936 5.85264C41.5936 5.95382 41.8466 6.06946 42.1163 6.03675C41.8778 6.28248 41.5663 6.07821 41.4438 6.1676Z" fill="#EB008C"/>
<path id="Caminho 9870" d="M4.99746 23.1133C5.01953 23.1384 5.12337 23.5656 5.44975 23.9288C5.97621 24.5207 6.82524 24.7444 7.81997 24.1012C8.33768 23.7649 8.95392 23.1517 8.7485 22.141C8.67547 22.1155 8.47424 22.354 8.12086 22.0839C8.34148 22.0904 8.75839 21.8842 8.56515 21.6857C8.44153 21.5624 8.17906 22.0105 7.74617 21.7792C8.08358 21.7762 8.56401 21.424 8.28747 21.2026C8.17487 21.0751 7.97935 21.5118 7.48294 21.3467C7.73096 21.3076 8.1589 21.0261 7.99647 20.8066C7.86866 20.6324 7.80361 21.0504 7.31975 20.8983C7.62597 20.8401 7.77926 20.5316 7.68303 20.3501C7.61722 20.2257 7.36844 19.6783 6.53044 19.6783C5.90736 19.6783 4.24885 20.255 4.67337 22.0318C4.68288 22.0691 4.75401 22.3867 5.32308 22.1566C5.23521 22.3966 5.00089 22.486 4.86509 22.5237C4.80156 22.5393 4.85139 22.7219 4.89818 22.7724C4.96703 22.85 5.23787 22.7629 5.4216 22.5549C5.40753 22.906 5.03094 22.9615 4.99746 23.1133Z" fill="#EB008C"/>
<path id="Caminho 9871" d="M37.4546 7.16194C37.8993 7.65644 39.2703 7.79567 39.9386 7.21671C40.4259 6.79638 40.8261 6.06793 40.8477 4.73618C40.4902 4.94007 39.8751 5.0306 39.7031 4.50604C40.1539 4.60495 40.9124 4.56196 40.8378 4.21923C40.823 4.16141 40.8086 4.09674 40.7348 4.11652C40.3251 4.23901 39.7225 4.46154 39.5015 3.92138C39.9298 4.08914 40.683 3.89666 40.7283 3.73461C40.7485 3.66386 40.726 3.48051 40.629 3.48051C40.4852 3.48051 39.6617 3.96056 39.4342 3.45122C40.1425 3.38846 40.3509 3.39682 40.486 3.22907C40.5575 3.13854 40.4852 3.03089 40.4381 2.95899C40.2201 2.62501 39.8941 2.33934 38.8929 2.342C38.1131 2.34542 36.9723 2.89242 36.722 4.39839C36.5516 5.41974 36.7334 6.36007 37.4546 7.16194Z" fill="#EB008C"/>
<path id="Caminho 9872" d="M9.80734 21.9645C10.4563 22.551 13.7505 22.4187 12.6858 18.7844C12.4031 19.0865 11.8432 19.3577 11.5225 18.9069C11.9824 18.8666 12.6953 18.6003 12.5195 18.2945C12.4906 18.2427 12.4564 18.1853 12.3917 18.2287C12.0357 18.4668 11.5263 18.8597 11.1562 18.4097C11.6153 18.4417 12.2768 18.0347 12.2708 17.865C12.2696 17.7916 12.1954 17.6223 12.1034 17.6505C11.9623 17.6938 11.3202 18.3979 10.9527 17.9784C11.6074 17.7094 11.7637 17.6695 11.8432 17.4667C11.8847 17.3606 11.7911 17.1986 11.7257 17.1438C11.416 16.8908 10.9493 16.938 10.4266 17.0616C9.6666 17.24 8.43565 18.1792 8.64525 19.6897C8.786 20.7172 9.00852 21.2417 9.80734 21.9645Z" fill="#EB008C"/>
<path id="Caminho 9873" d="M7.62206 35.9351C7.2565 36.4597 6.44437 36.8477 6.34204 36.974C7.14162 37.0185 7.38545 37.4837 7.8986 37.7024C7.78068 37.3106 8.07662 36.4323 8.24057 35.9522C8.46158 35.3071 7.8522 35.603 7.62206 35.9351Z" fill="#EB008C"/>
<path id="Caminho 9874" d="M18.5103 21.6096C18.4224 21.5419 18.2942 21.6176 18.2942 21.6176C18.2048 21.7016 18.3444 21.8698 18.4486 21.858C18.546 21.8781 18.6388 21.7142 18.5103 21.6096Z" fill="#EB008C"/>
<path id="Caminho 9875" d="M19.4856 18.9541C19.5317 18.3105 19.462 16.9316 19.0322 16.1084C18.6366 15.3533 17.8363 14.715 16.595 14.6572C13.2818 14.5107 13.4663 18.1005 13.515 18.4611C13.9205 21.4441 15.9739 22.7668 16.5505 22.8573C16.9199 22.914 17.9785 23.0364 17.9371 22.1566C17.9454 21.5693 17.2432 21.4586 17.2432 21.3924C17.2432 21.3186 17.2432 21.2524 17.1786 21.2056C16.9777 21.0276 16.5821 21.1067 16.444 20.5068C16.5201 20.5548 16.5836 20.8032 16.7632 20.7374C16.816 20.7168 16.8294 20.7115 16.8453 20.6541C16.8708 20.5647 16.6297 20.5993 16.4969 20.1466C16.581 20.3045 16.983 20.5464 17.0953 20.4878C17.1238 20.473 17.2162 20.3794 17.1565 20.3345C16.9511 20.1854 16.8016 20.3463 16.6308 19.7932C16.7689 19.9484 17.1565 20.2265 17.271 20.1698C17.3223 20.1436 17.4003 20.1093 17.3874 20.0386C17.3703 19.9568 16.9343 19.9081 16.7875 19.3158C16.8708 19.4726 17.3703 19.8921 17.5342 19.8507C17.6137 19.8294 17.6723 19.7757 17.6495 19.6696C17.621 19.5414 17.2311 19.6449 16.9511 18.8982C17.0953 19.0743 17.6651 19.4882 17.8142 19.4064C17.8998 19.3573 17.9835 19.2786 17.9036 19.1683C17.8347 19.0686 17.3045 19.1523 17.1154 18.5273C17.2919 18.7171 17.9051 18.9708 18.163 18.8765C18.33 18.8156 18.3696 18.4063 18.3749 18.2013C18.4103 18.2085 18.7625 18.9971 18.7439 19.3778C18.7241 19.7221 18.5643 20.4068 18.4163 20.7168C18.3848 20.7845 18.2646 20.7876 18.2459 20.8861C18.2562 20.9934 18.4148 21.0622 18.4221 21.1653C18.3205 21.349 18.543 21.5693 18.7309 21.5061C18.8789 21.4373 18.8188 21.2501 18.7811 21.1067C18.9721 21.0086 18.92 20.9279 18.9896 20.772L19.0037 20.7054C19.0489 20.6464 19.1003 20.5548 19.1174 20.489C19.1904 20.2303 19.2954 19.9789 19.3533 19.7172C19.4115 19.4535 19.4655 19.2238 19.4856 18.9541ZM14.1932 17.6908C14.1967 16.6329 14.7239 15.6146 15.3565 15.6417C15.4638 15.6477 15.5547 15.7797 15.4554 15.7949C14.9373 15.8771 14.3214 17.0354 14.1932 17.6908Z" fill="#EB008C"/>
<path id="Caminho 9876" d="M44.4435 11.5045C39.71 8.78053 38.4197 10.5771 35.3613 10.6095C33.2486 10.6323 31.1086 11.9446 31.1173 12.9276C31.0895 13.1828 31.2805 13.0641 31.3801 13.0607C31.5681 13.0535 31.6483 13.1931 31.6483 13.2281C31.5483 13.4274 31.0781 13.2585 31.0709 13.5605C31.0682 13.7637 31.3372 13.7507 31.5821 13.7325C31.5361 13.9854 31.0709 13.7838 31.0625 14.0394C31.0462 14.3647 31.4285 14.1014 31.6069 14.2764C31.7777 14.4415 31.5681 14.5484 31.3471 14.5385C31.239 14.5324 31.0245 14.5979 31.0709 14.8272C31.1097 15.0227 31.5681 14.9741 31.7297 14.9056C31.584 15.2483 31.1196 15.1361 31.1131 15.3088C31.0994 15.6375 31.5346 15.4674 31.7704 15.4149C31.7419 15.7489 31.1504 15.6359 31.2204 15.9581C31.271 16.1864 31.616 16.1259 31.8488 16.0232C31.7849 16.348 31.2341 16.2354 31.282 16.4911C31.3083 16.6261 31.8515 16.5831 31.8515 16.5831C31.7849 16.9194 31.476 16.6725 31.3786 16.908C31.3083 17.078 31.7172 17.1206 31.8153 17.1206V17.1879C31.6833 17.3549 31.4117 17.2446 31.3094 17.3949C31.1527 17.6292 31.6746 17.6969 31.7799 17.5577C31.7476 17.9773 31.3512 17.7448 31.2892 17.9232C31.2307 18.1005 31.4817 18.266 31.5738 18.1986C31.4946 18.3318 31.3227 18.2743 31.2881 18.3763C31.2307 18.5459 31.5954 18.595 31.6483 18.6038C32.6236 18.773 32.4011 18.9602 33.7344 18.8742C34.8516 18.8019 39.0781 19.934 38.0849 17.4268C38.5958 17.7387 38.651 18.9199 38.304 19.1854C37.7601 19.6038 38.0248 20.7849 38.0849 20.907C37.6014 20.4669 37.5482 19.3782 37.9107 19.0073C36.9072 19.659 36.248 19.0808 35.2312 19.7145C34.8953 19.9241 34.6614 20.4296 34.6751 20.9428C34.1079 20.1181 34.6675 19.8697 34.7173 19.7038C34.9923 18.7917 33.0132 19.2999 32.6305 19.2675C32.3536 19.2447 32.0139 19.0808 31.8009 19.0865C31.5624 19.0952 31.4946 19.4345 31.4946 19.5954C31.5121 22.397 33.1497 21.8162 33.9809 27.2124C34.1407 28.2398 35.4751 28.1333 35.8779 27.7902C35.5766 28.2588 35.1711 28.5015 34.7611 28.4281C34.2517 28.3364 34.5127 29.0044 34.5697 29.3087C34.6108 29.5434 34.5743 30.4328 34.3019 30.8204C34.2053 30.9573 33.8983 31.1551 33.9311 31.3571C34.1034 33.0054 35.7725 30.8714 38.2363 31.0463C39.7476 31.1551 40.8207 32.5683 41.6952 32.4492C41.2026 32.9426 39.4113 31.7695 38.4064 31.7531C36.951 31.7292 35.7611 32.3454 34.4849 33.1876C32.7009 34.3645 32.5913 36.9299 32.8017 37.4582C33.0132 37.9843 34.2236 38.2513 34.6998 37.6572C34.348 38.7215 32.6682 38.8166 32.2843 39.5492C31.9028 40.2849 30.3927 44.1866 31.9504 47.0376C33.5647 49.9902 38.1602 48.4816 39.0009 47.8768C44.2884 45.451 46.6829 33.2005 46.8853 32.4664C47.1846 31.38 46.0279 29.9485 44.9822 29.753C46.2466 29.4829 47.1314 30.3152 47.5951 30.1479C48.0755 29.9748 49.2901 25.8532 48.6107 23.235C48.3966 22.4073 46.9553 22.0908 46.9553 22.0908C46.8545 22.0569 46.6844 22.041 46.5521 22.0569C46.4163 22.0756 46.3531 22.1962 46.2493 22.2566C46.1203 22.3342 45.7601 22.5796 45.3915 22.6214C45.169 22.6462 44.9057 22.828 44.8399 23.0669C44.741 23.3347 45.148 24.0985 45.4744 24.2739C44.687 24.248 44.7596 23.2381 44.1008 23.1331C43.9334 23.1072 43.6984 23.4191 43.4614 23.2529C44.5299 22.8504 43.4526 21.4023 43.2742 20.9451C43.1989 20.7495 43.1095 20.4513 43.0616 20.2448C42.9946 19.9595 42.6591 19.7742 42.5933 19.7407C42.4225 19.6742 42.1829 20.2718 41.8166 20.3106C41.5952 20.3376 41.1642 20.4159 41.0809 20.8169C40.8275 20.4692 41.2551 20.0348 41.6652 20.0192C42.0376 20.0028 42.4366 19.4513 42.0193 19.0344C42.0018 18.9975 40.8184 17.8536 40.629 17.6767C40.5035 17.5584 40.1972 17.4968 39.8484 17.6999C39.7092 17.7802 39.4471 17.9073 39.3311 17.8563C39.0336 17.7243 38.9032 17.8924 38.9032 17.8924C38.8799 17.5759 39.5844 17.7707 39.4798 17.5603C39.3573 17.3131 38.0914 16.6246 37.7468 17.0677C37.7878 16.3028 39.0412 16.876 39.414 17.043C39.7145 17.1438 40.241 17.4827 40.4095 17.221C40.5795 16.9608 40.327 16.8319 40.3121 16.4823C40.292 15.9513 39.9602 15.5431 39.6601 15.2194C39.4273 14.9695 39.0036 14.4651 39.2333 13.5605C39.2999 14.3746 39.6487 14.8208 39.807 15.0049C40.1854 15.4423 40.3011 15.2521 40.5476 15.8775C40.6081 16.0346 40.6712 16.4165 40.8835 16.4492C41.1155 16.4857 41.2863 15.9452 41.5202 15.4408C41.688 15.0372 42.2243 14.5686 42.2586 14.6017C42.1901 14.6017 41.8694 15.0669 41.7207 15.4769C41.5724 15.8843 41.7207 16.1304 41.3879 16.5158C41.3365 16.5747 41.0854 16.7843 41.0174 16.852C40.6111 17.6452 41.9025 18.3177 42.4225 18.8335C42.4511 18.8335 42.8276 19.3725 43.0285 19.3725C43.0616 19.3725 44.0746 19.0952 44.4234 18.4151C44.6995 17.884 45.2005 17.8791 45.5429 18.0944C44.8848 17.908 44.7197 18.3839 44.3686 18.8537C44.1278 19.1785 43.5534 19.5334 43.194 19.6057C43.4032 19.7833 43.6192 19.7716 43.9007 20.042C44.0555 20.1915 44.3564 20.4342 44.9947 20.6225C45.2408 20.6944 45.4581 21.101 46.2493 21.117C46.5327 21.1227 48.5936 22.0193 48.7001 21.586C48.7933 21.2075 48.4669 20.3897 48.4396 19.8298C48.3277 17.4386 47.3239 13.1615 44.4435 11.5045ZM33.8725 45.7675C34.1395 45.6636 33.8177 46.1966 34.0528 46.3362C34.1121 46.3719 34.0707 46.1308 34.2517 46.0288C34.6253 45.8101 34.2589 46.5716 34.5256 46.6333C34.6325 46.6584 34.5465 46.4111 34.72 46.2631C35.0471 45.9904 34.9554 46.7641 35.0776 46.8132C35.2198 46.871 35.1905 46.6367 35.3948 46.467C35.7661 46.1631 35.5382 46.9889 35.787 46.9752C35.9433 46.9703 35.8802 46.7204 36.1046 46.5385C36.5109 46.2126 36.2807 46.9612 36.6421 46.9227C36.8414 46.8999 36.9361 46.4899 37.0788 46.4294C37.6342 46.1886 37.4204 46.7774 38.3676 46.1277C36.981 48.2339 33.079 47.6869 33.0835 44.7157C33.2201 44.9496 33.4982 45.912 33.8725 45.7675ZM44.3462 13.0873C44.687 13.271 45.1773 13.7138 45.218 14.0444C45.1172 13.8588 44.6562 13.6792 44.2925 13.6115C43.4013 13.4392 43.8334 12.8112 44.3462 13.0873ZM32.1542 16.5831C32.1082 15.8547 32.68 14.9231 31.9865 13.6636C33.044 14.2452 33.0463 16.0102 32.71 16.7048C32.6157 16.9068 32.174 16.9266 32.1542 16.5831ZM32.1672 17.6767C32.039 17.3648 32.3551 17.3576 32.3794 17.2096C32.7971 17.5824 32.295 17.9917 32.1672 17.6767ZM43.8091 29.2471C43.7421 28.8192 42.8067 27.8332 41.5088 27.7301C40.6039 27.6578 40.2961 27.5239 39.9644 27.3623C39.7822 27.2729 39.4988 27.3132 39.3756 27.7948C38.8982 27.2527 40.1052 26.5806 40.0375 26.053C40.1718 26.0069 40.2071 26.1382 40.2235 26.2626C40.2368 26.3896 40.0386 26.6448 40.1387 26.8088C40.3711 27.0032 40.5506 27.1926 41.3879 27.2683C42.2574 27.3459 43.8905 28.0044 43.8091 29.2471ZM41.0748 24.5025C41.5803 24.4949 42.8003 24.7752 42.7554 25.3485C42.5758 24.9666 41.3396 24.7596 40.4673 24.9004C39.6061 25.0388 38.5148 25.0388 37.9777 24.6151C37.7023 24.3975 37.5429 23.9924 36.6847 23.8383C37.3386 23.7139 37.9187 23.9532 38.3371 24.3587C38.1895 23.8067 38.9032 23.6759 38.7031 22.7995C39.1417 23.1993 38.7632 24.0156 38.8682 24.3157C39.0119 24.7364 40.4574 24.5097 41.0748 24.5025ZM44.3302 19.5909C44.7855 19.6555 44.9738 19.0024 45.2393 19.1751C45.5668 19.3904 45.0453 19.9948 44.3302 19.5909Z" fill="#EB008C"/>
<path id="Caminho 9877" d="M34.7139 1.86121C33.7858 1.28606 32.2326 1.3298 31.177 2.01983C31.0648 2.09325 30.9214 2.14536 30.9271 2.27317C30.9313 2.40517 31.0496 2.46984 31.2257 2.49761C30.7453 2.57673 30.8377 2.34811 30.6665 2.38463C30.5992 2.39832 30.5772 2.44701 30.5882 2.51434C30.6179 2.72052 30.9986 2.76084 31.2699 2.84795C30.565 3.13362 30.6787 2.6296 30.4075 2.71709C30.3318 2.74334 30.2424 2.83083 30.2603 2.90805C30.317 3.15949 30.8685 3.37251 31.298 3.35691C30.3775 3.60302 30.3942 3.08227 30.0701 3.21008C29.9837 3.24355 29.9084 3.37098 29.94 3.45733C30.0473 3.72779 30.7042 3.84153 31.2634 3.8168C30.0606 4.33946 30.1272 3.62547 29.7867 3.82555C29.7007 3.87576 29.646 4.01993 29.692 4.10704C29.8483 4.38397 30.525 4.49124 31.2699 4.30827C30.3641 4.98384 29.8369 4.47222 29.5771 4.56922C29.4561 4.61562 29.4504 5.53199 29.4504 5.90325C29.4504 7.47693 30.0222 8.6607 30.2424 8.74591C30.3702 8.79612 30.5095 8.71282 30.5772 8.57854C30.5772 8.51387 30.5772 8.4785 30.5444 8.41079C30.5772 8.27461 30.7145 8.24227 30.7145 8.1099C30.7145 8.04029 29.6581 7.00106 30.5772 5.4909C30.5943 6.00786 31.3885 7.55871 32.7587 7.8402C32.6929 8.17495 31.9888 8.27461 31.7849 8.44236C31.753 8.4785 31.9557 8.98822 31.1504 9.31726C30.9876 9.35796 31.0222 9.54435 31.0462 9.61929C31.1885 10.0202 32.1018 10.1309 32.424 10.121C33.0642 10.1062 35.6813 9.33324 35.9114 4.93173C35.9323 4.56541 35.7528 2.50483 34.7139 1.86121ZM33.7344 2.46603C34.6435 2.27089 34.9965 3.7335 35.0099 4.48059C34.7611 3.3067 34.0246 2.56798 33.7344 2.46603Z" fill="#EB008C"/>
<path id="Caminho 9878" d="M24.7556 54.3632C24.0424 52.9436 23.1709 50.9012 22.716 50.4771C22.2633 50.0564 20.4104 49.5501 19.8258 50.9659C20.2594 48.5824 22.6273 50.0317 22.498 49.595C21.9263 47.6736 20.7726 46.9079 19.7177 46.5153C18.569 46.0862 16.907 45.1646 15.8823 45.6404C15.0047 46.0482 14.7377 47.2327 12.7927 46.7976C14.471 46.7124 14.6224 45.6267 15.5334 45.1505C17.3566 44.1946 19.4682 46.5168 20.073 43.9473C20.1925 43.4387 19.3879 43.4962 19.1293 43.0758C18.8691 42.6543 19.2483 41.8122 18.9467 41.6684C18.5773 41.4923 17.2771 42.3999 16.1626 41.1404C17.3045 41.7174 18.9958 40.7003 19.2324 40.1902C21.1286 36.1029 19.0745 36.1896 19.6592 32.2693C19.6915 32.1673 19.7497 31.6686 19.7177 31.569C18.7013 32.7566 17.2581 32.558 17.2794 33.0453C17.2905 33.2876 17.6119 33.5482 18.1684 33.245C17.4944 34.3398 15.5806 32.4355 14.4866 32.8958C14.2664 32.9871 14.3751 33.302 14.4778 33.4995C14.3036 33.3842 14.1226 33.291 14.021 33.0335C13.9099 32.7592 13.9837 32.3111 13.5942 32.1251C14.0872 32.0422 14.0868 32.4846 14.3911 32.4846C14.8069 32.5493 15.1413 32.4218 16.1143 32.6295C17.0866 32.8357 19.5283 31.5735 19.7151 30.8752C19.8121 30.5191 19.4073 30.8451 19.2529 30.3152C19.4709 30.359 19.6413 30.2273 19.585 30.0877C19.5283 29.9497 19.0361 30.0375 19.1376 29.8291C19.2312 29.8291 19.569 29.7716 19.539 29.618C19.4952 29.3939 19.1582 29.4913 19.0037 29.3277C19.1125 29.3049 19.5603 29.2368 19.5028 29.0991C19.4309 28.9184 18.7371 28.9915 18.906 28.8218C19.0452 28.7807 19.4895 28.8884 19.4735 28.5418C19.4595 28.2615 18.8516 28.4224 18.8721 28.2858C18.8721 28.0519 19.4408 28.2174 19.4066 27.9169C19.3788 27.6894 19.038 27.9207 18.8851 27.6966C19.0186 27.5947 19.3134 27.5844 19.2955 27.3805C19.2757 27.1112 19.1068 27.3177 18.7835 27.0496C18.8736 27.0496 19.3058 27.1112 19.2171 26.8403C19.1194 26.5486 18.7934 26.8419 18.596 26.4691C18.8516 26.4938 19.1654 26.4813 19.049 26.2005C18.9752 26.021 18.747 26.2036 18.4343 25.8654C18.6618 25.9004 18.9307 25.8388 18.8398 25.5915C18.7843 25.4367 18.4716 25.6402 18.2662 25.4648C18.4727 25.4188 18.7572 25.2678 18.6017 25.0959C17.0953 23.429 14.6251 24.48 11.4203 24.7238C7.54788 25.0209 5.14609 27.1017 4.1662 29.6899C4.08138 29.9154 4.14186 30.2433 4.49258 30.3179C4.73032 30.3841 5.28836 30.071 5.41198 29.6499C5.56262 29.9428 5.24956 30.3065 5.53371 30.2776C5.86313 30.2448 5.8171 29.7461 6.28384 29.8378C6.58131 29.8994 6.22716 30.5324 5.91144 30.5891C6.29069 30.7793 6.81373 30.1513 6.92822 29.9668C6.93089 30.3339 6.57826 30.5073 6.70227 30.634C6.84796 30.7588 7.12869 30.0489 7.44708 30.249C7.79133 30.4628 6.99631 30.5648 7.23216 30.7793C7.46914 30.9931 7.68634 30.5027 7.77916 30.634C7.93284 30.8539 7.08761 31.0304 7.34095 31.4906C7.43719 31.1977 7.82671 30.9372 8.01272 31.0821C8.43039 31.4111 7.10244 32.1727 6.73803 32.1799C6.88448 32.0019 7.15418 31.4203 6.90312 31.3537C6.82247 31.7287 6.3816 31.9231 6.2264 31.8052C6.01528 31.647 6.70493 31.3902 6.4573 31.2228C6.13929 31.0106 5.83308 31.7059 5.6775 31.8094C5.77412 31.6112 5.74216 30.8752 6.14842 30.9562C5.50176 30.7203 5.49111 31.4039 5.20239 31.5424C5.33857 31.3164 5.33096 31.0589 5.24423 31.0304C4.95818 30.9425 4.88857 31.3655 4.63599 31.3655C4.6474 31.1844 4.77825 31.065 4.52529 30.9158C4.35564 30.8561 3.94215 30.7188 3.86569 30.8124C2.88162 32.0137 2.95047 35.8819 3.41988 37.2338C3.80255 37.6781 6.48887 36.5023 6.97311 35.9081C7.40257 35.3843 7.6658 35.015 7.90697 34.9073C8.04467 34.8457 8.4612 34.6117 8.37181 34.3907C8.31171 34.245 8.24476 34.2477 7.7647 34.2093C7.0256 34.1492 6.0267 34.0309 5.97154 33.4059C6.38274 33.8239 8.22041 33.808 8.80469 33.5234C9.38974 33.2381 10.3187 32.5207 10.3187 31.8558C10.3187 31.4473 10.1775 31.0981 9.92076 30.9425C9.41408 30.6313 9.0645 28.8146 7.67721 29.0588C9.0858 28.166 9.73817 30.5876 10.2449 30.5058C10.4134 30.4042 10.3517 30.0752 10.3932 29.621C10.4681 28.786 11.1783 28.5586 11.3872 27.7856C11.5351 28.3505 11.3225 28.6533 11.0129 29.473C10.9079 29.753 10.5317 31.2445 11.0532 31.2445C11.9448 31.4229 12.0578 29.3163 14.212 30.0927C12.6238 29.8405 12.4747 30.9383 11.7679 31.3712C12.4367 31.0304 13.0065 30.9143 13.2918 31.4906C12.5945 30.8379 11.4545 32.3731 10.7481 31.5964C10.6781 33.0647 9.59819 33.1959 9.76252 33.808C9.89604 34.2952 10.5667 35.0743 10.9029 35.1188C10.1798 35.568 9.68758 34.0024 9.19536 34.3789C8.95571 34.4976 8.69742 35.4018 8.65824 35.6879C8.50342 36.7887 8.44941 38.0946 9.64764 38.1091C8.88496 38.6119 8.39197 37.7891 8.2246 37.8565C7.8811 37.9854 8.28736 39.1023 7.31318 39.4499C7.76585 38.9855 7.76356 38.556 7.61141 38.3046C7.5106 38.0691 6.89132 37.6035 6.50561 37.4955C5.49681 37.2151 3.81548 37.8595 3.71202 38.739C3.64887 39.2757 6.15755 45.5244 6.65472 45.5815C6.95485 45.6146 7.41969 45.419 7.65021 45.0063C7.79133 44.7583 7.77688 44.0458 8.49087 43.8225C8.03706 44.3136 8.13406 44.9409 8.03706 45.3388C7.85334 46.0828 7.0256 46.2669 7.18385 46.7512C7.35236 47.1882 10.4837 53.7207 16.2086 59.425C17.5978 60.8093 18.8866 61.7466 21.4447 61.7435C22.226 61.7435 24.3266 61.1847 24.9683 59.729C25.3966 58.7632 26.0246 56.9042 24.7556 54.3632ZM18.0444 26.9316C18.3963 27.4505 18.2856 27.8119 18.2338 28.3817C18.1851 28.9527 18.3057 29.0691 18.3818 29.3836C18.4571 29.6971 18.1418 29.6914 18.063 29.6066C17.9843 29.5217 17.7903 28.845 17.8949 28.2904C17.9999 27.7358 18.1022 27.3432 18.0444 26.9316ZM7.01191 32.2967C7.80541 32.1651 7.98913 31.7318 8.36648 31.5321C8.62895 31.3936 8.8899 31.6382 8.41708 32.0608C8.09678 32.3469 7.4718 32.3427 7.01191 32.2967ZM14.0838 37.8188C14.2778 37.0942 14.0001 36.9336 13.5208 36.6803C13.6573 36.6061 14.5912 36.6868 14.6597 37.6503C15.1568 37.5674 15.3429 37.0774 16.5213 37.8763C15.5464 37.5259 15.5205 38.036 14.468 38.1798C13.633 38.2943 12.919 38.9368 12.6086 39.1608C11.9053 39.6713 11.4651 39.9661 10.7127 39.3898C11.4438 39.4903 11.9239 39.2989 12.4907 38.7169C13.334 37.8531 13.7102 37.9482 14.0838 37.8188ZM10.4373 45.357C10.2772 44.074 10.3734 43.8872 11.6462 42.7468C12.6086 41.8867 12.9867 41.3047 12.935 40.4831C13.7121 40.6653 14.239 42.0377 13.6596 42.9031C13.7505 42.3382 13.455 41.5291 13.2176 41.253C12.9833 42.2907 12.5573 42.5958 12.03 43.045C11.5743 43.4303 10.5625 43.9762 10.4373 45.357ZM19.5443 60.6084C19.1582 60.5384 18.6736 60.3741 18.2684 59.8267C18.6736 60.0565 19.1506 59.9827 19.1582 60.0995C19.1692 60.2467 19.3134 60.2315 19.4496 60.0995C19.5028 60.0462 19.4663 59.9412 19.5443 59.9427C19.6949 59.9443 19.6732 60.3163 19.8516 60.2996C20.0084 60.2862 19.9532 59.9412 20.0456 59.9298C20.1662 59.9138 20.21 60.3292 20.3644 60.3064C20.6189 60.2661 20.4123 59.8754 20.5097 59.8522C20.6493 59.8165 20.7307 60.2467 20.9209 60.2235C21.1366 60.1957 20.9688 59.9462 20.9555 59.8096C20.9449 59.7415 21.0023 59.6365 21.1039 59.6685C21.3709 59.7457 21.3085 60.2162 21.5349 60.0922C21.6216 60.0447 21.4873 59.6411 21.4873 59.5388C21.4873 59.5068 21.5421 59.4444 21.5877 59.425C21.6197 59.4113 21.7505 59.5171 21.913 59.7792C21.9864 59.9001 22.3421 59.8165 22.22 59.6571C22.0134 59.3942 21.9221 59.1652 21.9605 59.1356C21.9746 59.1253 22.0092 59.1124 22.0271 59.1032C22.1895 59.0302 22.4242 59.5422 22.5425 59.5171C22.6388 59.4962 22.8267 59.4513 22.7209 59.263C22.6829 59.1964 22.2854 58.8837 22.3341 58.7529C22.3394 58.7388 22.3421 58.6544 22.4588 58.6639C22.6106 58.6741 22.7076 58.9834 22.9587 59.0492C23.1766 59.1082 23.2778 58.9788 23.2299 58.8468C23.1641 58.6639 22.5965 58.5033 22.6323 58.3204C22.6372 58.2949 22.6228 58.2044 22.7088 58.1929C22.9674 58.1583 23.1553 58.565 23.4585 58.5003C23.4996 58.49 23.5304 58.4227 23.5426 58.3835C23.608 58.1367 22.8198 58.0807 22.9229 57.7719C23.0131 57.5071 23.4908 58.0313 23.6818 57.8909C23.8035 57.8019 23.7598 57.6482 23.7373 57.6033C23.6156 57.358 23.0751 57.5219 23.147 57.188C23.2113 56.8848 23.6491 57.2831 23.7491 57.1088C23.8096 57.0012 23.84 56.954 23.7613 56.849C23.5711 56.5888 23.2987 56.7102 23.3056 56.5717C23.3079 56.4968 23.3208 56.4192 23.395 56.4306C23.6209 56.4645 23.8195 56.4827 23.8107 56.2986C23.802 55.9582 23.4471 56.1837 23.395 55.9787C23.3923 55.9722 23.3695 55.9106 23.4007 55.9083C23.5426 55.8893 23.8077 55.9064 23.7746 55.6044C23.7411 55.3012 23.4326 55.5253 23.4326 55.2468C23.4326 55.1787 23.6525 55.1415 23.6266 54.9939C23.5901 54.7713 23.6095 54.7025 23.325 54.1547C23.6126 54.4647 23.896 54.583 24.174 55.9467C24.4068 57.0967 24.1607 61.4757 19.5443 60.6084Z" fill="#EB008C"/>
</g>
</g>
</svg>
