<svg width="160" height="93" viewBox="0 0 160 93" fill="none" xmlns="http://www.w3.org/2000/svg">
<g clip-path="url(#clip0_603_13950)">
<path d="M26.0259 28.9796C26.0259 31.1175 25.6814 32.9515 25.0021 34.4421C24.3627 35.8595 23.4152 37.116 22.2289 38.1199C20.9908 39.1271 19.559 39.8685 18.0225 40.298C14.998 41.1807 11.4523 41.4149 8.0558 40.2684C6.58815 39.7854 5.19682 39.0953 3.92388 38.2188C2.82392 37.4768 1.86576 36.5434 1.0949 35.4627C0.525529 34.7182 0.209262 33.8106 0.192436 32.8731C0.180389 32.5189 0.240134 32.166 0.368064 31.8356C0.495993 31.5052 0.689456 31.2042 0.936773 30.9508C1.16575 30.6954 1.44749 30.4929 1.76245 30.3575C2.0774 30.222 2.41802 30.1568 2.76066 30.1664C3.2407 30.1584 3.70723 30.3256 4.07308 30.6369C4.77029 31.2155 5.50626 31.853 6.269 32.5491C7.18152 33.3764 8.17275 34.1123 9.2285 34.7462C10.5823 35.528 12.1236 35.9248 13.6862 35.8936C14.797 35.9204 15.8962 35.6608 16.878 35.1396C17.6754 34.7043 18.3833 34.1216 18.964 33.4223C19.4749 32.79 19.8713 32.0731 20.1353 31.304C20.368 30.6654 20.4938 29.9927 20.5076 29.313C20.5225 28.4692 20.3391 27.6336 19.9721 26.8738C19.6052 26.1139 19.065 25.4511 18.3951 24.9388C17.2878 24.0667 16.0421 23.3871 14.7099 22.9283L10.235 21.4866C9.00889 21.0822 7.81698 20.5805 6.67059 19.9862C5.66259 19.4691 4.73477 18.8085 3.91607 18.0248C3.1714 17.2995 2.56853 16.4413 2.13848 15.4944C1.69854 14.4836 1.4822 13.3895 1.5043 12.2871C1.5043 10.453 1.81107 8.86388 2.42461 7.56961C2.98738 6.3237 3.83164 5.22581 4.89076 4.36256C6.00168 3.47941 7.27678 2.82609 8.64201 2.44056C10.1797 2.00343 11.7712 1.78552 13.3696 1.79329C14.9666 1.77549 16.5581 1.98363 18.097 2.41152C19.3713 2.76355 20.5855 3.30557 21.6987 4.01937C22.5336 4.55252 23.2547 5.24612 23.8202 6.06005C24.2059 6.59552 24.4231 7.23418 24.4438 7.89408C24.4438 8.82618 24.2764 9.49272 23.9975 9.73705C23.1888 10.4332 22.2668 10.3843 21.4293 10.0216C21.0965 9.89907 20.7946 9.70479 20.545 9.45251C20.2192 9.11938 19.8285 8.73655 19.3631 8.33556C18.8435 7.88156 18.2898 7.46836 17.7068 7.09965C17.0656 6.69918 16.3859 6.36409 15.6779 6.09942C14.8889 5.806 14.0538 5.65639 13.2121 5.65766C11.6675 5.6486 10.1749 6.21503 9.02436 7.24681C8.38718 7.78118 7.87699 8.45104 7.5309 9.20768C7.18481 9.96431 7.01153 10.7887 7.02366 11.6208C7.02419 12.1885 7.10551 12.7532 7.26517 13.2979C7.46517 13.9621 7.82285 14.5679 8.30763 15.0635C8.78067 15.5459 9.31963 15.9586 9.90841 16.2894C10.6514 16.7048 11.4378 17.037 12.2535 17.2798L16.9616 18.7897C18.2585 19.1884 19.5167 19.7036 20.721 20.3291C21.7694 20.8738 22.7243 21.5824 23.5499 22.4282C24.3224 23.2358 24.9379 24.1805 25.3649 25.2138C25.832 26.4129 26.0568 27.6929 26.0259 28.9796Z" fill="#909295"/>
<path d="M34.5493 4.31817C34.5584 4.65837 34.496 4.99669 34.3663 5.31126C34.2366 5.62583 34.0425 5.90966 33.7964 6.14439C33.5618 6.39077 33.2782 6.58516 32.964 6.71502C32.6497 6.84488 32.3118 6.90733 31.9719 6.89833C31.639 6.90922 31.3076 6.84924 30.9996 6.72235C30.6916 6.59547 30.414 6.40456 30.1851 6.16226C29.9422 5.9221 29.7514 5.63424 29.6249 5.31674C29.4984 4.99924 29.4389 4.65898 29.45 4.31733C29.4384 3.98351 29.497 3.65098 29.6219 3.34125C29.7468 3.03152 29.9353 2.75151 30.1751 2.51932C30.407 2.27921 30.6866 2.09052 30.996 1.96545C31.3053 1.84039 31.6374 1.78174 31.9708 1.7933C32.3118 1.78428 32.6511 1.8449 32.968 1.97145C33.2849 2.09799 33.5727 2.28783 33.8139 2.52937C34.0542 2.75982 34.2437 3.03802 34.3703 3.34612C34.4969 3.65421 34.5578 3.98541 34.5491 4.31845" fill="#909295"/>
<path d="M34.5493 13.1968V38.6556C34.5504 39.0265 34.4601 39.392 34.2866 39.7197C34.113 40.0475 33.8615 40.3273 33.5542 40.5346C33.2469 40.7419 32.8934 40.8701 32.5249 40.9081C32.1563 40.946 31.7841 40.8924 31.4412 40.7521C31.1758 40.6382 30.9331 40.4774 30.7247 40.2774C30.3099 39.84 30.0801 39.259 30.0833 38.6558V13.1968C30.0816 12.9064 30.1374 12.6184 30.2476 12.3497C30.3578 12.081 30.5202 11.8368 30.7253 11.6314C30.9305 11.426 31.1743 11.2634 31.4426 11.153C31.711 11.0426 31.9986 10.9866 32.2887 10.9884C32.5984 10.9859 32.9055 11.0461 33.1914 11.1654C33.4565 11.276 33.6993 11.4338 33.9082 11.6312C34.1078 11.8401 34.2684 12.0831 34.3823 12.3488C34.4957 12.617 34.5524 12.9057 34.5493 13.1968Z" fill="#909295"/>
<path d="M60.4084 32.0954C60.445 33.4426 60.1661 34.7797 59.594 35.9997C59.0641 37.066 58.2937 37.9943 57.3438 38.7111C56.3015 39.493 55.1249 40.0769 53.8722 40.4337C52.4366 40.8508 50.9481 41.0569 49.4533 41.0455C48.2091 41.019 46.9736 40.8306 45.7779 40.4851C44.4294 40.1167 43.1329 39.5788 41.9193 38.8842C40.8487 38.2877 39.8853 37.516 39.0689 36.6012C38.5197 36.0274 38.2104 35.2652 38.2043 34.4706C38.2043 33.8077 38.3064 32.9415 38.7643 32.5031C38.9068 32.3601 39.3547 31.932 40.5668 31.932C41.0293 31.942 41.4774 32.095 41.8496 32.3701C42.5565 32.8479 43.2333 33.3689 43.876 33.9303C44.634 34.5823 45.4252 35.1947 46.2465 35.7648C48.2218 37.1412 50.7262 37.2334 52.9458 36.2443C53.6371 35.956 54.2261 35.4665 54.6364 34.8392C55.0467 34.2119 55.2595 33.4757 55.2471 32.7259C55.2471 31.2686 54.4941 30.0245 53.119 29.2092C52.0941 28.6318 51.0084 28.1703 49.8817 27.8331C48.7511 27.4866 47.5193 27.1093 46.1756 26.722C45.0675 26.4083 44.011 25.9342 43.0396 25.3149C42.1604 24.7573 41.4078 24.0211 40.8306 23.1539C40.3213 22.379 40.057 21.2883 40.057 19.8918C40.0431 18.7861 40.2186 17.6862 40.576 16.6398C40.8807 15.7496 41.3937 14.9454 42.0722 14.2942C42.8355 13.5719 43.7406 13.0164 44.7299 12.6632C46.0482 12.2213 47.4329 12.0109 48.8228 12.0413C50.2291 12.0315 51.6322 12.1784 53.006 12.4795C54.0787 12.7107 55.1137 13.0916 56.0807 13.6109C56.7394 13.9471 57.3137 14.4281 57.7604 15.018C58.0596 15.4023 58.221 15.8761 58.2186 16.3634C58.2218 16.6056 58.1746 16.8458 58.08 17.0688C57.9854 17.2917 57.8454 17.4925 57.6689 17.6582C57.5073 17.8364 57.3087 17.977 57.0871 18.0703C56.8656 18.1636 56.6263 18.2072 56.3861 18.1983C55.8759 18.2195 55.3668 18.1363 54.8899 17.9539C54.3583 17.7132 53.8415 17.4409 53.3424 17.1385C52.772 16.7915 52.2221 16.4754 51.6827 16.1699C50.8036 15.6997 49.8183 15.4645 48.8219 15.4869C47.9747 15.4747 47.1486 15.7515 46.4793 16.2718C46.0961 16.5816 45.7886 16.975 45.5804 17.422C45.3723 17.869 45.2689 18.3577 45.2782 18.8508C45.2597 19.6106 45.448 20.3611 45.8228 21.0219C46.1977 21.6828 46.7449 22.2291 47.4061 22.6024C48.4348 23.1897 49.5331 23.6454 50.6751 23.9589C51.7951 24.2954 53.0177 24.6422 54.3301 25.0092C55.4259 25.3157 56.4742 25.772 57.4455 26.3651C58.3214 26.914 59.0599 27.6568 59.6041 28.5362C60.1435 29.3739 60.4084 30.5746 60.4084 32.0943" fill="#909295"/>
<path d="M64.4064 4.76148C64.3969 4.13485 64.5157 3.51291 64.7555 2.93405C64.9953 2.35518 65.3511 1.83167 65.8008 1.39582C66.2362 0.94552 66.7592 0.589357 67.3374 0.349317C67.9156 0.109277 68.5369 -0.00954507 69.1628 0.000186726H79.9301C81.8835 -0.0100608 83.8182 0.381121 85.6146 1.14953C89.1403 2.63651 91.9454 5.44521 93.4305 8.97546C94.2016 10.7922 94.5923 12.748 94.5784 14.7219C94.5942 16.6871 94.2034 18.6342 93.4305 20.4407C91.9332 23.9563 89.1309 26.7523 85.6146 28.2393C83.8183 29.0079 81.8835 29.3992 79.9301 29.3889H73.9715V36.2302C73.9781 36.8644 73.8583 37.4935 73.6189 38.0807C73.3796 38.6679 73.0257 39.2013 72.5778 39.6498C72.13 40.0983 71.5972 40.4527 71.0108 40.6924C70.4244 40.9321 69.7961 41.0522 69.1628 41.0457C68.5369 41.0553 67.9158 40.9363 67.3376 40.6962C66.7595 40.4561 66.2367 40.0998 65.8014 39.6495C65.3479 39.205 64.9902 38.6722 64.7504 38.0839C64.5105 37.4956 64.3937 36.8644 64.407 36.2291L64.4064 4.76148ZM73.9721 8.86628V20.5242H79.219C79.9827 20.5259 80.739 20.3742 81.4431 20.0781C82.1473 19.782 82.785 19.3476 83.3185 18.8005C83.8323 18.266 84.2485 17.6454 84.5481 16.967C84.8605 16.2606 85.0189 15.4958 85.0127 14.7233C85.0169 13.9421 84.8587 13.1686 84.5481 12.452C84.253 11.7629 83.8365 11.1326 83.3185 10.5911C82.7849 10.0441 82.1471 9.60979 81.443 9.31373C80.7389 9.01767 79.9826 8.8659 79.219 8.8674L73.9721 8.86628Z" fill="#747477"/>
<path d="M99.5782 1.39647C100.013 0.94618 100.536 0.58998 101.114 0.349848C101.693 0.109717 102.314 -0.009253 102.94 0.000280296C103.574 -0.0129781 104.204 0.104069 104.792 0.3442C105.379 0.584331 105.912 0.942453 106.356 1.39647C106.805 1.83234 107.161 2.35586 107.401 2.93472C107.641 3.51358 107.759 4.13551 107.75 4.76213V36.2295C107.757 36.8638 107.637 37.4931 107.398 38.0804C107.158 38.6678 106.804 39.2014 106.356 39.6499C105.908 40.0985 105.375 40.453 104.789 40.6926C104.202 40.9322 103.574 41.0522 102.94 41.0455C102.314 41.055 101.693 40.9361 101.115 40.6959C100.537 40.4558 100.014 40.0996 99.5787 39.6493C99.1252 39.2048 98.7675 38.672 98.5277 38.0837C98.2879 37.4954 98.171 36.8642 98.1843 36.2289V4.76129C98.1748 4.13467 98.2936 3.51274 98.5334 2.93388C98.7733 2.35502 99.129 1.8315 99.5787 1.39563" fill="#747477"/>
<path d="M158.308 35.1348C158.379 35.3086 158.416 35.4944 158.417 35.6821V36.2294C158.412 36.7698 158.32 37.3057 158.144 37.8166C157.952 38.381 157.666 38.9084 157.297 39.3762C156.877 39.9212 156.333 40.3574 155.71 40.6479C155.087 40.9384 154.403 41.0747 153.717 41.0455C152.65 41.0275 151.617 40.6667 150.771 40.0163C149.924 39.3659 149.309 38.4604 149.016 37.4332L144.972 21.1793L138.905 37.9261C138.622 38.8072 138.102 39.593 137.402 40.1971C136.689 40.7472 135.815 41.0454 134.915 41.0454C134.015 41.0454 133.141 40.7472 132.428 40.1971C131.728 39.5932 131.208 38.8073 130.925 37.9261L124.857 21.1793L120.758 37.4332C120.48 38.4707 119.865 39.3856 119.009 40.0329C118.186 40.6901 117.165 41.0472 116.112 41.0455C115.485 41.0463 114.864 40.9206 114.287 40.6759C113.709 40.4312 113.187 40.0726 112.751 39.6213C112.33 39.1816 111.988 38.6725 111.739 38.1165C111.32 37.1786 111.242 36.1229 111.521 35.1337L119.391 3.6119C119.653 2.60172 120.216 1.69513 121.004 1.01247C121.839 0.319536 122.899 -0.0408649 123.983 0.000235042C124.945 0.00553877 125.881 0.311711 126.66 0.875926C127.482 1.43929 128.112 2.2415 128.464 3.17434L134.914 20.906L141.363 3.17434C141.715 2.24128 142.345 1.43897 143.167 0.875926C143.947 0.311249 144.883 0.00504247 145.846 0.000235042C146.929 -0.0407869 147.99 0.319714 148.825 1.01275C149.612 1.69581 150.175 2.60225 150.437 3.61218L158.308 35.1348Z" fill="#747477"/>
<path d="M7.26343 73.8029C7.06723 74.2178 6.77794 74.5817 6.41814 74.8662C6.04847 75.1527 5.62528 75.3623 5.17349 75.4825C4.68191 75.6153 4.1747 75.681 3.66557 75.678C3.21773 75.677 2.77278 75.6062 2.34674 75.468C1.93072 75.3383 1.53465 75.1515 1.16985 74.9129C0.844295 74.7025 0.55818 74.4366 0.324563 74.1271C0.119417 73.8662 0.00538349 73.5452 -5.59053e-05 73.2131C-0.00283259 73.0632 0.0251362 72.9143 0.082122 72.7756C0.139108 72.6368 0.223899 72.5113 0.331256 72.4067C0.435631 72.2992 0.560902 72.2143 0.699332 72.1572C0.837763 72.1001 0.986415 72.072 1.13611 72.0747C1.36437 72.0727 1.58638 72.1493 1.76499 72.2917C1.94961 72.4359 2.14353 72.5961 2.34674 72.7722C2.55804 72.9546 2.78681 73.1157 3.02972 73.2531C3.30742 73.404 3.61997 73.4788 3.93581 73.4701C4.14179 73.4764 4.3462 73.4322 4.53122 73.3413C4.68023 73.2659 4.81335 73.1625 4.92333 73.0367C5.01694 72.9288 5.09026 72.8049 5.13974 72.6709C5.18038 72.5671 5.20329 72.4572 5.20751 72.3458C5.20939 72.2117 5.1783 72.0792 5.11697 71.9599C5.05565 71.8407 4.96597 71.7384 4.85584 71.662C4.61374 71.4821 4.34421 71.3426 4.05768 71.2487L2.90785 70.8966C2.57144 70.7909 2.24363 70.6596 1.9273 70.5037C1.62916 70.3596 1.35353 70.1729 1.10906 69.9494C0.875586 69.7345 0.68507 69.4772 0.547669 69.191C0.403322 68.8818 0.331583 68.5435 0.337949 68.2022C0.326304 67.7326 0.423578 67.2666 0.62213 66.8409C0.801773 66.4692 1.06574 66.1446 1.39296 65.8932C1.72838 65.6395 2.10964 65.4532 2.51574 65.3445C2.95196 65.2256 3.40227 65.1664 3.85437 65.1686C4.30617 65.1641 4.75649 65.2211 5.19301 65.3378C5.56221 65.4351 5.91534 65.5856 6.24133 65.7846C6.50925 65.9462 6.74168 66.1605 6.92459 66.4145C7.07804 66.6227 7.16311 66.8735 7.16805 67.1322C7.18844 67.2652 7.17935 67.4012 7.14142 67.5303C7.1035 67.6594 7.03767 67.7787 6.9486 67.8795C6.85953 67.9803 6.7494 68.0603 6.62601 68.1137C6.50263 68.1672 6.36901 68.1928 6.23463 68.1888C6.06546 68.1893 5.89778 68.1571 5.74073 68.0942C5.59716 68.0397 5.46607 67.9568 5.35532 67.8504C5.28318 67.7782 5.19301 67.6969 5.0848 67.6066C4.96996 67.5115 4.8479 67.4254 4.71975 67.3491C4.58262 67.2671 4.43762 67.199 4.28692 67.1459C4.13468 67.0919 3.97433 67.0644 3.81282 67.0646C3.53098 67.0622 3.25754 67.1607 3.04171 67.3422C2.93502 67.4242 2.84891 67.53 2.79023 67.6512C2.73155 67.7724 2.70193 67.9056 2.70371 68.0403C2.70367 68.1299 2.71731 68.2189 2.74414 68.3044C2.77382 68.3944 2.82494 68.4758 2.89307 68.5415C2.98395 68.6275 3.08636 68.7004 3.19733 68.7582C3.359 68.8431 3.52899 68.9112 3.70462 68.9612L4.90855 69.327C5.26712 69.4309 5.61564 69.5669 5.94989 69.7333C6.26115 69.8864 6.54647 70.0875 6.79547 70.3292C7.03555 70.5659 7.22836 70.8464 7.36355 71.1554C7.5102 71.5069 7.58165 71.8852 7.57327 72.266C7.58717 72.7954 7.48075 73.321 7.26204 73.8032" fill="#909295"/>
<path d="M8.3051 65.588C8.40895 65.4821 8.53333 65.3987 8.6706 65.3428C8.80787 65.2869 8.95511 65.2597 9.10326 65.263C9.25235 65.2602 9.40046 65.2876 9.53875 65.3434C9.67704 65.3992 9.80266 65.4824 9.90812 65.588C10.0156 65.691 10.1006 65.8153 10.1576 65.9529C10.2146 66.0905 10.2425 66.2385 10.2394 66.3874C10.24 66.537 10.211 66.6852 10.1541 66.8235C10.0973 66.9618 10.0136 67.0874 9.90797 67.1932C9.80235 67.2989 9.67687 67.3827 9.53875 67.4397C9.40064 67.4966 9.25263 67.5257 9.10326 67.5251C8.95451 67.5281 8.80675 67.5002 8.66935 67.443C8.53195 67.3859 8.40791 67.3007 8.3051 67.193C8.19961 67.0876 8.11648 66.9618 8.0607 66.8234C8.00492 66.685 7.97764 66.5367 7.98049 66.3874C7.97724 66.2391 8.00436 66.0916 8.06019 65.9541C8.11602 65.8166 8.19937 65.692 8.3051 65.588ZM10.1583 74.4451C10.1583 74.6191 10.1154 74.7903 10.0334 74.9436C9.95149 75.0969 9.83299 75.2276 9.68848 75.3241C9.54397 75.4206 9.3779 75.4798 9.20503 75.4966C9.03215 75.5133 8.85782 75.4871 8.69749 75.4202C8.57367 75.3678 8.46109 75.2919 8.3659 75.1968C8.26984 75.0999 8.194 74.9847 8.1428 74.8581C8.08865 74.7272 8.06106 74.5868 8.06164 74.4451V68.9603C8.06131 68.8233 8.08803 68.6875 8.14026 68.5609C8.19249 68.4342 8.26921 68.3191 8.366 68.2222C8.4628 68.1253 8.57776 68.0485 8.70428 67.9963C8.83081 67.944 8.9664 67.9173 9.10326 67.9177C9.24477 67.9172 9.38496 67.9448 9.51573 67.9989C9.6421 68.0503 9.75706 68.1263 9.85402 68.2223C9.94885 68.3176 10.0246 68.4302 10.0771 68.5541C10.1316 68.6825 10.1592 68.8208 10.1583 68.9603V74.4451Z" fill="#909295"/>
<path d="M16.529 74.141C16.3722 74.4547 16.1454 74.728 15.8661 74.9399C15.5756 75.1576 15.2479 75.3206 14.899 75.4207C14.5189 75.5311 14.1248 75.5859 13.7291 75.5832C13.3947 75.5778 13.0626 75.5278 12.7415 75.4344C12.3872 75.3381 12.0464 75.1973 11.7272 75.0155C11.4295 74.8496 11.1619 74.6344 10.9358 74.3792C10.7324 74.1573 10.619 73.8674 10.6179 73.5663C10.6061 73.4201 10.6247 73.2731 10.6725 73.1344C10.7202 72.9958 10.7961 72.8686 10.8953 72.7607C11.1008 72.5767 11.3708 72.4816 11.6461 72.4963C11.8496 72.4981 12.0478 72.562 12.2142 72.6794C12.3955 72.8021 12.5693 72.9355 12.7348 73.0788C12.8988 73.2212 13.0704 73.3546 13.2488 73.4783C13.4167 73.5977 13.6177 73.6616 13.8236 73.661C14.0057 73.6608 14.1856 73.6215 14.3512 73.5459C14.4292 73.5169 14.496 73.464 14.5422 73.3947C14.5883 73.3254 14.6114 73.2432 14.6081 73.16C14.6067 73.0735 14.5813 72.9891 14.5348 72.9161C14.4882 72.8432 14.4224 72.7847 14.3446 72.747C14.1371 72.6298 13.9169 72.5367 13.6883 72.4695C13.4268 72.3883 13.1404 72.3025 12.8294 72.212C12.5261 72.1254 12.2369 71.9954 11.9707 71.8261C11.7096 71.6596 11.4861 71.4404 11.3145 71.1824C11.1259 70.8735 11.034 70.5151 11.0507 70.1535C11.0472 69.84 11.0976 69.5283 11.1996 69.232C11.2968 68.9555 11.4565 68.7053 11.6662 68.5009C11.8926 68.2842 12.1623 68.118 12.4576 68.0134C12.8184 67.8886 13.1985 67.829 13.5801 67.8372C13.9459 67.8341 14.3108 67.8727 14.6678 67.9522C14.9626 68.0163 15.2471 68.1211 15.5131 68.2636C15.7275 68.3776 15.9145 68.5371 16.0611 68.731C16.1886 68.9034 16.2571 69.1124 16.2563 69.3269C16.2572 69.4453 16.2344 69.5626 16.189 69.672C16.1437 69.7813 16.0769 69.8804 15.9925 69.9633C15.9103 70.0506 15.8107 70.1199 15.7003 70.1666C15.5899 70.2132 15.4709 70.2364 15.351 70.2344C15.1633 70.24 14.9766 70.2054 14.8033 70.1328C14.6616 70.0688 14.5238 69.9964 14.3906 69.9161C14.2642 69.8396 14.1396 69.767 14.0185 69.6994C13.8831 69.6284 13.7318 69.5934 13.579 69.5978C13.4884 69.5946 13.3996 69.6233 13.328 69.679C13.2943 69.7068 13.2676 69.7421 13.25 69.7821C13.2324 69.8222 13.2245 69.8657 13.2268 69.9094C13.2227 70.0041 13.2453 70.0981 13.2918 70.1807C13.3384 70.2633 13.4072 70.3311 13.4903 70.3766C13.6971 70.4935 13.9174 70.5844 14.1463 70.6474C14.4079 70.7243 14.6919 70.8056 14.9985 70.8912C15.2988 70.9743 15.5857 71.0996 15.8508 71.2634C16.1161 71.4301 16.3403 71.6548 16.5067 71.9205C16.6966 72.2509 16.7881 72.6287 16.7705 73.0095C16.78 73.4005 16.6965 73.7882 16.5271 74.1407" fill="#909295"/>
<path d="M18.3145 75.1906C18.2145 75.0943 18.1354 74.9785 18.0819 74.8504C18.0284 74.7223 18.0017 74.5845 18.0035 74.4456V69.7732H17.76C17.6369 69.7758 17.5146 69.7531 17.4005 69.7065C17.2865 69.66 17.1833 69.5904 17.0971 69.5023C17.0101 69.4182 16.9412 69.3171 16.8947 69.2053C16.8481 69.0935 16.825 68.9733 16.8266 68.8522C16.8253 68.7291 16.8486 68.607 16.895 68.493C16.9415 68.379 17.0102 68.2755 17.0971 68.1884C17.184 68.1014 17.2875 68.0326 17.4013 67.9861C17.5151 67.9396 17.6371 67.9163 17.76 67.9176H18.0035V66.7258C18.0024 66.5862 18.0301 66.4478 18.0847 66.3193C18.1371 66.1954 18.2128 66.0827 18.3078 65.9875C18.4046 65.8914 18.5195 65.8155 18.6458 65.7641C18.7766 65.7099 18.9169 65.6823 19.0585 65.6829C19.1954 65.6825 19.331 65.7093 19.4575 65.7616C19.584 65.8139 19.6989 65.8907 19.7957 65.9876C19.8925 66.0845 19.9691 66.1996 20.0213 66.3263C20.0735 66.453 20.1002 66.5888 20.0999 66.7258V67.9176H20.6005C20.7214 67.916 20.8414 67.9391 20.9531 67.9857C21.0647 68.0323 21.1657 68.1013 21.2497 68.1885C21.3376 68.2748 21.407 68.3782 21.4535 68.4923C21.5 68.6065 21.5227 68.729 21.5202 68.8522C21.5193 69.0963 21.4221 69.3302 21.2497 69.5028C21.0773 69.6755 20.8437 69.7728 20.5999 69.7737H20.0999V74.4451C20.1018 74.5834 20.0759 74.7206 20.0236 74.8487C19.9713 74.9767 19.8938 75.0928 19.7956 75.1901C19.701 75.2903 19.5867 75.3698 19.4598 75.4234C19.3329 75.477 19.1962 75.5036 19.0585 75.5014C18.9198 75.5032 18.7822 75.4765 18.6543 75.423C18.5263 75.3694 18.4106 75.2902 18.3145 75.1901" fill="#909295"/>
<path d="M24.1986 73.1185C24.2024 73.1513 24.2142 73.1827 24.2331 73.2099C24.2519 73.2371 24.2771 73.2592 24.3065 73.2743C24.3909 73.3303 24.4819 73.3758 24.5773 73.4097C24.6917 73.4524 24.8092 73.4863 24.9287 73.5111C25.0397 73.5364 25.1531 73.5501 25.267 73.5519C25.498 73.5624 25.7286 73.5231 25.9433 73.4368C26.0901 73.3694 26.2286 73.285 26.356 73.1855C26.4676 73.0954 26.5758 73.0116 26.6806 72.9342C26.8066 72.8511 26.9559 72.8108 27.1065 72.8191C27.245 72.8199 27.3815 72.8523 27.5056 72.9141C27.6335 72.9752 27.7501 73.0576 27.8505 73.1579C27.9498 73.2575 28.03 73.3745 28.0873 73.503C28.1456 73.6329 28.1755 73.7738 28.1752 73.9163C28.1739 74.0487 28.1457 74.1794 28.0923 74.3005C28.0388 74.4216 27.9612 74.5305 27.8642 74.6205C27.5391 74.9142 27.1631 75.146 26.7548 75.3044C26.2818 75.4937 25.7763 75.588 25.267 75.5819C24.7528 75.5854 24.2429 75.4889 23.7655 75.2977C23.304 75.1151 22.8836 74.8419 22.5292 74.4941C22.1748 74.1464 21.8934 73.7312 21.7017 73.2729C21.2964 72.2699 21.2964 71.1484 21.7017 70.1454C21.8934 69.6872 22.1748 69.2719 22.5292 68.9242C22.8836 68.5765 23.304 68.3033 23.7655 68.1207C24.2428 67.9294 24.7528 67.8328 25.267 67.8361C25.6735 67.8364 26.0775 67.9003 26.4642 68.0257C26.8403 68.1439 27.1928 68.3273 27.5056 68.5675C27.8022 68.7961 28.0505 69.0815 28.2359 69.4071C28.4234 69.742 28.5191 70.1205 28.5134 70.5043C28.5184 70.7097 28.4695 70.9129 28.3715 71.0935C28.2689 71.2671 28.1084 71.3989 27.9183 71.4657L24.3877 72.942C24.2613 72.9979 24.1986 73.0537 24.1986 73.1182M23.5965 71.3643C23.6303 71.3876 23.6706 71.3995 23.7116 71.3981C23.7578 71.3961 23.8034 71.3866 23.8466 71.3702L26.0381 70.4487C26.1641 70.3945 26.2274 70.3317 26.2274 70.2591C26.2274 70.1597 26.1327 70.0694 25.9433 69.9882C25.7284 69.9022 25.4983 69.8608 25.267 69.8665C25.0295 69.8634 24.7943 69.9118 24.5773 70.0083C24.3808 70.096 24.1984 70.2125 24.0363 70.354C23.8904 70.4797 23.7688 70.6311 23.6776 70.8008C23.5992 70.9371 23.5552 71.0904 23.5493 71.2476C23.5471 71.2692 23.5502 71.291 23.5584 71.3111C23.5666 71.3312 23.5797 71.3489 23.5965 71.3626" fill="#909295"/>
<path d="M35.0939 68.0665C35.473 67.9086 35.8804 67.8303 36.2909 67.8364C36.7141 67.8347 37.1331 67.9202 37.5219 68.0877C38.28 68.4069 38.8841 69.0093 39.206 69.7671C39.3736 70.1539 39.4591 70.5713 39.457 70.9929V74.4451C39.4551 74.7248 39.3433 74.9924 39.1458 75.1901C38.9483 75.3878 38.681 75.4997 38.4017 75.5015C38.264 75.5036 38.1274 75.4771 38.0005 75.4235C37.8736 75.3699 37.7592 75.2904 37.6646 75.1901C37.5665 75.0928 37.489 74.9767 37.4367 74.8487C37.3844 74.7207 37.3585 74.5834 37.3604 74.4451V70.9921C37.3619 70.8526 37.3344 70.7143 37.2797 70.5861C37.225 70.4578 37.1442 70.3424 37.0425 70.2471C36.8421 70.0475 36.571 69.9355 36.2884 69.9355C36.0057 69.9355 35.7346 70.0475 35.5343 70.2471C35.4343 70.3434 35.3552 70.4592 35.3016 70.5873C35.2481 70.7154 35.2213 70.8532 35.223 70.9921V74.4451C35.2237 74.5868 35.1961 74.7272 35.1419 74.8581C35.0908 74.9848 35.0149 75.1 34.9188 75.1968C34.8236 75.2919 34.7112 75.3677 34.5875 75.4202C34.4271 75.4859 34.2531 75.5112 34.0807 75.4939C33.9083 75.4765 33.7427 75.4172 33.5986 75.3209C33.4544 75.2247 33.336 75.0945 33.2537 74.9419C33.1715 74.7892 33.1278 74.6186 33.1267 74.4451V70.9921C33.1284 70.8532 33.1016 70.7154 33.0481 70.5873C32.9945 70.4592 32.9154 70.3434 32.8154 70.2471C32.7171 70.1461 32.5992 70.0664 32.4689 70.0128C32.3386 69.9592 32.1988 69.9329 32.058 69.9354C31.7787 69.9373 31.5114 70.0493 31.314 70.247C31.1165 70.4448 31.0048 70.7124 31.003 70.9921V74.4451C31.0011 74.7247 30.8893 74.9923 30.6919 75.19C30.4944 75.3877 30.2272 75.4996 29.948 75.5015C29.8102 75.5037 29.6735 75.4771 29.5466 75.4235C29.4196 75.3699 29.3052 75.2904 29.2106 75.1901C29.1125 75.0928 29.035 74.9767 28.9827 74.8487C28.9304 74.7207 28.9044 74.5834 28.9063 74.4451V70.9921C28.9039 70.5704 28.9894 70.1529 29.1573 69.7662C29.4788 69.0106 30.0799 68.4088 30.8345 68.0869C31.2207 67.919 31.6376 67.8334 32.0586 67.8356C32.4714 67.8282 32.8814 67.9065 33.2625 68.0657C33.5984 68.2092 33.9092 68.4059 34.1828 68.6481C34.4515 68.403 34.7604 68.2059 35.0959 68.0657" fill="#909295"/>
<path d="M47.5176 74.4451C47.5195 74.5834 47.4936 74.7207 47.4413 74.8487C47.389 74.9767 47.3115 75.0929 47.2133 75.1901C47.1187 75.2904 47.0044 75.3699 46.8775 75.4236C46.7506 75.4772 46.6139 75.5038 46.4762 75.5018C46.2371 75.5035 46.0059 75.4165 45.827 75.2577C45.6563 75.124 45.533 74.9389 45.4753 74.7297C45.448 74.7483 45.3848 74.7979 45.2857 74.8785C45.1567 74.9792 45.0186 75.0676 44.8732 75.1427C44.6689 75.249 44.4539 75.3332 44.2318 75.394C43.9452 75.4706 43.6493 75.5071 43.3527 75.5023C42.9157 75.4994 42.4843 75.4023 42.088 75.2178C41.6671 75.0271 41.2861 74.7583 40.9652 74.4256C40.6283 74.0764 40.3554 73.6705 40.159 73.2265C39.948 72.749 39.842 72.2316 39.848 71.7094C39.8425 71.1853 39.9485 70.6659 40.159 70.1859C40.3529 69.7411 40.6255 69.335 40.9638 68.9874C41.2862 68.6581 41.6669 68.3917 42.0866 68.2019C42.4829 68.0174 42.9143 67.9203 43.3513 67.9174C43.6479 67.9128 43.9438 67.9492 44.2304 68.0257C44.4525 68.0866 44.6675 68.1708 44.8718 68.277C45.0172 68.3521 45.1553 68.4405 45.2843 68.5412C45.3836 68.6225 45.4468 68.6722 45.4739 68.69C45.5316 68.4808 45.6549 68.2956 45.8256 68.1617C46.0046 68.0031 46.2358 67.9163 46.4748 67.9179C46.6117 67.9176 46.7473 67.9444 46.8738 67.9967C47.0003 68.049 47.1152 68.1258 47.212 68.2227C47.3088 68.3196 47.3855 68.4347 47.4377 68.5614C47.4899 68.6881 47.5165 68.8239 47.5162 68.9609L47.5176 74.4451ZM43.0066 70.0977C42.588 70.2729 42.2552 70.6062 42.0802 71.0253C41.9659 71.2912 41.9196 71.5814 41.9455 71.8697C41.9713 72.1581 42.0685 72.4354 42.2283 72.6767C42.388 72.9179 42.6052 73.1156 42.8604 73.2517C43.1155 73.3878 43.4005 73.4582 43.6896 73.4563C43.9221 73.4586 44.1524 73.4126 44.3662 73.3212C44.5706 73.2328 44.7565 73.1064 44.9139 72.9487C45.2406 72.6192 45.4239 72.1737 45.4239 71.7094C45.4239 71.2452 45.2406 70.7997 44.9139 70.4702C44.7563 70.3127 44.5705 70.1863 44.3662 70.0977C44.1524 70.0063 43.9221 69.9602 43.6896 69.9622C43.4552 69.9606 43.2228 70.0067 43.0066 70.0977Z" fill="#909295"/>
<path d="M56.3233 74.8788C56.1943 74.9795 56.0562 75.0679 55.9108 75.1429C55.7065 75.2493 55.4915 75.3335 55.2694 75.3942C54.9828 75.4709 54.6869 75.5073 54.3903 75.5026C53.9533 75.4996 53.5219 75.4026 53.1256 75.218C52.7047 75.0274 52.3237 74.7586 52.0028 74.4258C51.6664 74.0766 51.394 73.6708 51.198 73.2271C50.987 72.7495 50.881 72.2321 50.887 71.71C50.8815 71.1858 50.9875 70.6664 51.198 70.1864C51.3919 69.7416 51.6645 69.3356 52.0028 68.988C52.3252 68.6587 52.7059 68.3923 53.1256 68.2025C53.5219 68.0179 53.9533 67.9209 54.3903 67.9179C54.6715 67.9121 54.9519 67.9486 55.2222 68.0263C55.4231 68.0868 55.6178 68.1662 55.8037 68.2633C55.9342 68.3317 56.0587 68.411 56.1757 68.5004C56.2313 68.5557 56.3019 68.5934 56.3788 68.6088C56.4329 68.6088 56.4599 68.5139 56.4599 68.3242V66.3877C56.4588 66.2481 56.4864 66.1098 56.5411 65.9814C56.5934 65.8574 56.6691 65.7446 56.7642 65.6494C56.8609 65.5532 56.9758 65.4773 57.1022 65.426C57.233 65.3718 57.3733 65.3442 57.5149 65.3447C57.6518 65.3444 57.7874 65.3712 57.9139 65.4235C58.0404 65.4758 58.1553 65.5526 58.2521 65.6495C58.3489 65.7464 58.4256 65.8615 58.4778 65.9882C58.53 66.1149 58.5567 66.2506 58.5563 66.3877V74.4451C58.5583 74.5834 58.5323 74.7207 58.48 74.8487C58.4278 74.9767 58.3502 75.0928 58.252 75.1901C58.1575 75.2904 58.0431 75.3699 57.9162 75.4235C57.7893 75.4772 57.6527 75.5038 57.5149 75.5017C57.2759 75.5034 57.0446 75.4165 56.8657 75.2577C56.695 75.124 56.5717 74.9388 56.514 74.7296C56.4867 74.7483 56.4235 74.7979 56.3244 74.8785M54.0454 70.0977C53.6268 70.2729 53.2939 70.6061 53.1189 71.0253C53.0047 71.2912 52.9584 71.5814 52.9842 71.8697C53.0101 72.158 53.1072 72.4354 53.267 72.6766C53.4267 72.9179 53.644 73.1155 53.8991 73.2517C54.1543 73.3878 54.4392 73.4581 54.7283 73.4563C54.9608 73.4586 55.1911 73.4126 55.4049 73.3212C55.6093 73.2328 55.7952 73.1064 55.9526 72.9487C56.2793 72.6191 56.4626 72.1737 56.4626 71.7094C56.4626 71.2451 56.2793 70.7997 55.9526 70.4702C55.7951 70.3126 55.6092 70.1863 55.4049 70.0977C55.1911 70.0063 54.9608 69.9602 54.7283 69.9622C54.4939 69.9606 54.2615 70.0067 54.0454 70.0977Z" fill="#909295"/>
<path d="M61.8421 73.1185C61.8459 73.1513 61.8577 73.1827 61.8766 73.2099C61.8954 73.2371 61.9206 73.2592 61.95 73.2743C62.0344 73.3303 62.1254 73.3758 62.2208 73.4097C62.3352 73.4524 62.4527 73.4863 62.5722 73.5111C62.6832 73.5364 62.7966 73.5501 62.9105 73.5519C63.1415 73.5624 63.3721 73.5231 63.5868 73.4368C63.7336 73.3694 63.8721 73.285 63.9995 73.1855C64.111 73.0954 64.2193 73.0116 64.3241 72.9342C64.4501 72.8511 64.5994 72.8108 64.75 72.8191C64.8885 72.8199 65.025 72.8523 65.149 72.9141C65.277 72.9752 65.3936 73.0576 65.494 73.1579C65.5933 73.2575 65.6735 73.3745 65.7308 73.503C65.7891 73.6329 65.819 73.7738 65.8186 73.9163C65.8174 74.0487 65.7892 74.1794 65.7358 74.3005C65.6823 74.4216 65.6047 74.5305 65.5077 74.6205C65.1826 74.9142 64.8066 75.146 64.3983 75.3044C63.9253 75.4936 63.4198 75.5879 62.9105 75.5819C62.3963 75.5854 61.8864 75.4889 61.409 75.2977C60.9475 75.1151 60.5271 74.8419 60.1727 74.4941C59.8183 74.1464 59.5369 73.7312 59.3452 73.2729C58.9399 72.2699 58.9399 71.1484 59.3452 70.1454C59.5369 69.6872 59.8183 69.2719 60.1727 68.9242C60.5271 68.5765 60.9475 68.3033 61.409 68.1207C61.8863 67.9294 62.3963 67.8328 62.9105 67.8361C63.317 67.8364 63.721 67.9003 64.1077 68.0257C64.4838 68.1439 64.8363 68.3273 65.149 68.5675C65.4457 68.7961 65.694 69.0815 65.8794 69.4071C66.0669 69.742 66.1626 70.1205 66.1569 70.5043C66.1619 70.7097 66.1129 70.9129 66.015 71.0935C65.9124 71.2671 65.7519 71.3989 65.5618 71.4657L62.0311 72.942C61.9048 72.9979 61.8421 73.0537 61.8421 73.1182M61.24 71.3643C61.2738 71.3876 61.3141 71.3995 61.3551 71.3981C61.4013 71.3961 61.4469 71.3866 61.4901 71.3702L63.6816 70.4487C63.8076 70.3945 63.8709 70.3317 63.8709 70.2591C63.8709 70.1597 63.7762 70.0694 63.5868 69.9882C63.3719 69.9022 63.1418 69.8608 62.9105 69.8665C62.673 69.8634 62.4378 69.9118 62.2208 70.0083C62.0243 70.096 61.8419 70.2125 61.6798 70.354C61.5339 70.4797 61.4123 70.6311 61.3211 70.8008C61.2427 70.9371 61.1987 71.0904 61.1928 71.2476C61.1905 71.2692 61.1937 71.291 61.2019 71.3111C61.2101 71.3312 61.2232 71.3489 61.24 71.3626" fill="#909295"/>
<path d="M69.9645 65.6895C70.0722 65.5781 70.2016 65.49 70.3447 65.4306C70.4878 65.3712 70.6415 65.3417 70.7964 65.3441C70.9534 65.3408 71.1095 65.3698 71.2549 65.4292C71.4003 65.4886 71.5321 65.5772 71.642 65.6895C71.7532 65.7974 71.8411 65.9269 71.9004 66.0702C71.9597 66.2134 71.9891 66.3672 71.9867 66.5222V74.3099C71.9884 74.4669 71.9588 74.6227 71.8996 74.7681C71.8404 74.9134 71.7527 75.0455 71.6419 75.1566C71.531 75.2676 71.3991 75.3553 71.2539 75.4147C71.1087 75.474 70.9532 75.5037 70.7964 75.502C70.6415 75.5044 70.4878 75.4749 70.3447 75.4155C70.2016 75.3561 70.0722 75.268 69.9645 75.1566C69.8523 75.0465 69.7638 74.9146 69.7045 74.769C69.6452 74.6234 69.6163 74.4671 69.6195 74.3099V66.5222C69.6172 66.3672 69.6466 66.2133 69.7059 66.0701C69.7652 65.9269 69.8532 65.7974 69.9645 65.6895Z" fill="#909295"/>
<path d="M77.2621 68.0938C78.0425 68.4239 78.6635 69.0458 78.9931 69.8273C79.1654 70.2294 79.2529 70.6628 79.2502 71.1004V74.4451C79.2508 74.5869 79.2232 74.7274 79.1691 74.8584C79.1177 74.9848 79.0419 75.0999 78.9459 75.1968C78.8508 75.2918 78.7383 75.3676 78.6146 75.4202C78.4543 75.4859 78.2802 75.5111 78.1078 75.4938C77.9354 75.4765 77.7699 75.4171 77.6257 75.3209C77.4816 75.2247 77.3632 75.0945 77.2809 74.9418C77.1986 74.7891 77.155 74.6186 77.1538 74.4451V70.992C77.1568 70.8471 77.1266 70.7035 77.0656 70.572C77.0046 70.4406 76.9144 70.3248 76.8019 70.2336C76.5739 70.0412 76.2852 69.9356 75.987 69.9356C75.6888 69.9356 75.4001 70.0412 75.1721 70.2336C75.0612 70.3258 74.9726 70.442 74.9129 70.5733C74.8532 70.7046 74.8238 70.8478 74.8271 70.992V74.4451C74.8252 74.7246 74.7135 74.9922 74.5161 75.1899C74.3187 75.3875 74.0516 75.4995 73.7724 75.5015C73.6346 75.5037 73.4978 75.4771 73.3709 75.4235C73.2439 75.3699 73.1294 75.2904 73.0348 75.1901C72.9367 75.0927 72.8592 74.9766 72.8069 74.8486C72.7547 74.7206 72.7287 74.5834 72.7305 74.4451V71.0998C72.7277 70.6623 72.8151 70.2289 72.9873 69.8268C73.3169 69.0451 73.9382 68.4231 74.7189 68.0933C75.1214 67.9234 75.5537 67.8358 75.9905 67.8358C76.4273 67.8358 76.8596 67.9234 77.2621 68.0933" fill="#909295"/>
<path d="M82.686 74.4593C82.687 74.5989 82.6594 74.7371 82.6049 74.8656C82.5525 74.9896 82.4767 75.1023 82.3818 75.1976C82.2848 75.2937 82.1698 75.3696 82.0435 75.421C81.9128 75.4753 81.7725 75.5029 81.631 75.5023C81.4941 75.5026 81.3585 75.4759 81.232 75.4236C81.1055 75.3714 80.9905 75.2946 80.8937 75.1977C80.797 75.1008 80.7202 74.9857 80.668 74.8591C80.6158 74.7324 80.589 74.5966 80.5894 74.4596V69.9493H80.576C80.3284 69.9493 80.091 69.8509 79.916 69.6756C79.7409 69.5003 79.6426 69.2626 79.6426 69.0147C79.6426 68.7668 79.7409 68.5291 79.916 68.3538C80.091 68.1786 80.3284 68.0801 80.576 68.0801H80.5894V67.7414C80.5866 67.4097 80.6299 67.0793 80.7179 66.7596C80.7955 66.473 80.9313 66.2056 81.117 65.9741C81.2999 65.7511 81.5312 65.5727 81.7933 65.4528C82.0957 65.3197 82.4236 65.2549 82.7538 65.2629C82.9825 65.2636 83.21 65.2955 83.4301 65.3578C83.6483 65.418 83.8559 65.5116 84.0456 65.6354C84.2251 65.7522 84.3793 65.9042 84.4988 66.0822C84.6177 66.2653 84.6789 66.48 84.6744 66.6984C84.6752 66.9311 84.5938 67.1565 84.4446 67.3348C84.3828 67.4212 84.3017 67.492 84.2077 67.5414C84.1137 67.5908 84.0095 67.6175 83.9033 67.6194C83.8309 67.6194 83.7593 67.6032 83.6939 67.5719C83.6261 67.5406 83.5517 67.5043 83.4708 67.4635C83.3899 67.4228 83.3063 67.3848 83.2198 67.3485C83.1364 67.3129 83.0467 67.2945 82.956 67.2943C82.9098 67.2879 82.8628 67.2971 82.8224 67.3204C82.782 67.3437 82.7505 67.3798 82.7329 67.4231C82.6986 67.5255 82.6825 67.6331 82.6855 67.7411V68.0798H83.3076C83.4302 68.0798 83.5516 68.104 83.6649 68.151C83.7781 68.1979 83.881 68.2668 83.9677 68.3536C84.0544 68.4404 84.1231 68.5434 84.17 68.6568C84.2169 68.7702 84.2411 68.8917 84.2411 69.0144C84.2411 69.1372 84.2169 69.2587 84.17 69.3721C84.1231 69.4855 84.0544 69.5885 83.9677 69.6753C83.881 69.7621 83.7781 69.8309 83.6649 69.8779C83.5516 69.9249 83.4302 69.949 83.3076 69.949H82.6855L82.686 74.4593Z" fill="#909295"/>
<path d="M87.0145 75.2988C86.5531 75.1162 86.1327 74.843 85.7783 74.4952C85.4239 74.1475 85.1425 73.7323 84.9508 73.274C84.545 72.2711 84.545 71.1495 84.9508 70.1466C85.1425 69.6883 85.4239 69.2731 85.7783 68.9253C86.1327 68.5776 86.553 68.3044 87.0145 68.1218C87.9797 67.7428 89.0523 67.7428 90.0175 68.1218C90.479 68.3044 90.8994 68.5776 91.2538 68.9253C91.6082 69.2731 91.8896 69.6883 92.0813 70.1466C92.4866 71.1495 92.4866 72.271 92.0813 73.274C91.8895 73.7323 91.6082 74.1475 91.2538 74.4952C90.8993 74.843 90.479 75.1162 90.0175 75.2988C89.0524 75.6782 87.9797 75.6782 87.0145 75.2988ZM86.8193 72.4277C86.91 72.648 87.0433 72.8482 87.2116 73.0168C87.3799 73.1853 87.5798 73.3189 87.7999 73.4097C88.138 73.5515 88.5105 73.5899 88.8704 73.5199C89.2303 73.4499 89.5615 73.2748 89.822 73.0166C89.9901 72.8479 90.1234 72.6478 90.2144 72.4277C90.3317 72.1475 90.378 71.8427 90.3492 71.5404C90.3204 71.238 90.2174 70.9475 90.0494 70.6946C89.8814 70.4417 89.6536 70.2343 89.3862 70.0908C89.1189 69.9474 88.8202 69.8723 88.5169 69.8723C88.2135 69.8723 87.9149 69.9474 87.6475 70.0908C87.3801 70.2343 87.1523 70.4417 86.9843 70.6946C86.8163 70.9475 86.7133 71.238 86.6846 71.5404C86.6558 71.8427 86.7021 72.1475 86.8193 72.4277Z" fill="#909295"/>
<path d="M94.8734 74.4451C94.8715 74.7247 94.7597 74.9923 94.5623 75.19C94.3649 75.3877 94.0976 75.4996 93.8184 75.5015C93.6806 75.5037 93.5439 75.4771 93.417 75.4235C93.29 75.3699 93.1756 75.2904 93.081 75.1901C92.9829 75.0928 92.9054 74.9767 92.8531 74.8487C92.8008 74.7207 92.7749 74.5834 92.7768 74.4451V68.9603C92.7772 68.7692 92.83 68.5819 92.9293 68.4188C93.0287 68.2556 93.1708 68.1228 93.3402 68.0349C93.5096 67.947 93.6999 67.9072 93.8903 67.92C94.0807 67.9327 94.264 67.9975 94.4202 68.1073C94.5808 68.2158 94.7093 68.3656 94.7922 68.5409C94.8553 68.4955 94.9409 68.439 95.0491 68.3714C95.1573 68.3038 95.2791 68.2362 95.4144 68.1684C95.5559 68.0978 95.7029 68.0389 95.854 67.9922C96.0183 67.9415 96.1893 67.9164 96.3612 67.9176C96.5357 67.9182 96.7091 67.9456 96.8752 67.9989C97.0401 68.0499 97.1954 68.1276 97.3351 68.229C97.4719 68.3306 97.5831 68.4628 97.6597 68.6152C97.7427 68.781 97.7845 68.9645 97.7816 69.1499C97.784 69.3362 97.7472 69.5209 97.6734 69.6919C97.6071 69.8455 97.513 69.9856 97.3959 70.1049C97.2852 70.2165 97.1545 70.306 97.0105 70.3688C96.7517 70.4826 96.4596 70.4947 96.1922 70.4029C96.0949 70.3657 96.0018 70.318 95.9147 70.2607C95.8384 70.2093 95.7595 70.1619 95.6783 70.1186C95.5967 70.0767 95.5061 70.0557 95.4144 70.0574C95.3598 70.0587 95.3054 70.0655 95.2521 70.0778C95.1883 70.0916 95.1283 70.1194 95.0764 70.1591C95.0144 70.2099 94.9656 70.2749 94.9342 70.3487C94.8893 70.458 94.8686 70.5757 94.8734 70.6938V74.4451Z" fill="#909295"/>
<path d="M104.267 68.0665C104.646 67.9086 105.054 67.8303 105.464 67.8364C105.887 67.8347 106.306 67.9202 106.695 68.0877C107.453 68.4069 108.057 69.0093 108.379 69.7671C108.547 70.1539 108.632 70.5713 108.63 70.9929V74.4451C108.628 74.7248 108.517 74.9924 108.319 75.1901C108.122 75.3878 107.854 75.4997 107.575 75.5015C107.437 75.5036 107.301 75.4771 107.174 75.4235C107.047 75.3699 106.933 75.2904 106.838 75.1901C106.74 75.0929 106.662 74.9768 106.61 74.8488C106.557 74.7208 106.531 74.5835 106.533 74.4451V70.9921C106.534 70.8526 106.507 70.7143 106.452 70.5861C106.398 70.4578 106.317 70.3424 106.215 70.2471C106.015 70.0475 105.744 69.9355 105.461 69.9355C105.178 69.9355 104.907 70.0475 104.707 70.2471C104.607 70.3434 104.528 70.4592 104.474 70.5873C104.421 70.7154 104.394 70.8532 104.396 70.9921V74.4451C104.396 74.5868 104.369 74.7272 104.314 74.8581C104.263 74.9848 104.187 75.1 104.091 75.1968C103.996 75.2919 103.884 75.3677 103.76 75.4202C103.6 75.4859 103.426 75.5112 103.253 75.4939C103.081 75.4765 102.915 75.4172 102.771 75.3209C102.627 75.2247 102.509 75.0945 102.426 74.9419C102.344 74.7892 102.3 74.6186 102.299 74.4451V70.9921C102.301 70.8532 102.274 70.7154 102.221 70.5873C102.167 70.4592 102.088 70.3434 101.988 70.2471C101.89 70.1461 101.772 70.0664 101.641 70.0128C101.511 69.9592 101.371 69.9329 101.231 69.9354C100.951 69.9373 100.684 70.0493 100.487 70.247C100.289 70.4448 100.177 70.7124 100.176 70.9921V74.4451C100.174 74.7247 100.062 74.9923 99.8644 75.19C99.667 75.3877 99.3997 75.4996 99.1205 75.5015C98.9828 75.5037 98.8461 75.4771 98.7191 75.4235C98.5922 75.3699 98.4778 75.2904 98.3832 75.1901C98.285 75.0928 98.2075 74.9767 98.1552 74.8487C98.1029 74.7207 98.077 74.5834 98.0789 74.4451V70.9921C98.0765 70.5704 98.162 70.1529 98.3299 69.7662C98.6514 69.0106 99.2524 68.4088 100.007 68.0869C100.393 67.919 100.81 67.8334 101.231 67.8356C101.644 67.8282 102.054 67.9065 102.435 68.0657C102.771 68.2092 103.082 68.4059 103.355 68.6481C103.624 68.403 103.933 68.2059 104.268 68.0657" fill="#909295"/>
<path d="M116.691 74.4451C116.693 74.5834 116.667 74.7207 116.615 74.8487C116.562 74.9767 116.485 75.0928 116.387 75.1901C116.292 75.2904 116.178 75.3699 116.051 75.4235C115.924 75.4772 115.787 75.5038 115.65 75.5017C115.411 75.5033 115.179 75.4164 115 75.2577C114.83 75.1239 114.707 74.9388 114.649 74.7296C114.622 74.7483 114.558 74.7979 114.459 74.8785C114.33 74.979 114.192 75.0675 114.047 75.1426C113.843 75.2489 113.628 75.3331 113.405 75.3939C113.119 75.4706 112.823 75.507 112.527 75.5023C112.09 75.4994 111.658 75.4023 111.262 75.2177C110.841 75.0271 110.46 74.7583 110.139 74.4255C109.803 74.0762 109.53 73.6705 109.334 73.2268C109.123 72.7492 109.017 72.2318 109.023 71.7097C109.018 71.1855 109.124 70.6662 109.334 70.1862C109.528 69.7414 109.801 69.3353 110.139 68.9877C110.461 68.6583 110.842 68.3919 111.262 68.2022C111.658 68.0176 112.09 67.9205 112.527 67.9176C112.823 67.913 113.119 67.9495 113.405 68.026C113.627 68.0869 113.842 68.1711 114.047 68.2773C114.192 68.3524 114.33 68.4409 114.459 68.5414C114.558 68.6228 114.622 68.6724 114.649 68.6903C114.707 68.481 114.83 68.2958 115 68.162C115.179 68.0034 115.411 67.9166 115.65 67.9182C115.786 67.9178 115.922 67.9446 116.049 67.9969C116.175 68.0492 116.29 68.126 116.387 68.2229C116.484 68.3198 116.56 68.435 116.612 68.5616C116.665 68.6883 116.691 68.8241 116.691 68.9611V74.4451ZM112.18 70.0979C111.762 70.273 111.429 70.6063 111.254 71.0255C111.139 71.2915 111.093 71.5817 111.119 71.8699C111.145 72.1582 111.242 72.4355 111.402 72.6768C111.562 72.918 111.779 73.1157 112.034 73.2518C112.289 73.3879 112.574 73.4583 112.863 73.4566C113.096 73.4588 113.326 73.4128 113.54 73.3214C113.744 73.2329 113.93 73.1065 114.088 72.9489C114.414 72.6194 114.598 72.174 114.598 71.7097C114.598 71.2454 114.414 70.7999 114.088 70.4704C113.93 70.313 113.744 70.1867 113.54 70.0979C113.326 70.0066 113.096 69.9605 112.863 69.9625C112.629 69.9608 112.396 70.0069 112.18 70.0979Z" fill="#909295"/>
<path d="M121.466 76.0845C121.467 76.2872 121.425 76.4878 121.344 76.6734C121.185 77.0405 120.892 77.3334 120.526 77.493C120.34 77.5743 120.14 77.6158 119.937 77.6147H119.18C119.112 77.6164 119.046 77.6047 118.983 77.5803C118.92 77.5559 118.863 77.5193 118.815 77.4726C118.766 77.4267 118.727 77.371 118.702 77.3092C118.676 77.2473 118.664 77.1807 118.666 77.1138C118.665 77.046 118.678 76.9787 118.703 76.9159C118.729 76.8531 118.767 76.7961 118.814 76.7481C118.862 76.7002 118.919 76.6623 118.982 76.6367C119.045 76.6111 119.112 76.5984 119.18 76.5992H119.937C120.005 76.6 120.072 76.5872 120.135 76.5617C120.198 76.5361 120.255 76.4982 120.303 76.4502C120.35 76.4023 120.388 76.3452 120.414 76.2824C120.439 76.2196 120.452 76.1523 120.451 76.0845V75.5562C120.021 75.5003 119.603 75.3745 119.214 75.1837C118.383 74.7833 117.728 74.0918 117.373 73.2402C117.173 72.7553 117.074 72.2344 117.082 71.7097C117.076 71.1731 117.18 70.6409 117.387 70.146C117.579 69.6878 117.86 69.2726 118.214 68.9249C118.569 68.5772 118.989 68.3039 119.45 68.1212C119.928 67.9301 120.438 67.8336 120.952 67.8369C121.467 67.8284 121.977 67.9252 122.453 68.1212C122.854 68.2849 123.224 68.5137 123.549 68.7984C123.692 68.9274 123.811 69.0811 123.901 69.2521C123.97 69.3886 124.007 69.5391 124.009 69.6922C124.011 69.8228 123.983 69.952 123.928 70.0704C123.873 70.1888 123.792 70.2933 123.691 70.3763C123.489 70.5579 123.226 70.6569 122.954 70.6539C122.79 70.6583 122.628 70.6159 122.487 70.5319C122.357 70.4505 122.222 70.3603 122.081 70.2613C121.934 70.1576 121.778 70.067 121.615 69.9904C121.405 69.9017 121.179 69.8601 120.952 69.8684C120.649 69.8695 120.35 69.9455 120.083 70.0896C119.816 70.2337 119.588 70.4414 119.421 70.6945C119.253 70.9476 119.15 71.2381 119.121 71.5405C119.092 71.8429 119.138 72.1478 119.254 72.4282C119.345 72.6485 119.478 72.8487 119.647 73.0173C119.815 73.1858 120.015 73.3194 120.235 73.4103C120.462 73.5053 120.706 73.5536 120.952 73.5524C121.184 73.5615 121.414 73.5199 121.628 73.4304C121.788 73.3564 121.938 73.2631 122.074 73.1528C122.197 73.0519 122.325 72.9592 122.46 72.8752C122.61 72.789 122.781 72.7467 122.954 72.7532C123.227 72.7506 123.49 72.8523 123.691 73.0378C123.791 73.1224 123.872 73.2282 123.927 73.3476C123.982 73.467 124.01 73.5971 124.009 73.7286C124.007 73.8816 123.97 74.0322 123.9 74.1687C123.811 74.3398 123.692 74.4935 123.549 74.6224C123.254 74.8882 122.915 75.1012 122.548 75.2521C122.202 75.4009 121.838 75.5033 121.466 75.5568V76.0845Z" fill="#909295"/>
<path d="M131.813 74.4451C131.815 74.5834 131.789 74.7206 131.737 74.8486C131.685 74.9766 131.607 75.0928 131.509 75.1901C131.414 75.2904 131.3 75.3699 131.173 75.4235C131.046 75.4772 130.91 75.5038 130.772 75.5017C130.533 75.5034 130.302 75.4165 130.123 75.2577C129.952 75.124 129.829 74.9388 129.771 74.7296C129.743 74.7478 129.681 74.7972 129.581 74.8785C129.453 74.9792 129.315 75.0676 129.169 75.1426C128.965 75.249 128.75 75.3332 128.528 75.394C128.241 75.4706 127.945 75.507 127.649 75.5023C127.212 75.4993 126.78 75.4023 126.384 75.2178C125.963 75.0271 125.582 74.7583 125.261 74.4256C124.925 74.0763 124.652 73.6705 124.456 73.2268C124.245 72.7492 124.139 72.2318 124.145 71.7097C124.14 71.1855 124.246 70.6662 124.456 70.1862C124.65 69.7413 124.923 69.3353 125.261 68.9877C125.584 68.6584 125.964 68.392 126.384 68.2022C126.78 68.0176 127.212 67.9206 127.649 67.9176C127.945 67.913 128.241 67.9495 128.528 68.026C128.75 68.0869 128.965 68.1711 129.169 68.2773C129.315 68.3523 129.453 68.4408 129.581 68.5415C129.681 68.6227 129.744 68.6724 129.771 68.6903C129.829 68.481 129.952 68.2958 130.123 68.162C130.302 68.0033 130.533 67.9165 130.772 67.9182C130.909 67.9179 131.044 67.9446 131.171 67.9969C131.297 68.0492 131.412 68.126 131.509 68.2229C131.606 68.3199 131.683 68.435 131.735 68.5617C131.787 68.6883 131.814 68.8241 131.813 68.9611V74.4451ZM126.795 65.7636C126.747 65.8112 126.708 65.8682 126.683 65.9311C126.657 65.994 126.645 66.0615 126.646 66.1294C126.647 66.1722 126.639 66.2147 126.623 66.2542C126.606 66.2938 126.582 66.3296 126.552 66.3595C126.52 66.3911 126.482 66.4159 126.44 66.4322C126.398 66.4485 126.353 66.4561 126.308 66.4544C126.264 66.4565 126.22 66.4491 126.179 66.4328C126.139 66.4164 126.102 66.3914 126.071 66.3595C126.013 66.2973 125.981 66.2147 125.984 66.1294C125.98 65.9738 126.008 65.819 126.066 65.6746C126.124 65.5302 126.211 65.3992 126.322 65.2897C126.429 65.1799 126.557 65.0931 126.699 65.0349C126.841 64.9766 126.993 64.9481 127.147 64.951C127.448 64.9457 127.74 65.0545 127.965 65.2557C128.083 65.3668 128.176 65.5028 128.235 65.6539C128.295 65.8049 128.321 65.9673 128.31 66.1294C128.312 66.2617 128.366 66.388 128.459 66.4816C128.552 66.5751 128.678 66.6286 128.811 66.6306C128.878 66.6321 128.946 66.6196 129.009 66.5939C129.071 66.5683 129.128 66.53 129.176 66.4815C129.223 66.4361 129.261 66.3814 129.286 66.3209C129.312 66.2603 129.325 66.1951 129.324 66.1294C129.323 66.0844 129.33 66.0396 129.347 65.9977C129.363 65.9558 129.388 65.9177 129.419 65.8856C129.449 65.8549 129.485 65.8307 129.524 65.8143C129.564 65.798 129.606 65.79 129.649 65.7907C129.694 65.7887 129.739 65.7962 129.781 65.8125C129.823 65.8289 129.861 65.8537 129.893 65.8856C129.924 65.9174 129.949 65.9556 129.965 65.9975C129.982 66.0395 129.989 66.0844 129.987 66.1294C129.989 66.285 129.959 66.4393 129.9 66.5832C129.842 66.7211 129.757 66.8457 129.649 66.949C129.538 67.0546 129.41 67.1397 129.27 67.2003C129.125 67.2637 128.968 67.2959 128.81 67.2949C128.509 67.3004 128.216 67.1916 127.992 66.9903C127.874 66.8812 127.783 66.7476 127.723 66.5989C127.663 66.4502 127.637 66.2902 127.647 66.1302C127.648 66.0623 127.636 65.9948 127.61 65.9319C127.585 65.869 127.546 65.812 127.498 65.7644C127.452 65.7173 127.398 65.6799 127.337 65.6543C127.277 65.6287 127.212 65.6156 127.146 65.6156C127.081 65.6156 127.016 65.6287 126.955 65.6543C126.895 65.6799 126.84 65.7173 126.795 65.7644M127.302 70.0985C126.883 70.2737 126.55 70.607 126.375 71.0261C126.261 71.292 126.215 71.5823 126.241 71.8706C126.267 72.159 126.364 72.4363 126.524 72.6776C126.683 72.9189 126.901 73.1165 127.156 73.2526C127.411 73.3887 127.696 73.459 127.985 73.4572C128.217 73.4594 128.448 73.4134 128.661 73.322C128.866 73.2337 129.052 73.1073 129.209 72.9495C129.535 72.62 129.719 72.1745 129.719 71.7102C129.719 71.246 129.535 70.8005 129.209 70.471C129.051 70.3134 128.866 70.187 128.661 70.0985C128.448 70.0071 128.217 69.961 127.985 69.9631C127.751 69.9614 127.518 70.0075 127.302 70.0985Z" fill="#909295"/>
<path d="M134.573 75.2988C134.111 75.1162 133.691 74.843 133.336 74.4952C132.982 74.1475 132.701 73.7323 132.509 73.274C132.103 72.271 132.103 71.1495 132.509 70.1466C132.701 69.6883 132.982 69.2731 133.336 68.9253C133.691 68.5776 134.111 68.3044 134.573 68.1218C135.538 67.7428 136.61 67.7428 137.576 68.1218C138.037 68.3044 138.457 68.5776 138.812 68.9253C139.166 69.2731 139.448 69.6883 139.639 70.1466C140.045 71.1495 140.045 72.271 139.639 73.274C139.448 73.7323 139.166 74.1475 138.812 74.4952C138.457 74.843 138.037 75.1162 137.576 75.2988C136.61 75.6782 135.538 75.6782 134.573 75.2988ZM134.377 72.4277C134.468 72.648 134.601 72.8483 134.77 73.0168C134.938 73.1854 135.138 73.3189 135.358 73.4097C135.817 73.5989 136.333 73.5989 136.792 73.4097C137.012 73.3188 137.212 73.1852 137.38 73.0167C137.548 72.8482 137.682 72.648 137.772 72.4277C137.914 72.0891 137.952 71.7161 137.883 71.3558C137.813 70.9954 137.638 70.6639 137.38 70.4029C137.212 70.2346 137.012 70.1011 136.792 70.01C136.454 69.8692 136.082 69.832 135.723 69.9032C135.364 69.9743 135.035 70.1506 134.776 70.4096C134.518 70.6686 134.342 70.9986 134.271 71.3579C134.2 71.7172 134.237 72.0895 134.377 72.4277Z" fill="#909295"/>
<path d="M148.491 74.8787C148.362 74.9793 148.224 75.0678 148.079 75.1429C147.609 75.388 147.086 75.5115 146.557 75.502C146.12 75.499 145.689 75.4019 145.292 75.2174C144.871 75.0268 144.491 74.758 144.17 74.4252C143.833 74.076 143.561 73.6703 143.365 73.2265C143.154 72.7489 143.048 72.2315 143.054 71.7094C143.048 71.1852 143.154 70.6658 143.365 70.1858C143.559 69.7409 143.831 69.3349 144.17 68.9873C144.492 68.658 144.873 68.3917 145.292 68.2019C145.689 68.0173 146.12 67.9203 146.557 67.9173C146.838 67.9115 147.119 67.948 147.389 68.0256C147.59 68.0862 147.785 68.1656 147.971 68.2627C148.101 68.3311 148.226 68.4104 148.343 68.4998C148.398 68.5551 148.469 68.5927 148.545 68.6081C148.6 68.6081 148.627 68.5133 148.627 68.3236V66.3871C148.626 66.2475 148.653 66.1092 148.708 65.9808C148.76 65.8568 148.836 65.744 148.931 65.6488C149.028 65.5525 149.142 65.4766 149.269 65.4254C149.4 65.3712 149.54 65.3436 149.681 65.3441C149.818 65.3438 149.954 65.3706 150.08 65.4229C150.207 65.4752 150.322 65.552 150.418 65.6489C150.515 65.7459 150.592 65.8609 150.644 65.9876C150.696 66.1143 150.723 66.25 150.723 66.3871V74.4451C150.725 74.5834 150.699 74.7207 150.647 74.8487C150.594 74.9767 150.517 75.0928 150.418 75.1901C150.324 75.2904 150.21 75.3699 150.083 75.4236C149.956 75.4772 149.819 75.5038 149.681 75.5017C149.442 75.5034 149.211 75.4165 149.032 75.2576C148.861 75.1238 148.738 74.9387 148.68 74.7296C148.653 74.7482 148.59 74.7978 148.491 74.8784M146.212 70.0976C145.793 70.2731 145.461 70.6063 145.285 71.0252C145.171 71.2911 145.125 71.5814 145.151 71.8697C145.176 72.158 145.274 72.4353 145.433 72.6766C145.593 72.9179 145.81 73.1155 146.065 73.2516C146.321 73.3877 146.606 73.4581 146.895 73.4563C147.127 73.4585 147.358 73.4125 147.571 73.3211C147.776 73.2327 147.962 73.1063 148.119 72.9486C148.446 72.6191 148.629 72.1736 148.629 71.7094C148.629 71.2451 148.446 70.7996 148.119 70.4701C147.962 70.3126 147.776 70.1862 147.571 70.0976C147.358 70.0062 147.127 69.9601 146.895 69.9622C146.66 69.9606 146.428 70.0066 146.212 70.0976Z" fill="#909295"/>
<path d="M158.879 74.4451C158.881 74.5834 158.855 74.7206 158.803 74.8486C158.75 74.9767 158.673 75.0928 158.575 75.1901C158.48 75.2904 158.366 75.3699 158.239 75.4235C158.112 75.4772 157.975 75.5038 157.837 75.5017C157.598 75.5034 157.367 75.4165 157.188 75.2577C157.018 75.1239 156.895 74.9388 156.837 74.7297C156.81 74.7483 156.746 74.7979 156.647 74.8785C156.518 74.9791 156.38 75.0675 156.235 75.1426C155.765 75.3877 155.242 75.5112 154.713 75.5017C154.276 75.4988 153.844 75.4017 153.448 75.2172C153.027 75.0266 152.646 74.7578 152.326 74.425C151.989 74.0759 151.717 73.6701 151.521 73.2262C151.31 72.7485 151.204 72.2309 151.21 71.7086C151.204 71.1844 151.31 70.665 151.521 70.1851C151.715 69.7401 151.987 69.3341 152.326 68.9866C152.648 68.6572 153.029 68.3908 153.448 68.2011C153.845 68.0165 154.276 67.9195 154.713 67.9165C155.01 67.9119 155.306 67.9484 155.592 68.0249C155.815 68.0857 156.03 68.17 156.234 68.2762C156.379 68.3513 156.517 68.4397 156.646 68.5403C156.745 68.6217 156.809 68.6713 156.836 68.6892C156.894 68.48 157.017 68.2948 157.187 68.1609C157.366 68.0022 157.598 67.9154 157.837 67.9171C157.974 67.9167 158.109 67.9434 158.236 67.9957C158.362 68.048 158.477 68.1248 158.574 68.2217C158.671 68.3187 158.748 68.4338 158.8 68.5605C158.852 68.6872 158.879 68.823 158.878 68.96L158.879 74.4451ZM154.368 70.0977C153.995 70.2537 153.688 70.5344 153.499 70.8919C153.31 71.2494 153.251 71.6616 153.331 72.058C153.412 72.4544 153.628 72.8105 153.941 73.0655C154.255 73.3206 154.647 73.4587 155.051 73.4563C155.284 73.4586 155.514 73.4126 155.727 73.3212C155.932 73.2328 156.118 73.1064 156.275 72.9487C156.602 72.6191 156.785 72.1737 156.785 71.7094C156.785 71.2451 156.602 70.7997 156.275 70.4702C156.118 70.3126 155.932 70.1863 155.727 70.0977C155.514 70.0063 155.284 69.9602 155.051 69.9622C154.817 69.9606 154.584 70.0067 154.368 70.0977Z" fill="#909295"/>
<path d="M6.59437 83.9393C6.59467 83.6269 6.71873 83.3274 6.93932 83.1065C7.15991 82.8857 7.45901 82.7615 7.77098 82.7612H10.436C10.9193 82.7586 11.3981 82.8554 11.8427 83.0454C12.7153 83.4134 13.4096 84.1086 13.777 84.9825C13.9677 85.432 14.0644 85.916 14.0609 86.4044C14.0648 86.8911 13.9681 87.3733 13.7767 87.8207C13.406 88.6906 12.7125 89.3824 11.8424 89.7505C11.3978 89.9405 10.9191 90.0373 10.4357 90.0347H8.96152V91.7278C8.9632 91.8848 8.93356 92.0406 8.87432 92.1859C8.81508 92.3313 8.72745 92.4634 8.61656 92.5744C8.50567 92.6855 8.37376 92.7732 8.22856 92.8325C8.08336 92.8918 7.92779 92.9215 7.77098 92.9198C7.61615 92.9222 7.46248 92.8927 7.31945 92.8333C7.17642 92.7739 7.04706 92.6858 6.93935 92.5744C6.82713 92.4644 6.73862 92.3325 6.67929 92.1869C6.61996 92.0413 6.59106 91.885 6.59437 91.7278V83.9393ZM8.96152 84.9551V87.8399H10.26C10.449 87.8404 10.6361 87.8029 10.8103 87.7296C10.9845 87.6564 11.1423 87.5489 11.2743 87.4135C11.4015 87.2813 11.5046 87.1277 11.5788 86.9598C11.656 86.7849 11.6952 86.5956 11.6937 86.4044C11.6947 86.2111 11.6556 86.0197 11.5788 85.8423C11.5057 85.6717 11.4026 85.5157 11.2743 85.3818C11.1423 85.2463 10.9846 85.1388 10.8104 85.0655C10.6361 84.9922 10.449 84.9547 10.26 84.9551H8.96152Z" fill="#909295"/>
<path d="M16.5497 91.8623C16.5478 92.1419 16.436 92.4095 16.2386 92.6072C16.0411 92.8048 15.7739 92.9168 15.4947 92.9187C15.3569 92.9208 15.2202 92.8943 15.0933 92.8407C14.9663 92.7871 14.8519 92.7076 14.7573 92.6073C14.6592 92.51 14.5817 92.3938 14.5294 92.2658C14.4771 92.1378 14.4511 92.0006 14.453 91.8623V86.3769C14.4535 86.1859 14.5063 85.9986 14.6056 85.8354C14.7049 85.6722 14.847 85.5395 15.0165 85.4515C15.1859 85.3636 15.3762 85.3238 15.5666 85.3366C15.757 85.3493 15.9403 85.4141 16.0965 85.5239C16.2571 85.6324 16.3856 85.7822 16.4685 85.9575C16.5315 85.9121 16.6172 85.8556 16.7254 85.788C16.8336 85.7205 16.9554 85.6528 17.0907 85.585C17.2322 85.5144 17.3792 85.4555 17.5302 85.4088C17.6945 85.3582 17.8656 85.333 18.0375 85.3343C18.212 85.3348 18.3853 85.3622 18.5515 85.4155C18.7163 85.4665 18.8717 85.5442 19.0114 85.6456C19.1482 85.7472 19.2594 85.8795 19.336 86.0318C19.419 86.1976 19.4608 86.3811 19.4579 86.5666C19.4603 86.7528 19.4234 86.9375 19.3497 87.1086C19.283 87.2623 19.1884 87.4023 19.0708 87.5215C18.9601 87.6331 18.8293 87.7226 18.6854 87.7854C18.4265 87.8992 18.1345 87.9114 17.8671 87.8195C17.7697 87.7823 17.6767 87.7347 17.5896 87.6774C17.5133 87.6259 17.4344 87.5785 17.3531 87.5352C17.2716 87.4934 17.1809 87.4723 17.0893 87.4741C17.0347 87.4753 16.9803 87.4821 16.927 87.4945C16.8632 87.5082 16.8032 87.536 16.7513 87.5757C16.6893 87.6265 16.6405 87.6916 16.6091 87.7653C16.5642 87.8746 16.5435 87.9924 16.5483 88.1105L16.5497 91.8623Z" fill="#909295"/>
<path d="M19.9989 83.0046C20.1027 82.8988 20.2271 82.8153 20.3644 82.7594C20.5017 82.7035 20.6489 82.6763 20.7971 82.6796C20.9461 82.6768 21.0943 82.7042 21.2325 82.76C21.3708 82.8159 21.4965 82.8991 21.6019 83.0046C21.7094 83.1076 21.7943 83.2319 21.8514 83.3695C21.9084 83.5071 21.9363 83.6551 21.9332 83.8041C21.9338 83.9536 21.9048 84.1018 21.8479 84.2401C21.791 84.3784 21.7074 84.5041 21.6018 84.6098C21.4961 84.7156 21.3707 84.7993 21.2325 84.8563C21.0944 84.9133 20.9464 84.9423 20.7971 84.9417C20.6483 84.9447 20.5005 84.9167 20.3631 84.8595C20.2257 84.8023 20.1017 84.7171 19.9989 84.6094C19.8934 84.5039 19.8103 84.3782 19.7545 84.2398C19.6987 84.1013 19.6714 83.953 19.6743 83.8038C19.671 83.6554 19.6981 83.5079 19.754 83.3704C19.8098 83.2329 19.8932 83.1086 19.9989 83.0046ZM21.8521 91.862C21.8521 92.036 21.8092 92.2072 21.7272 92.3605C21.6453 92.5138 21.5268 92.6445 21.3823 92.741C21.2378 92.8375 21.0717 92.8967 20.8988 92.9135C20.7259 92.9303 20.5516 92.904 20.3913 92.8371C20.2675 92.7847 20.1549 92.7088 20.0597 92.6138C19.9636 92.5168 19.8878 92.4016 19.8366 92.275C19.7824 92.1441 19.7548 92.0037 19.7554 91.862V86.377C19.7551 86.2399 19.7818 86.1042 19.834 85.9775C19.8863 85.8508 19.963 85.7357 20.0598 85.6389C20.1566 85.542 20.2715 85.4652 20.3981 85.4129C20.5246 85.3606 20.6602 85.3339 20.7971 85.3343C20.9386 85.3338 21.0788 85.3614 21.2095 85.4156C21.3359 85.467 21.4509 85.5429 21.5478 85.639C21.6426 85.7343 21.7184 85.8469 21.7709 85.9707C21.8254 86.0991 21.853 86.2374 21.8521 86.377V91.862Z" fill="#909295"/>
<path d="M28.6894 85.4831C29.0685 85.3252 29.4759 85.2469 29.8864 85.253C30.3096 85.2513 30.7286 85.3368 31.1174 85.5043C31.8755 85.8235 32.4796 86.4259 32.8015 87.1836C32.9691 87.5704 33.0546 87.9879 33.0525 88.4095V91.8631C33.0506 92.1427 32.9388 92.4104 32.7413 92.6081C32.5438 92.8058 32.2765 92.9176 31.9972 92.9195C31.8595 92.9216 31.7229 92.895 31.596 92.8414C31.4691 92.7878 31.3547 92.7084 31.2602 92.6081C31.1619 92.5107 31.0844 92.3944 31.0321 92.2663C30.9798 92.1381 30.9539 92.0007 30.9559 91.8623V88.4086C30.9574 88.2692 30.9299 88.1309 30.8752 88.0027C30.8205 87.8744 30.7397 87.7589 30.638 87.6636C30.4376 87.4641 30.1665 87.352 29.8839 87.352C29.6013 87.352 29.3301 87.4641 29.1298 87.6636C29.0298 87.76 28.9507 87.8758 28.8971 88.0039C28.8436 88.132 28.8169 88.2698 28.8185 88.4086V91.8623C28.8192 92.004 28.7916 92.1444 28.7374 92.2753C28.6863 92.4019 28.6105 92.5171 28.5143 92.614C28.4192 92.709 28.3067 92.7848 28.183 92.8374C28.0226 92.903 27.8486 92.9283 27.6762 92.911C27.5038 92.8937 27.3382 92.8343 27.1941 92.7381C27.0499 92.6418 26.9315 92.5117 26.8492 92.359C26.767 92.2063 26.7233 92.0357 26.7222 91.8623V88.4086C26.7239 88.2698 26.6971 88.132 26.6436 88.0039C26.5901 87.8758 26.5109 87.76 26.411 87.6636C26.3126 87.5627 26.1947 87.483 26.0644 87.4294C25.9342 87.3758 25.7943 87.3494 25.6535 87.352C25.3742 87.3539 25.107 87.4659 24.9095 87.6636C24.7121 87.8614 24.6003 88.129 24.5985 88.4086V91.8623C24.5966 92.1418 24.4848 92.4094 24.2874 92.6071C24.09 92.8048 23.8227 92.9167 23.5435 92.9186C23.4057 92.9208 23.269 92.8942 23.1421 92.8406C23.0151 92.787 22.9007 92.7076 22.8061 92.6073C22.708 92.5099 22.6305 92.3938 22.5782 92.2658C22.5259 92.1378 22.5 92.0005 22.5019 91.8623V88.4086C22.4995 87.987 22.5849 87.5695 22.7529 87.1828C23.0742 86.4269 23.6753 85.8249 24.4301 85.5029C24.8162 85.335 25.2331 85.2494 25.6541 85.2516C26.0669 85.2442 26.4769 85.3225 26.858 85.4817C27.194 85.6252 27.5047 85.8219 27.7783 86.0642C28.047 85.819 28.3559 85.6219 28.6914 85.4817" fill="#909295"/>
<path d="M36.244 90.5351C36.2479 90.568 36.2597 90.5994 36.2785 90.6265C36.2974 90.6537 36.3226 90.6758 36.352 90.6909C36.4364 90.7469 36.5273 90.7924 36.6228 90.8264C36.7372 90.869 36.8546 90.9029 36.9742 90.9277C37.0852 90.9531 37.1986 90.9667 37.3124 90.9685C37.5435 90.979 37.7741 90.9398 37.9887 90.8535C38.1356 90.786 38.2741 90.7016 38.4015 90.6021C38.513 90.512 38.6212 90.4283 38.7261 90.3508C38.852 90.2677 39.0013 90.2274 39.1519 90.2358C39.2905 90.2365 39.427 90.269 39.551 90.3307C39.679 90.3919 39.7956 90.4743 39.896 90.5745C39.9953 90.6741 40.0755 90.7911 40.1328 90.9196C40.1911 91.0496 40.221 91.1905 40.2206 91.3329C40.2194 91.4653 40.1912 91.5961 40.1377 91.7172C40.0842 91.8382 40.0066 91.9471 39.9097 92.0371C39.5846 92.3309 39.2086 92.5626 38.8003 92.721C38.3273 92.9103 37.8218 93.0046 37.3124 92.9986C36.7983 93.002 36.2883 92.9055 35.8109 92.7143C35.3494 92.5317 34.9291 92.2585 34.5747 91.9108C34.2203 91.563 33.9389 91.1478 33.7472 90.6895C33.3418 89.6866 33.3418 88.5651 33.7472 87.5621C33.9389 87.1038 34.2203 86.6886 34.5747 86.3409C34.9291 85.9931 35.3494 85.7199 35.8109 85.5373C36.2883 85.346 36.7983 85.2494 37.3124 85.2528C37.719 85.253 38.1229 85.317 38.5097 85.4424C38.8858 85.5605 39.2382 85.7439 39.551 85.9841C39.8477 86.2127 40.096 86.4981 40.2814 86.8238C40.4693 87.1585 40.5655 87.537 40.5603 87.9209C40.5653 88.1263 40.5163 88.3295 40.4183 88.5101C40.3153 88.6837 40.1543 88.8154 39.9638 88.8818L36.4331 90.3581C36.3068 90.4139 36.244 90.4698 36.244 90.5343M35.6411 88.7812C35.6749 88.8045 35.7153 88.8164 35.7563 88.815C35.8025 88.813 35.848 88.8036 35.8913 88.7871L38.0827 87.8656C38.2088 87.8114 38.2721 87.7486 38.2721 87.676C38.2721 87.5766 38.1773 87.4863 37.9879 87.4051C37.773 87.3191 37.5429 87.2777 37.3116 87.2834C37.0742 87.2803 36.8389 87.3287 36.6219 87.4253C36.4254 87.5129 36.2431 87.6294 36.0809 87.7709C35.935 87.8966 35.8134 88.048 35.7223 88.2177C35.6439 88.354 35.5998 88.5074 35.594 88.6645C35.5917 88.6861 35.5948 88.7079 35.603 88.728C35.6113 88.7481 35.6243 88.7658 35.6411 88.7796" fill="#909295"/>
<path d="M41.1942 83.0046C41.298 82.8988 41.4224 82.8153 41.5597 82.7594C41.697 82.7035 41.8442 82.6763 41.9924 82.6796C42.1415 82.6768 42.2896 82.7042 42.4278 82.76C42.5661 82.8159 42.6918 82.8991 42.7972 83.0046C42.9047 83.1076 42.9897 83.2319 43.0467 83.3695C43.1037 83.5071 43.1316 83.6551 43.1285 83.8041C43.1291 83.9536 43.1001 84.1018 43.0432 84.2401C42.9864 84.3784 42.9027 84.5041 42.7971 84.6098C42.6914 84.7156 42.566 84.7993 42.4279 84.8563C42.2897 84.9133 42.1417 84.9423 41.9924 84.9417C41.8436 84.9447 41.6958 84.9167 41.5584 84.8595C41.421 84.8023 41.297 84.7171 41.1942 84.6094C41.0887 84.5039 41.0056 84.3782 40.9498 84.2398C40.894 84.1013 40.8667 83.953 40.8696 83.8038C40.8663 83.6554 40.8935 83.5079 40.9493 83.3704C41.0051 83.2329 41.0885 83.1086 41.1942 83.0046ZM43.0474 91.862C43.0474 92.036 43.0045 92.2072 42.9225 92.3605C42.8406 92.5138 42.7221 92.6445 42.5776 92.741C42.4331 92.8375 42.267 92.8967 42.0941 92.9135C41.9212 92.9303 41.7469 92.904 41.5866 92.8371C41.4628 92.7847 41.3502 92.7088 41.255 92.6138C41.1589 92.5168 41.0831 92.4016 41.0319 92.275C40.9777 92.1441 40.9502 92.0037 40.9507 91.862V86.377C40.9504 86.2399 40.9771 86.1042 41.0294 85.9775C41.0816 85.8508 41.1583 85.7357 41.2551 85.6389C41.3519 85.542 41.4669 85.4652 41.5934 85.4129C41.7199 85.3606 41.8555 85.3339 41.9924 85.3343C42.1339 85.3338 42.2741 85.3614 42.4048 85.4156C42.5312 85.467 42.6462 85.5429 42.7431 85.639C42.838 85.7343 42.9137 85.8469 42.9662 85.9707C43.0207 86.0991 43.0483 86.2374 43.0474 86.377V91.862Z" fill="#909295"/>
<path d="M45.7924 91.8623C45.7905 92.1419 45.6787 92.4095 45.4813 92.6072C45.2839 92.8048 45.0166 92.9168 44.7374 92.9187C44.5996 92.9208 44.4629 92.8943 44.336 92.8407C44.2091 92.7871 44.0946 92.7076 44 92.6073C43.9019 92.51 43.8244 92.3938 43.7721 92.2658C43.7198 92.1378 43.6939 92.0006 43.6958 91.8623V86.3769C43.6962 86.1859 43.749 85.9986 43.8483 85.8354C43.9477 85.6722 44.0898 85.5395 44.2592 85.4515C44.4286 85.3636 44.6189 85.3238 44.8093 85.3366C44.9997 85.3493 45.183 85.4141 45.3392 85.5239C45.4998 85.6324 45.6283 85.7822 45.7113 85.9575C45.7743 85.9121 45.8599 85.8556 45.9681 85.788C46.0763 85.7205 46.1981 85.6528 46.3334 85.585C46.4749 85.5144 46.6219 85.4555 46.773 85.4088C46.9373 85.3582 47.1083 85.333 47.2802 85.3343C47.4547 85.3348 47.6281 85.3622 47.7942 85.4155C47.9591 85.4665 48.1144 85.5442 48.2541 85.6456C48.3909 85.7472 48.5021 85.8795 48.5787 86.0318C48.6617 86.1976 48.7035 86.3811 48.7006 86.5666C48.703 86.7528 48.6662 86.9375 48.5924 87.1086C48.5261 87.2622 48.432 87.4022 48.3149 87.5215C48.2042 87.6331 48.0735 87.7226 47.9295 87.7854C47.6707 87.8992 47.3786 87.9114 47.1112 87.8195C47.0134 87.7824 46.9199 87.7348 46.8324 87.6774C46.756 87.6259 46.6771 87.5785 46.5959 87.5352C46.5143 87.4934 46.4237 87.4724 46.332 87.4741C46.2774 87.4753 46.223 87.4821 46.1697 87.4945C46.1059 87.5082 46.0459 87.536 45.994 87.5757C45.9321 87.6265 45.8833 87.6916 45.8518 87.7653C45.8069 87.8746 45.7862 87.9924 45.791 88.1105L45.7924 91.8623Z" fill="#909295"/>
<path d="M56.0731 91.862C56.0751 92.0003 56.0491 92.1376 55.9969 92.2656C55.9446 92.3936 55.867 92.5098 55.7689 92.607C55.6743 92.7073 55.5599 92.7868 55.433 92.8405C55.3061 92.8941 55.1695 92.9208 55.0318 92.9187C54.7927 92.9204 54.5614 92.8334 54.3825 92.6746C54.2118 92.5409 54.0886 92.3558 54.0309 92.1466C54.0035 92.1652 53.9403 92.2148 53.8412 92.2954C53.7122 92.3961 53.5741 92.4845 53.4288 92.5596C53.2245 92.6659 53.0094 92.7502 52.7873 92.8109C52.5007 92.8875 52.2049 92.924 51.9083 92.9192C51.4712 92.9163 51.0399 92.8192 50.6436 92.6347C50.2227 92.444 49.8417 92.1752 49.5208 91.8425C49.1844 91.4933 48.9119 91.0875 48.7159 90.6437C48.505 90.1661 48.3989 89.6488 48.405 89.1266C48.3995 88.6024 48.5055 88.0831 48.7159 87.6031C48.9098 87.1583 49.1825 86.7522 49.5208 86.4046C49.8431 86.0753 50.2239 85.8089 50.6436 85.6191C51.0399 85.4346 51.4712 85.3375 51.9083 85.3346C52.2049 85.3299 52.5007 85.3664 52.7873 85.4429C53.0094 85.5038 53.2244 85.588 53.4288 85.6942C53.5741 85.7693 53.7122 85.8577 53.8412 85.9584C53.9405 86.0397 54.0037 86.0894 54.0309 86.1072C54.0882 85.8976 54.2113 85.712 54.382 85.5778C54.561 85.4192 54.7922 85.3323 55.0312 85.334C55.1681 85.3337 55.3037 85.3604 55.4302 85.4127C55.5567 85.465 55.6716 85.5418 55.7684 85.6388C55.8652 85.7357 55.9418 85.8508 55.994 85.9775C56.0462 86.1042 56.0729 86.2399 56.0726 86.377L56.0731 91.862ZM51.5622 87.5135C51.1436 87.6887 50.8108 88.022 50.6357 88.4411C50.5215 88.707 50.4752 88.9972 50.501 89.2855C50.5269 89.5738 50.6241 89.8512 50.7838 90.0925C50.9435 90.3337 51.1608 90.5314 51.4159 90.6675C51.6711 90.8036 51.9561 90.874 52.2452 90.8721C52.4776 90.8744 52.708 90.8284 52.9217 90.737C53.1262 90.6486 53.312 90.5222 53.4695 90.3645C53.7961 90.035 53.9794 89.5895 53.9794 89.1252C53.9794 88.6609 53.7961 88.2155 53.4695 87.886C53.3119 87.7285 53.1261 87.6021 52.9217 87.5135C52.708 87.4221 52.4776 87.376 52.2452 87.378C52.0107 87.3764 51.7784 87.4225 51.5622 87.5135Z" fill="#909295"/>
<path d="M60.1378 83.1063C60.2456 82.9949 60.375 82.9067 60.518 82.8473C60.6611 82.7879 60.8149 82.7585 60.9697 82.7609C61.1268 82.7576 61.2828 82.7865 61.4282 82.8459C61.5737 82.9053 61.7054 82.9939 61.8153 83.1063C61.9265 83.2142 62.0145 83.3437 62.0738 83.4869C62.133 83.6301 62.1624 83.784 62.16 83.939V91.7267C62.1617 91.8837 62.1321 92.0394 62.0729 92.1848C62.0137 92.3302 61.9261 92.4623 61.8152 92.5733C61.7044 92.6843 61.5725 92.7721 61.4273 92.8314C61.2821 92.8907 61.1265 92.9204 60.9697 92.9187C60.8149 92.9211 60.6611 92.8917 60.518 92.8323C60.375 92.7729 60.2456 92.6847 60.1378 92.5733C60.0257 92.4632 59.9372 92.3313 59.8778 92.1857C59.8185 92.0401 59.7896 91.8839 59.7929 91.7267V83.9393C59.7905 83.7842 59.8199 83.6304 59.8792 83.4872C59.9386 83.3439 60.0266 83.2144 60.1378 83.1066" fill="#909295"/>
<path d="M67.4353 85.5105C68.2159 85.8405 68.8371 86.4624 69.1666 87.244C69.3389 87.6461 69.4265 88.0795 69.4237 88.5171V91.8623C69.4243 92.0041 69.3967 92.1446 69.3426 92.2756C69.2913 92.4021 69.2154 92.5171 69.1195 92.6141C69.0243 92.709 68.9118 92.7848 68.7882 92.8375C68.6278 92.9032 68.4537 92.9285 68.2813 92.9112C68.1088 92.8939 67.9433 92.8346 67.7991 92.7383C67.6549 92.6421 67.5364 92.5119 67.4541 92.3592C67.3719 92.2065 67.3282 92.0359 67.3271 91.8623V88.4087C67.3301 88.2638 67.2999 88.1202 67.239 87.9887C67.178 87.8573 67.0879 87.7415 66.9754 87.6503C66.7474 87.4579 66.4588 87.3523 66.1605 87.3523C65.8623 87.3523 65.5737 87.4579 65.3456 87.6503C65.2348 87.7425 65.1462 87.8586 65.0864 87.99C65.0267 88.1213 64.9974 88.2645 65.0007 88.4087V91.8623C64.9988 92.1419 64.887 92.4095 64.6896 92.6072C64.4921 92.8049 64.2249 92.9168 63.9457 92.9187C63.8079 92.9209 63.6712 92.8943 63.5443 92.8407C63.4173 92.7871 63.3029 92.7076 63.2083 92.6074C63.1102 92.51 63.0326 92.3939 62.9804 92.2659C62.9281 92.1379 62.9021 92.0006 62.904 91.8623V88.5171C62.9012 88.0795 62.9887 87.6462 63.1609 87.244C63.4904 86.4623 64.1117 85.8403 64.8925 85.5105C65.2949 85.3406 65.7272 85.2531 66.1639 85.2531C66.6006 85.2531 67.0329 85.3406 67.4353 85.5105Z" fill="#909295"/>
<path d="M72.8594 91.8761C72.8604 92.0156 72.8327 92.1539 72.7782 92.2823C72.7258 92.4063 72.6501 92.5191 72.5551 92.6144C72.4581 92.7104 72.3432 92.7863 72.2168 92.8377C72.0861 92.892 71.9459 92.9197 71.8043 92.919C71.6675 92.9194 71.5319 92.8927 71.4054 92.8404C71.2788 92.7881 71.1639 92.7113 71.0671 92.6144C70.9703 92.5176 70.8936 92.4025 70.8413 92.2758C70.7891 92.1491 70.7624 92.0134 70.7627 91.8763V87.3661H70.7493C70.5018 87.3661 70.2644 87.2676 70.0893 87.0923C69.9143 86.9171 69.8159 86.6793 69.8159 86.4315C69.8159 86.1836 69.9143 85.9459 70.0893 85.7706C70.2644 85.5953 70.5018 85.4969 70.7493 85.4969H70.7627V85.1581C70.7599 84.8265 70.8032 84.4961 70.8913 84.1763C70.9688 83.8898 71.1047 83.6223 71.2904 83.3908C71.4732 83.1678 71.7045 82.9895 71.9667 82.8695C72.269 82.7364 72.5969 82.6716 72.9271 82.6796C73.1558 82.6803 73.3833 82.7123 73.6034 82.7746C73.8217 82.8347 74.0293 82.9284 74.2189 83.0521C74.3985 83.169 74.5526 83.3209 74.6721 83.4989C74.7911 83.682 74.8523 83.8968 74.8478 84.1152C74.8486 84.3478 74.7672 84.5732 74.618 84.7516C74.5562 84.838 74.475 84.9087 74.3811 84.9581C74.2871 85.0075 74.1828 85.0343 74.0767 85.0361C74.0042 85.0361 73.9326 85.0199 73.8672 84.9886C73.7995 84.9574 73.725 84.9211 73.6441 84.8803C73.5633 84.8395 73.4796 84.8016 73.3931 84.7653C73.3097 84.7297 73.22 84.7113 73.1293 84.7111C73.0831 84.7046 73.0361 84.7138 72.9957 84.7371C72.9553 84.7604 72.9238 84.7966 72.9062 84.8398C72.8719 84.9422 72.8559 85.0499 72.8588 85.1579V85.4966H73.481C73.7285 85.4966 73.966 85.595 74.141 85.7703C74.3161 85.9456 74.4144 86.1833 74.4144 86.4312C74.4144 86.6791 74.3161 86.9168 74.141 87.0921C73.966 87.2673 73.7285 87.3658 73.481 87.3658H72.8588L72.8594 91.8761Z" fill="#909295"/>
<path d="M82.314 91.862C82.316 92.0003 82.29 92.1376 82.2378 92.2656C82.1855 92.3936 82.1079 92.5097 82.0098 92.607C81.9152 92.7073 81.8008 92.7868 81.6739 92.8404C81.547 92.8941 81.4104 92.9207 81.2727 92.9186C81.0336 92.9203 80.8023 92.8334 80.6234 92.6746C80.4527 92.5408 80.3295 92.3557 80.2718 92.1465C80.2439 92.1647 80.1814 92.2141 80.0821 92.2954C79.9531 92.3961 79.815 92.4845 79.6697 92.5595C79.4654 92.6659 79.2503 92.7501 79.0282 92.8109C78.7416 92.8875 78.4458 92.924 78.1492 92.9192C77.7121 92.9162 77.2808 92.8192 76.8845 92.6347C76.4636 92.444 76.0826 92.1752 75.7617 91.8425C75.4253 91.4932 75.1528 91.0874 74.9568 90.6437C74.7459 90.1661 74.6398 89.6487 74.6459 89.1266C74.6404 88.6024 74.7464 88.0831 74.9568 87.6031C75.1507 87.1582 75.4234 86.7522 75.7617 86.4046C76.084 86.0753 76.4648 85.8089 76.8845 85.6191C77.2808 85.4345 77.7121 85.3375 78.1492 85.3345C78.4458 85.3299 78.7416 85.3664 79.0282 85.4429C79.2503 85.5037 79.4653 85.588 79.6697 85.6942C79.815 85.7692 79.9531 85.8577 80.0821 85.9583C80.1814 86.0396 80.2444 86.0893 80.2718 86.1072C80.3294 85.8979 80.4527 85.7127 80.6234 85.5789C80.8024 85.4202 81.0336 85.3334 81.2727 85.3351C81.4095 85.3348 81.5451 85.3615 81.6716 85.4138C81.7981 85.4661 81.9131 85.5429 82.0099 85.6398C82.1066 85.7368 82.1833 85.8519 82.2355 85.9786C82.2877 86.1052 82.3144 86.241 82.314 86.378V91.862ZM79.7575 83.6683C79.8059 83.7158 79.8441 83.7728 79.8697 83.8356C79.8954 83.8985 79.9078 83.966 79.9064 84.0338C79.9066 84.1002 79.8929 84.1658 79.8661 84.2265C79.8393 84.2872 79.8 84.3415 79.7508 84.386C79.7039 84.4334 79.6481 84.471 79.5866 84.4966C79.5251 84.5222 79.4591 84.5353 79.3924 84.5351C79.3268 84.5356 79.2617 84.5227 79.2012 84.497C79.1407 84.4714 79.0861 84.4336 79.0408 84.386L78.2833 83.6275L77.5122 84.386C77.4167 84.4764 77.2919 84.5294 77.1606 84.5351C77.028 84.5333 76.9013 84.4798 76.8075 84.3859C76.7137 84.292 76.6603 84.1652 76.6586 84.0324C76.6551 83.9655 76.6654 83.8985 76.6887 83.8357C76.712 83.7728 76.7479 83.7154 76.7941 83.6669L77.9032 82.5561C77.9498 82.501 78.0078 82.4567 78.0732 82.4264C78.1386 82.396 78.2098 82.3802 78.2819 82.3802C78.354 82.3802 78.4253 82.396 78.4907 82.4264C78.5561 82.4567 78.6141 82.501 78.6607 82.5561L79.7575 83.6683ZM77.8031 87.5134C77.3845 87.6887 77.0517 88.0219 76.8767 88.4411C76.7624 88.707 76.7161 88.9972 76.742 89.2855C76.7678 89.5738 76.865 89.8511 77.0247 90.0924C77.1844 90.3337 77.4017 90.5313 77.6568 90.6674C77.912 90.8036 78.197 90.8739 78.4861 90.8721C78.7185 90.8744 78.9489 90.8283 79.1626 90.737C79.3671 90.6485 79.5529 90.5221 79.7104 90.3644C80.037 90.0349 80.2203 89.5895 80.2203 89.1252C80.2203 88.6609 80.037 88.2155 79.7104 87.8859C79.5528 87.7284 79.367 87.602 79.1626 87.5134C78.9489 87.4221 78.7185 87.376 78.4861 87.378C78.2516 87.3764 78.0192 87.4224 77.8031 87.5134Z" fill="#909295"/>
<path d="M87.4948 85.5105C88.2754 85.8405 88.8965 86.4624 89.2261 87.244C89.3984 87.6461 89.4859 88.0795 89.4832 88.5171V91.8623C89.4838 92.0041 89.4562 92.1446 89.402 92.2756C89.3507 92.4021 89.2749 92.5171 89.1789 92.6141C89.0838 92.709 88.9713 92.7848 88.8476 92.8375C88.6872 92.9032 88.5132 92.9285 88.3407 92.9112C88.1683 92.8939 88.0027 92.8346 87.8585 92.7383C87.7143 92.6421 87.5959 92.5119 87.5136 92.3592C87.4313 92.2065 87.3877 92.0359 87.3866 91.8623V88.4087C87.3896 88.2638 87.3594 88.1202 87.2985 87.9887C87.2375 87.8573 87.1474 87.7415 87.0349 87.6503C86.8069 87.4579 86.5182 87.3523 86.22 87.3523C85.9218 87.3523 85.6331 87.4579 85.4051 87.6503C85.294 87.7424 85.2052 87.8585 85.1453 87.9898C85.0853 88.1212 85.0559 88.2644 85.059 88.4087V91.8623C85.0571 92.1419 84.9454 92.4095 84.7479 92.6072C84.5505 92.8049 84.2832 92.9168 84.004 92.9187C83.8663 92.9209 83.7295 92.8943 83.6026 92.8407C83.4757 92.7871 83.3612 92.7076 83.2666 92.6074C83.1685 92.51 83.091 92.3939 83.0387 92.2659C82.9864 92.1379 82.9605 92.0006 82.9624 91.8623V88.5171C82.9596 88.0795 83.047 87.6462 83.2192 87.244C83.5488 86.4623 84.1701 85.8403 84.9508 85.5105C85.3532 85.3406 85.7855 85.2531 86.2222 85.2531C86.659 85.2531 87.0913 85.3406 87.4937 85.5105" fill="#909295"/>
<path d="M95.2455 92.7153C94.7695 92.9116 94.2586 93.0084 93.744 92.9999C93.2298 93.0033 92.7198 92.9066 92.2425 92.7153C91.781 92.5327 91.3606 92.2595 91.0062 91.9118C90.6518 91.5641 90.3704 91.1488 90.1787 90.6906C89.7734 89.6876 89.7734 88.5661 90.1787 87.5631C90.3704 87.1048 90.6518 86.6896 91.0062 86.3419C91.3606 85.9942 91.781 85.7209 92.2425 85.5384C92.7198 85.3471 93.2298 85.2504 93.744 85.2538C94.2586 85.2453 94.7695 85.3421 95.2455 85.5384C95.6456 85.7019 96.0158 85.9307 96.3412 86.2155C96.4844 86.3445 96.6035 86.4982 96.6926 86.6693C96.7618 86.8057 96.7989 86.9563 96.8011 87.1093C96.8025 87.2399 96.7747 87.3691 96.7197 87.4874C96.6647 87.6058 96.5838 87.7103 96.4831 87.7932C96.2806 87.9747 96.0176 88.0737 95.7458 88.0708C95.5775 88.0763 95.4111 88.0341 95.2658 87.949C95.1357 87.8679 95.0026 87.7776 94.8667 87.6782C94.7223 87.5736 94.5683 87.4829 94.4069 87.4073C94.1974 87.3187 93.9712 87.2771 93.744 87.2856C93.4979 87.2843 93.254 87.3327 93.027 87.4277C92.807 87.5185 92.6071 87.6521 92.4388 87.8206C92.2705 87.9891 92.1372 88.1892 92.0464 88.4095C91.9047 88.748 91.8664 89.121 91.9362 89.4814C92.0061 89.8417 92.181 90.1733 92.4388 90.4342C92.6072 90.6026 92.807 90.7361 93.027 90.8271C93.254 90.9222 93.4979 90.9705 93.744 90.9693C93.9778 90.9797 94.2111 90.9381 94.4269 90.8475C94.5839 90.7726 94.7315 90.6794 94.8667 90.5699C94.9874 90.4695 95.1139 90.3763 95.2455 90.2907C95.3971 90.2029 95.5708 90.1606 95.7458 90.169C96.0187 90.1664 96.2824 90.268 96.4831 90.4532C96.5836 90.5379 96.6642 90.6437 96.7192 90.7631C96.7741 90.8825 96.8021 91.0126 96.8011 91.1441C96.799 91.2971 96.7619 91.4477 96.6926 91.5841C96.6035 91.7552 96.4845 91.9089 96.3412 92.0379C96.0158 92.3227 95.6456 92.5518 95.2455 92.7153Z" fill="#909295"/>
<path d="M97.4363 83.0046C97.5402 82.8988 97.6646 82.8153 97.8018 82.7594C97.9391 82.7035 98.0863 82.6763 98.2345 82.6796C98.3836 82.6768 98.5317 82.7042 98.67 82.76C98.8083 82.8159 98.9339 82.8991 99.0393 83.0046C99.1468 83.1076 99.2318 83.2319 99.2888 83.3695C99.3458 83.5071 99.3737 83.6551 99.3707 83.8041C99.3712 83.9536 99.3423 84.1018 99.2854 84.2401C99.2285 84.3784 99.1448 84.5041 99.0392 84.6098C98.9336 84.7156 98.8081 84.7993 98.67 84.8563C98.5319 84.9133 98.3839 84.9423 98.2345 84.9417C98.0857 84.9447 97.9379 84.9167 97.8005 84.8595C97.6631 84.8023 97.5391 84.7171 97.4363 84.6094C97.3308 84.5039 97.2477 84.3782 97.1919 84.2398C97.1362 84.1013 97.1089 83.953 97.1117 83.8038C97.1085 83.6554 97.1356 83.5079 97.1914 83.3704C97.2473 83.2329 97.3306 83.1086 97.4363 83.0046ZM99.2895 91.862C99.2895 92.036 99.2466 92.2072 99.1647 92.3605C99.0827 92.5138 98.9642 92.6445 98.8197 92.741C98.6752 92.8375 98.5091 92.8967 98.3363 92.9135C98.1634 92.9303 97.989 92.904 97.8287 92.8371C97.7049 92.7847 97.5923 92.7088 97.4971 92.6138C97.4011 92.5168 97.3252 92.4016 97.274 92.275C97.2199 92.1441 97.1923 92.0037 97.1929 91.862V86.377C97.1925 86.2399 97.2193 86.1042 97.2715 85.9775C97.3237 85.8508 97.4004 85.7357 97.4972 85.6389C97.594 85.542 97.709 85.4652 97.8355 85.4129C97.962 85.3606 98.0976 85.3339 98.2345 85.3343C98.376 85.3338 98.5162 85.3614 98.647 85.4156C98.7733 85.467 98.8883 85.5429 98.9852 85.639C99.0801 85.7343 99.1558 85.8469 99.2083 85.9707C99.2628 86.0991 99.2904 86.2374 99.2895 86.377V91.862Z" fill="#909295"/>
<path d="M107.351 91.862C107.353 92.0003 107.327 92.1375 107.275 92.2655C107.222 92.3936 107.145 92.5097 107.047 92.607C106.952 92.7073 106.838 92.7868 106.711 92.8404C106.584 92.8941 106.447 92.9207 106.31 92.9186C106.071 92.9203 105.839 92.8334 105.66 92.6746C105.49 92.5408 105.366 92.3557 105.309 92.1465C105.281 92.1647 105.218 92.2141 105.119 92.2953C104.99 92.396 104.852 92.4845 104.707 92.5595C104.502 92.6658 104.287 92.7501 104.065 92.8108C103.779 92.8875 103.483 92.9239 103.186 92.9192C102.749 92.9162 102.318 92.8192 101.921 92.6346C101.5 92.444 101.12 92.1752 100.799 91.8424C100.462 91.4932 100.19 91.0874 99.9938 90.6437C99.7828 90.1661 99.6768 89.6487 99.6828 89.1266C99.6773 88.6024 99.7833 88.083 99.9938 87.603C100.188 87.1582 100.46 86.7521 100.799 86.4045C101.121 86.0752 101.502 85.8089 101.921 85.619C102.318 85.4345 102.749 85.3375 103.186 85.3345C103.483 85.3299 103.779 85.3663 104.065 85.4428C104.287 85.5037 104.502 85.5879 104.707 85.6942C104.852 85.7692 104.99 85.8576 105.119 85.9583C105.218 86.0396 105.281 86.0893 105.309 86.1072C105.366 85.8979 105.49 85.7127 105.66 85.5788C105.839 85.4202 106.071 85.3334 106.31 85.3351C106.446 85.3347 106.582 85.3615 106.709 85.4138C106.835 85.4661 106.95 85.5429 107.047 85.6398C107.144 85.7367 107.22 85.8518 107.272 85.9785C107.325 86.1052 107.351 86.241 107.351 86.378V91.862ZM102.84 87.5134C102.421 87.6887 102.089 88.0219 101.914 88.441C101.799 88.7069 101.753 88.9972 101.779 89.2855C101.805 89.5738 101.902 89.8511 102.062 90.0924C102.221 90.3337 102.439 90.5313 102.694 90.6674C102.949 90.8035 103.234 90.8739 103.523 90.8721C103.755 90.8743 103.986 90.8283 104.2 90.7369C104.404 90.6485 104.59 90.5221 104.747 90.3644C105.074 90.0349 105.257 89.5894 105.257 89.1252C105.257 88.6609 105.074 88.2154 104.747 87.8859C104.59 87.7284 104.404 87.602 104.2 87.5134C103.986 87.4221 103.755 87.3759 103.523 87.378C103.289 87.3763 103.056 87.4224 102.84 87.5134Z" fill="#909295"/>
<path d="M122.338 91.456C122.356 91.499 122.366 91.5449 122.366 91.5914V91.7269C122.365 91.8606 122.342 91.9933 122.298 92.1198C122.251 92.2593 122.18 92.3898 122.089 92.5057C121.985 92.6405 121.85 92.7484 121.696 92.8202C121.542 92.8921 121.373 92.9259 121.203 92.9187C120.939 92.9143 120.683 92.8251 120.474 92.6642C120.265 92.5033 120.112 92.2792 120.04 92.0251L119.039 88.0041L117.537 92.1485C117.467 92.3665 117.339 92.5609 117.165 92.7103C116.989 92.8465 116.773 92.9203 116.55 92.9203C116.327 92.9203 116.111 92.8465 115.934 92.7103C115.761 92.5608 115.633 92.3665 115.563 92.1485L114.061 88.0041L113.047 92.0251C112.978 92.2815 112.825 92.5075 112.614 92.6673C112.41 92.8302 112.157 92.9188 111.897 92.9187C111.742 92.9188 111.588 92.8878 111.445 92.8274C111.302 92.7669 111.173 92.6783 111.065 92.5668C110.961 92.458 110.876 92.332 110.814 92.1943C110.711 91.9621 110.691 91.7009 110.76 91.456L112.708 83.6549C112.773 83.4053 112.912 83.1813 113.107 83.0127C113.313 82.8409 113.576 82.7514 113.844 82.7614C114.082 82.7627 114.314 82.8386 114.507 82.9783C114.71 83.1178 114.866 83.3163 114.953 83.5472L116.549 87.9354L118.145 83.5472C118.232 83.3162 118.388 83.1177 118.591 82.9783C118.784 82.8385 119.016 82.7627 119.254 82.7614C119.522 82.7515 119.785 82.841 119.991 83.0127C120.186 83.1814 120.325 83.4053 120.39 83.6549L122.338 91.456Z" fill="#909295"/>
<path d="M125.043 90.5351C125.047 90.568 125.059 90.5994 125.078 90.6265C125.097 90.6537 125.122 90.6758 125.151 90.6909C125.236 90.7469 125.327 90.7924 125.422 90.8264C125.537 90.869 125.654 90.9029 125.774 90.9277C125.885 90.9531 125.998 90.9667 126.112 90.9685C126.343 90.979 126.574 90.9398 126.788 90.8534C126.935 90.786 127.074 90.7016 127.201 90.6021C127.312 90.512 127.421 90.4283 127.526 90.3508C127.652 90.2677 127.801 90.2273 127.952 90.2358C128.09 90.2365 128.227 90.269 128.35 90.3307C128.478 90.392 128.595 90.4744 128.695 90.5745C128.795 90.6741 128.875 90.7911 128.932 90.9196C128.991 91.0496 129.02 91.1905 129.02 91.3329C129.019 91.4653 128.991 91.596 128.937 91.7171C128.884 91.8382 128.806 91.9471 128.709 92.0371C128.384 92.3308 128.008 92.5626 127.6 92.721C127.127 92.9103 126.621 93.0046 126.112 92.9986C125.598 93.002 125.088 92.9055 124.61 92.7143C124.149 92.5317 123.729 92.2585 123.374 91.9108C123.02 91.563 122.738 91.1478 122.547 90.6895C122.141 89.6866 122.141 88.5651 122.547 87.5621C122.738 87.1038 123.02 86.6886 123.374 86.3408C123.729 85.9931 124.149 85.7199 124.61 85.5373C125.087 85.3458 125.597 85.2488 126.11 85.2516C126.517 85.2519 126.921 85.3158 127.308 85.4413C127.684 85.5594 128.036 85.7428 128.349 85.983C128.646 86.2114 128.894 86.4969 129.079 86.8226C129.267 87.1575 129.363 87.536 129.357 87.9198C129.362 88.1252 129.313 88.3284 129.215 88.509C129.112 88.6826 128.952 88.8144 128.762 88.8812L125.231 90.3575C125.105 90.4134 125.042 90.4692 125.042 90.5337M124.44 88.7798C124.474 88.8031 124.514 88.815 124.555 88.8136C124.601 88.8116 124.647 88.8022 124.69 88.7857L126.882 87.8642C127.008 87.81 127.071 87.7472 127.071 87.6746C127.071 87.5752 126.976 87.4849 126.787 87.4037C126.572 87.3177 126.342 87.2763 126.11 87.282C125.873 87.2789 125.638 87.3273 125.421 87.4238C125.224 87.5115 125.042 87.628 124.88 87.7695C124.734 87.8952 124.612 88.0466 124.521 88.2163C124.443 88.3526 124.399 88.5059 124.393 88.6631C124.391 88.6847 124.394 88.7065 124.402 88.7266C124.41 88.7467 124.423 88.7644 124.44 88.7781" fill="#909295"/>
<path d="M131.942 91.8624C131.942 92.0363 131.899 92.2075 131.817 92.3608C131.735 92.5141 131.617 92.6448 131.472 92.7413C131.328 92.8378 131.162 92.897 130.989 92.9138C130.816 92.9306 130.641 92.9043 130.481 92.8375C130.357 92.7849 130.245 92.7091 130.15 92.6141C130.054 92.517 129.978 92.4019 129.926 92.2754C129.872 92.1444 129.845 92.004 129.845 91.8624V83.8041C129.845 83.667 129.872 83.5312 129.924 83.4045C129.976 83.2778 130.053 83.1627 130.15 83.0658C130.247 82.9688 130.362 82.892 130.488 82.8397C130.615 82.7874 130.75 82.7606 130.887 82.7609C131.029 82.7605 131.169 82.7881 131.3 82.8421C131.426 82.8935 131.541 82.9694 131.638 83.0655C131.733 83.1608 131.809 83.2735 131.861 83.3975C131.916 83.526 131.943 83.6643 131.942 83.8038L131.942 91.8624Z" fill="#909295"/>
<path d="M135.453 85.4089C135.649 85.3554 135.852 85.3303 136.055 85.3343C136.492 85.3316 136.925 85.4193 137.327 85.5918C137.716 85.758 138.069 85.997 138.368 86.296C138.667 86.5965 138.908 86.95 139.078 87.3387C139.255 87.7398 139.345 88.1737 139.342 88.612V91.8623C139.342 92.0363 139.299 92.2075 139.217 92.3609C139.135 92.5142 139.017 92.645 138.872 92.7415C138.728 92.838 138.562 92.8972 138.389 92.914C138.216 92.9308 138.042 92.9046 137.881 92.8377C137.758 92.7852 137.645 92.7094 137.55 92.6143C137.454 92.5174 137.378 92.4022 137.327 92.2756C137.273 92.1446 137.245 92.0041 137.246 91.8623V88.612C137.248 88.4569 137.219 88.3029 137.159 88.1597C137.1 88.0164 137.012 87.8869 136.9 87.779C136.791 87.6667 136.659 87.5781 136.513 87.5187C136.368 87.4593 136.212 87.4303 136.055 87.4336C135.743 87.4338 135.444 87.5581 135.223 87.779C135.003 87.9999 134.878 88.2995 134.878 88.612V91.8623C134.878 92.0363 134.835 92.2075 134.753 92.3609C134.672 92.5142 134.553 92.645 134.409 92.7415C134.264 92.838 134.098 92.8972 133.925 92.914C133.752 92.9308 133.578 92.9046 133.417 92.8377C133.294 92.7851 133.181 92.7092 133.086 92.6143C132.99 92.5174 132.914 92.4022 132.863 92.2756C132.809 92.1446 132.781 92.0041 132.782 91.8623V83.8041C132.782 83.667 132.808 83.5313 132.86 83.4046C132.913 83.2779 132.989 83.1628 133.086 83.0659C133.183 82.969 133.298 82.8921 133.424 82.8398C133.551 82.7875 133.686 82.7608 133.823 82.7611C133.965 82.7606 134.105 82.7882 134.236 82.8424C134.362 82.8937 134.477 82.9697 134.574 83.0658C134.669 83.161 134.745 83.2737 134.797 83.3978C134.852 83.5262 134.879 83.6645 134.878 83.8041V85.673C135.059 85.5628 135.252 85.4741 135.453 85.4089Z" fill="#909295"/>
<path d="M142.1 92.7154C141.638 92.5329 141.218 92.2597 140.864 91.912C140.509 91.5643 140.228 91.149 140.036 90.6907C139.631 89.6877 139.631 88.5662 140.036 87.5632C140.228 87.1048 140.509 86.6896 140.864 86.3418C141.218 85.9941 141.638 85.7209 142.1 85.5384C143.065 85.1594 144.138 85.1594 145.103 85.5384C145.564 85.721 145.985 85.9942 146.339 86.342C146.694 86.6897 146.975 87.1049 147.167 87.5632C147.572 88.5662 147.572 89.6877 147.167 90.6907C146.975 91.1489 146.694 91.5641 146.339 91.9119C145.985 92.2596 145.564 92.5328 145.103 92.7154C144.138 93.0948 143.065 93.0948 142.1 92.7154ZM141.905 89.8443C141.995 90.0647 142.129 90.2649 142.297 90.4334C142.465 90.602 142.665 90.7355 142.885 90.8264C143.344 91.0155 143.859 91.0155 144.318 90.8264C144.652 90.6841 144.936 90.446 145.135 90.1422C145.334 89.8384 145.438 89.4825 145.435 89.1193C145.432 88.7561 145.322 88.402 145.118 88.1016C144.914 87.8011 144.626 87.5678 144.29 87.4311C143.954 87.2944 143.585 87.2604 143.23 87.3333C142.875 87.4063 142.549 87.583 142.294 87.8411C142.039 88.0992 141.865 88.4272 141.796 88.7837C141.727 89.1402 141.765 89.5092 141.905 89.8443Z" fill="#909295"/>
<path d="M149.959 91.8623C149.957 92.1419 149.845 92.4095 149.648 92.6072C149.45 92.8049 149.183 92.9168 148.904 92.9187C148.766 92.9208 148.629 92.8943 148.502 92.8406C148.375 92.787 148.261 92.7076 148.166 92.6073C148.068 92.5099 147.991 92.3938 147.938 92.2658C147.886 92.1378 147.86 92.0006 147.862 91.8623V86.3769C147.862 86.1859 147.915 85.9986 148.015 85.8354C148.114 85.6723 148.256 85.5395 148.426 85.4516C148.595 85.3636 148.785 85.3239 148.976 85.3366C149.166 85.3494 149.349 85.4141 149.506 85.5239C149.666 85.6325 149.795 85.7823 149.878 85.9575C149.94 85.912 150.026 85.8556 150.135 85.788C150.243 85.7205 150.365 85.6526 150.5 85.585C150.641 85.5144 150.788 85.4554 150.939 85.4088C151.104 85.3581 151.275 85.333 151.446 85.3343C151.621 85.3348 151.794 85.3622 151.961 85.4155C152.125 85.4665 152.281 85.5442 152.42 85.6456C152.557 85.7471 152.668 85.8794 152.745 86.0318C152.828 86.1976 152.87 86.3811 152.867 86.5666C152.87 86.7529 152.833 86.9376 152.759 87.1086C152.692 87.2622 152.598 87.4022 152.481 87.5215C152.371 87.6332 152.24 87.7227 152.096 87.7854C151.837 87.8992 151.545 87.9113 151.278 87.8195C151.18 87.7824 151.087 87.7347 151 87.6774C150.924 87.6259 150.845 87.5784 150.763 87.5352C150.682 87.4933 150.591 87.4723 150.5 87.4741C150.445 87.4753 150.391 87.4821 150.337 87.4945C150.273 87.5083 150.213 87.5361 150.162 87.5757C150.1 87.6265 150.051 87.6916 150.02 87.7653C149.975 87.8746 149.954 87.9924 149.959 88.1105V91.8623Z" fill="#909295"/>
<path d="M95.6858 44.7261V48.4346H65.3853C64.895 48.4318 64.4256 48.2355 64.0789 47.8884C63.7322 47.5413 63.5361 47.0714 63.5332 46.5805C63.5392 46.0905 63.7363 45.6223 64.0823 45.2759C64.4283 44.9294 64.8959 44.7321 65.3853 44.7261H95.6858Z" fill="#00AFF0"/>
<path d="M160 46.5807C159.994 47.0706 159.797 47.5387 159.451 47.8852C159.105 48.2316 158.637 48.4289 158.148 48.4349H127.848V44.7263H158.148C158.638 44.7292 159.108 44.9255 159.455 45.2726C159.801 45.6198 159.997 46.0898 160 46.5807Z" fill="#C8C82D"/>
<path d="M127.848 44.7261H95.6858V48.4346H127.848V44.7261Z" fill="#EB008C"/>
</g>
<defs>
<clipPath id="clip0_603_13950">
<rect width="160" height="93" fill="white"/>
</clipPath>
</defs>
</svg>
